<svg xmlns="http://www.w3.org/2000/svg" xmlns:xlink="http://www.w3.org/1999/xlink" viewBox="0 0 404 180"><defs><style>.cls-1,.cls-2,.cls-5{fill:none;}.cls-2,.cls-4,.cls-6{stroke:#253948;}.cls-2,.cls-5,.cls-6{stroke-linecap:round;stroke-linejoin:round;stroke-width:1.25px;}.cls-3,.cls-4{fill:#253948;}.cls-4{stroke-miterlimit:10;stroke-width:0.25px;}.cls-5{stroke:#fff;}.cls-6{fill:#fff;}.cls-7{clip-path:url(#clip-path);}</style><clipPath id="clip-path"><ellipse class="cls-1" cx="310.37" cy="90.35" rx="23.66" ry="6.13"/></clipPath></defs><g id="Layer_1" data-name="Layer 1"><path class="cls-2" d="M158.88,45s0-16.57,14.91-9.94c0,0,11.6-9.94,6.63-18.22,0,0,9.94,5,9.94,14.91,0,0,11.59-1.66,13.25,9.94,14.91,0,14,13,10.77,16.15,1,3.29-14.46,6.22-32.31,6.22s-32.3-2.79-32.3-6.22c0,0-2.49-14.49,9.11-12.84"/><path class="cls-2" d="M212.63,122.69c1,3.28-14.47,6.21-32.31,6.21-1.32,0-2.61,0-3.89,0"/><path class="cls-2" d="M210.88,119.18c1,3.29-14.47,6.22-32.31,6.22-1.53,0-3,0-4.52-.06"/><path class="cls-2" d="M118.75,76.62c19.5.75,34.89,9.48,34.89,20.13,0,11.15-16.84,20.19-37.61,20.19s-37.61-9-37.61-20.19c0-10.94,16.24-19.86,36.5-20.17"/><path class="cls-2" d="M80.36,103.17c5-8,19.08-13.76,35.67-13.76s30.67,5.77,35.67,13.76"/><path class="cls-3" d="M151.7,103.17c-5,8-19.08,13.77-35.67,13.77s-30.67-5.77-35.67-13.77h0c5-8,19.08-13.76,35.67-13.76s30.67,5.77,35.67,13.76Z"/><path class="cls-2" d="M153.6,97.65c0,.72,0,1.44,0,2.16,0,26-16.84,47.09-37.61,47.09S78.42,125.82,78.42,99.81c0-1-.06-1.44,0-2.45"/><path class="cls-2" d="M78.72,106.35C77.1,104.13,73,99.38,68,101c-7.34,2.45-7.89,12.08-6.12,17.74,3,9.71,13.29,16.4,23.6,8.76"/><path class="cls-2" d="M79.08,112.15c-1.31-1.93-6.22-7.46-10.12-7-5.28.62-4.12,9.63-2.9,13.65,2.07,6.84,10.38,11.59,16.89,5.62"/><path class="cls-2" d="M65.89,117.42a75.85,75.85,0,0,1,13.77-5.53"/><path class="cls-2" d="M152.15,113c16.46,5.66,27.18,14.91,27.18,25.35,0,17.23-29.16,31.19-65.14,31.19s-65.13-14-65.13-31.19c0-7.05,4.88-13.55,13.11-18.77"/><path class="cls-4" d="M238,52.07c-17,0-30.76,6.28-30.76,14v79.46c0,7.74,13.77,14,30.76,14s30.75-6.28,30.75-14V66.09C268.7,58.35,254.93,52.07,238,52.07Z"/><ellipse class="cls-2" cx="237.25" cy="32.53" rx="30.75" ry="14.02"/><path class="cls-2" d="M268,145.55c0,7.74-13.77,14-30.75,14s-30.76-6.28-30.76-14"/><path class="cls-5" d="M268,66.09c0,7.75-13.77,14-30.75,14s-30.76-6.27-30.76-14"/><path class="cls-2" d="M206.49,66.09c0-7.74,13.77-14,30.76-14S268,58.35,268,66.09"/><line class="cls-6" x1="268" y1="32.88" x2="268" y2="145.55"/><path class="cls-5" d="M244.59,101.62l-9.25-9.81a3.45,3.45,0,0,1,0-4.7l9.25-9.81a3,3,0,0,1,4.43,0l9.25,9.81a3.48,3.48,0,0,1,0,4.7L249,101.62A3,3,0,0,1,244.59,101.62Z"/><path class="cls-5" d="M230,120.75l-13-1.08a3.28,3.28,0,0,1-2.88-3.58l1-13.83a3.19,3.19,0,0,1,3.36-3.05l13,1.09a3.27,3.27,0,0,1,2.88,3.57l-1,13.83A3.18,3.18,0,0,1,230,120.75Z"/><path class="cls-5" d="M239.6,132.66l1.66-13.76a3.18,3.18,0,0,1,3.51-2.88l13,1.76a3.29,3.29,0,0,1,2.71,3.72l-1.66,13.76a3.18,3.18,0,0,1-3.5,2.88l-13-1.76A3.29,3.29,0,0,1,239.6,132.66Z"/><line class="cls-6" x1="206.49" y1="32.52" x2="206.49" y2="145.89"/><path class="cls-2" d="M116.42,15a.36.36,0,0,0-.57-.4c-3,2.94-10.29,11-10.58,19C104.91,43.32,113,55,115.43,64c1.74,6.49-.87,15.51-2.71,20.6a.53.53,0,0,0,.94.48c2.9-4.24,7.38-11.74,8.23-18.59,1.29-10.26-11.18-23.52-10-35.72C112.42,25.07,115.15,18,116.42,15Z"/><path class="cls-2" d="M100,20.17a.25.25,0,0,0-.4-.27C97.49,22,92.4,27.58,92.2,33.22,92,40,97.64,48.2,99.32,54.5c1.21,4.55-.61,10.86-1.9,14.43a.37.37,0,0,0,.66.34c2-3,5.16-8.23,5.77-13,.9-7.19-7.84-16.48-7-25A43.65,43.65,0,0,1,100,20.17Z"/><path class="cls-2" d="M130,17.75a.25.25,0,0,0-.41-.27c-2.11,2.05-7.2,7.69-7.41,13.32-.24,6.81,5.44,15,7.13,21.28,1.21,4.55-.62,10.86-1.9,14.43a.37.37,0,0,0,.66.34c2-3,5.16-8.23,5.76-13,.9-7.19-7.84-16.48-7-25C127.2,24.82,129.12,19.88,130,17.75Z"/><path class="cls-2" d="M149.82,58.73c-.79,6.2-2,17.94-1.28,27.55"/><path class="cls-2" d="M164.44,47.42s7,5.26,21,3.5,15.78-5.25,15.78-5.25"/><path class="cls-2" d="M175,40.41s10.51,1.75,14-3.51"/><path class="cls-2" d="M136.4,79s0-19.28,12.27-17.52"/><path class="cls-2" d="M141.54,82c-.21-5.09.42-16.63,7.06-15.31"/><ellipse class="cls-2" cx="310.37" cy="90.35" rx="23.66" ry="6.13"/><g class="cls-7"><ellipse class="cls-3" cx="310.37" cy="92.98" rx="23.66" ry="6.13"/></g><path class="cls-2" d="M286.72,90.35s4.13,24.42,6.13,32.42c1.31,5.26,7.85,10.51,17.52,10.51s15.34-3.5,17.53-10.51c2.46-7.87,6.13-32.42,6.13-32.42"/><path class="cls-2" d="M332.5,99.69c1.69-1.56,4.05-2.94,6.71-2,6,2,6.43,9.85,5,14.46-2.14,6.85-8.7,11.86-15.87,9"/><path class="cls-2" d="M332.23,104.31a6.41,6.41,0,0,1,4.51-1.67c4.16.44,4.27,6,3.31,8.86-1.34,4-6,6.94-10.5,5.5"/><path class="cls-2" d="M340.1,118.7c3.77,2.83,6,6.22,6,9.88,0,9.86-16,17.84-35.7,17.84s-35.69-8-35.69-17.84c0-6.25,6.42-11.75,16.15-14.93"/><path class="cls-2" d="M330.05,114.3a39.78,39.78,0,0,1,4.54,2.16"/><line class="cls-2" x1="344.02" y1="112.53" x2="401" y2="112.53"/><line class="cls-2" x1="330.22" y1="112.53" x2="339.42" y2="112.53"/><line class="cls-2" x1="268.25" y1="112.53" x2="290.5" y2="112.53"/><line class="cls-2" x1="65.85" y1="112.53" x2="76.92" y2="112.53"/><line class="cls-2" x1="6.27" y1="112.53" x2="60.96" y2="112.53"/></g></svg>