<svg xmlns="http://www.w3.org/2000/svg" viewBox="0 0 200 200"><defs><style>.cls-1,.cls-3{fill:#253948;}.cls-2{fill:none;}.cls-2,.cls-3{stroke:#253948;stroke-linecap:round;stroke-linejoin:round;stroke-width:1.25px;}</style></defs><g id="Layer_3" data-name="Layer 3"><path class="cls-1" d="M84.5,125.51s2.84-2.69,8-2c0,0,.74-5.91,6.65-5.17,0,0,.74-4.44,7.39-3,0,0,0-5.17,5.91-4.43a8.69,8.69,0,0,1,7.39-3.7c8.86,0,9.6,9.61,9.6,9.61s4.43-3,6.65,5.17c0,0,1.79-.74,5.48,0s3.38,6.66,3.38,6.66a5.65,5.65,0,0,1,3.69-1.48c3.77,0,3,6.65,3,6.65s2.4-.72,3.69,0c3.91,2.19,2.95,5.27,3,7.38a16.56,16.56,0,0,1,3.63.62c4.56,2.74,3,8.25,3,8.25a7.12,7.12,0,0,1,3.36-1c3.86,0,3.64,8.19,3.64,8.19s-6.56,1-10,1.82-18.35,1.78-20.94.91-16.64-6.94-16.64-6.94l-9.76-3.07s3.71-3.84-3.2-9c-4-3-24.12-9.19-24.12-9.19Z"/></g><g id="Layer_1" data-name="Layer 1"><path class="cls-2" d="M11.29,106.27a46.43,46.43,0,0,0,11.79-2.67c19.59-7.4,35.7-2.5,51.32,10.71,2.75,2.33,10.38,8.64,12.73,17.23,11.11,3.6,17,5.72,21.2,7.94,10,5.21,10.28,14.26-4.62,11.85-5.59-.91-16.42-3.06-21.77-4.43-4.32-1.11-25.64-19.45-25.64-19.45"/><path class="cls-2" d="M104,165.41s20.31,11.31,34.56,10.1c3.46-.29,23.43-2,38.69-6.83,14.1-4.45,6.61-13.61-9.1-10.51-4.38.87-23,3.14-28,1.66-4.08-1.22-16.63-7.66-25.47-10"/><path class="cls-2" d="M98,174.27s27.41,10.41,37.39,8.14c0,0,33.47-5.2,44.88-9,5.65-1.89,11.41-5.39,10.36-9.71-1.14-4.64-8.49-4.52-8.49-4.52"/><path class="cls-2" d="M125.59,181.88c-.63.31-37.77-.61-47.4-2.55-22.75-4.57-44.32-31.76-67.28-29.82"/><path class="cls-3" d="M181.25,166.85c1.12-.79,2.11-2.75-5.42-.82l-7.38,1.89.42,2.87S178.59,168.71,181.25,166.85Z"/><path class="cls-3" d="M187.68,169.29s2.72-2.27-4.81-.34l-7.38,1.89s-.31,2.89.42,2.87C184,173.38,187.68,169.29,187.68,169.29Z"/><path class="cls-3" d="M109.35,151.56s5.71-3.92-.23-6.46c-1.89-.81-5.77-1.62-8.14-1.07-1.86.43-6.1,5.45-1.06,6.14C101,150.32,109.35,151.56,109.35,151.56Z"/><path class="cls-1" d="M109.9,92.72a2.54,2.54,0,0,0-.47-.07h-.1a2,2,0,0,0-.9.25,2.25,2.25,0,0,0-.82.8,2.35,2.35,0,0,0-.24.54.72.72,0,0,0-.07.25,3,3,0,0,0-.07.61,3.41,3.41,0,0,0,.1.64,2.72,2.72,0,0,0,1.22,1.56,2.66,2.66,0,0,0,.52.23,3,3,0,0,0,.6.11.74.74,0,0,0,.21,0,2.43,2.43,0,0,0,.6-.1,2.17,2.17,0,0,0,.83-.51,2.79,2.79,0,0,0,.3-.38,2.28,2.28,0,0,0,.2-.45c.08-.19.09-.4.17-.6l-.15.36a2.12,2.12,0,0,1,.12-.2,1.94,1.94,0,0,0,.28-.91,1.76,1.76,0,0,0-.86-1.55,5.16,5.16,0,0,0-.8-.33l-.57-.22a1.22,1.22,0,0,0-.6,0,1.16,1.16,0,0,0-.56.18,1.12,1.12,0,0,0-.42.39,1.14,1.14,0,0,0-.27.51,1.54,1.54,0,0,0,.16,1.15l.23.31a1.57,1.57,0,0,0,.66.38l.92.36-.36-.15a.24.24,0,0,1,.11.06l-.3-.24.06,0-.24-.3,0,0-.15-.36a.43.43,0,0,1,0,0l0-.4v.09l0-.4s0,0,0,0l.15-.36a1,1,0,0,1-.13.2.54.54,0,0,0-.05.11,3.57,3.57,0,0,0-.19.45,4.77,4.77,0,0,1-.13.51l.15-.36a.83.83,0,0,1-.08.12l.24-.3-.1.09.31-.23-.12.06.36-.15a.53.53,0,0,1-.18,0l.4,0a.88.88,0,0,1-.23,0l.4,0a1,1,0,0,1-.25-.07l.36.15a1.28,1.28,0,0,1-.25-.15l.3.24a1.8,1.8,0,0,1-.19-.2l.23.3a1.75,1.75,0,0,1-.16-.27l.16.36a1,1,0,0,1-.08-.29l0,.4a1.13,1.13,0,0,1,0-.26l0,.4a1.28,1.28,0,0,1,.07-.28l-.15.36a1.59,1.59,0,0,1,.13-.22l-.24.31a.67.67,0,0,1,.14-.15l-.3.24.12-.08-.36.15.11,0-.39.05h.11l-.4-.05h.07a1.49,1.49,0,0,0,1.15-.15,1,1,0,0,0,.42-.38,1.06,1.06,0,0,0,.27-.51,1.51,1.51,0,0,0-.15-1.16,1.57,1.57,0,0,0-.89-.69Z"/><path class="cls-1" d="M128.9,66.72a2.54,2.54,0,0,0-.47-.07h-.1a2,2,0,0,0-.9.25,2.25,2.25,0,0,0-.82.8,2.35,2.35,0,0,0-.24.54.72.72,0,0,0-.07.25,3,3,0,0,0-.07.61,3.41,3.41,0,0,0,.1.64,2.72,2.72,0,0,0,1.22,1.56,2.66,2.66,0,0,0,.52.23,3,3,0,0,0,.6.11.74.74,0,0,0,.21,0,2.43,2.43,0,0,0,.6-.1,2.17,2.17,0,0,0,.83-.51,2.79,2.79,0,0,0,.3-.38,2.28,2.28,0,0,0,.2-.45c.08-.19.09-.4.17-.6l-.15.36a2.12,2.12,0,0,1,.12-.2,1.94,1.94,0,0,0,.28-.91,1.76,1.76,0,0,0-.86-1.55,5.16,5.16,0,0,0-.8-.33l-.57-.22a1.22,1.22,0,0,0-.6,0,1.16,1.16,0,0,0-.56.18,1.12,1.12,0,0,0-.42.39,1.14,1.14,0,0,0-.27.51,1.54,1.54,0,0,0,.16,1.15l.23.31a1.57,1.57,0,0,0,.66.38l.92.36-.36-.15a.24.24,0,0,1,.11.06l-.3-.24.06,0-.24-.3,0,0-.15-.36a.43.43,0,0,1,0,0l-.05-.4v.09l.05-.4s0,0,0,0l.15-.36a1,1,0,0,1-.13.2.54.54,0,0,0,0,.11,3.57,3.57,0,0,0-.19.45,4.77,4.77,0,0,1-.13.51l.15-.36a.83.83,0,0,1-.08.12l.24-.3-.1.09.31-.23a.67.67,0,0,1-.12.06l.36-.15a.53.53,0,0,1-.18,0l.4,0a.88.88,0,0,1-.23,0l.4,0a1,1,0,0,1-.25-.07l.36.15a1.28,1.28,0,0,1-.25-.15l.3.24a1.8,1.8,0,0,1-.19-.2l.23.3a1.75,1.75,0,0,1-.16-.27l.16.36a1,1,0,0,1-.08-.29l.05.4a1.13,1.13,0,0,1,0-.26l-.05.4a1.28,1.28,0,0,1,.07-.28l-.15.36a1.59,1.59,0,0,1,.13-.22l-.24.31a.67.67,0,0,1,.14-.15l-.3.24.12-.08-.36.15.11,0-.39.05h.11l-.4-.05h.07a1.49,1.49,0,0,0,1.15-.15,1,1,0,0,0,.42-.38,1.06,1.06,0,0,0,.27-.51,1.51,1.51,0,0,0-.15-1.16,1.57,1.57,0,0,0-.89-.69Z"/><path class="cls-1" d="M118.9,20.72a2.54,2.54,0,0,0-.47-.07h-.1a2,2,0,0,0-.9.25,2.25,2.25,0,0,0-.82.8,2.35,2.35,0,0,0-.24.54.72.72,0,0,0-.07.25,3,3,0,0,0-.07.61,3.41,3.41,0,0,0,.1.64,2.72,2.72,0,0,0,1.22,1.56,2.66,2.66,0,0,0,.52.23,3,3,0,0,0,.6.11h.21a2.43,2.43,0,0,0,.6-.1,2.17,2.17,0,0,0,.83-.51,2.79,2.79,0,0,0,.3-.38,2.28,2.28,0,0,0,.2-.45c.08-.19.09-.4.17-.6l-.15.36a2.12,2.12,0,0,1,.12-.2,1.94,1.94,0,0,0,.28-.91,1.76,1.76,0,0,0-.86-1.55,5.16,5.16,0,0,0-.8-.33l-.57-.22a1.22,1.22,0,0,0-.6,0,1.16,1.16,0,0,0-.56.18,1.12,1.12,0,0,0-.42.39,1.14,1.14,0,0,0-.27.51,1.54,1.54,0,0,0,.16,1.15l.23.31a1.57,1.57,0,0,0,.66.38l.92.36-.36-.15a.24.24,0,0,1,.11.06l-.3-.24.06,0-.24-.3,0,0-.15-.36a.43.43,0,0,1,0,.05l0-.4v.09l0-.4s0,0,0,.05l.15-.36a1,1,0,0,1-.13.2.54.54,0,0,0-.05.11,3.57,3.57,0,0,0-.19.45,4.77,4.77,0,0,1-.13.51l.15-.36a.83.83,0,0,1-.08.12l.24-.3-.1.09.31-.23a.67.67,0,0,1-.12.06l.36-.15a.53.53,0,0,1-.18.05l.4-.05h-.23l.4.05a1,1,0,0,1-.25-.07l.36.15a1.28,1.28,0,0,1-.25-.15l.3.24a1.8,1.8,0,0,1-.19-.2l.23.3a1.75,1.75,0,0,1-.16-.27l.16.36a1,1,0,0,1-.08-.29l0,.4a1.13,1.13,0,0,1,0-.26l0,.4a1.28,1.28,0,0,1,.07-.28l-.15.36a1.59,1.59,0,0,1,.13-.22l-.24.31a.67.67,0,0,1,.14-.15l-.3.24.12-.08-.36.15.11,0-.39,0h.11l-.4,0h.07a1.49,1.49,0,0,0,1.15-.15,1,1,0,0,0,.42-.38,1.06,1.06,0,0,0,.27-.51,1.51,1.51,0,0,0-.15-1.16,1.57,1.57,0,0,0-.89-.69Z"/><path class="cls-1" d="M116.9,53.72a2.54,2.54,0,0,0-.47-.07h-.1a2,2,0,0,0-.9.25,2.25,2.25,0,0,0-.82.8,2.35,2.35,0,0,0-.24.54.72.72,0,0,0-.07.25,3,3,0,0,0-.07.61,3.41,3.41,0,0,0,.1.64,2.72,2.72,0,0,0,1.22,1.56,2.66,2.66,0,0,0,.52.23,3,3,0,0,0,.6.11h.21a2.43,2.43,0,0,0,.6-.1,2.17,2.17,0,0,0,.83-.51,2.79,2.79,0,0,0,.3-.38,2.28,2.28,0,0,0,.2-.45c.08-.19.09-.4.17-.6l-.15.36a2.12,2.12,0,0,1,.12-.2,1.94,1.94,0,0,0,.28-.91,1.76,1.76,0,0,0-.86-1.55,5.16,5.16,0,0,0-.8-.33l-.57-.22a1.22,1.22,0,0,0-.6,0,1.16,1.16,0,0,0-.56.18,1.12,1.12,0,0,0-.42.39,1.14,1.14,0,0,0-.27.51,1.54,1.54,0,0,0,.16,1.15l.23.31a1.57,1.57,0,0,0,.66.38l.92.36-.36-.15a.24.24,0,0,1,.11.06l-.3-.24.06,0-.24-.3,0,0-.15-.36a.43.43,0,0,1,0,0l0-.4v.09l0-.4s0,0,0,0l.15-.36a1,1,0,0,1-.13.2.54.54,0,0,0-.05.11,3.57,3.57,0,0,0-.19.45,4.77,4.77,0,0,1-.13.51l.15-.36a.83.83,0,0,1-.08.12l.24-.3-.1.09.31-.23a.67.67,0,0,1-.12.06l.36-.15a.53.53,0,0,1-.18,0l.4,0h-.23l.4,0a1,1,0,0,1-.25-.07l.36.15a1.28,1.28,0,0,1-.25-.15l.3.24a1.8,1.8,0,0,1-.19-.2l.23.3a1.75,1.75,0,0,1-.16-.27l.16.36a1,1,0,0,1-.08-.29l0,.4a1.13,1.13,0,0,1,0-.26l0,.4a1.28,1.28,0,0,1,.07-.28l-.15.36a1.59,1.59,0,0,1,.13-.22l-.24.31a.67.67,0,0,1,.14-.15l-.3.24.12-.08-.36.15.11,0-.39,0h.11l-.4,0h.07a1.49,1.49,0,0,0,1.15-.15,1,1,0,0,0,.42-.38,1.06,1.06,0,0,0,.27-.51,1.51,1.51,0,0,0-.15-1.16,1.57,1.57,0,0,0-.89-.69Z"/><path class="cls-1" d="M122.9,87.72a2.54,2.54,0,0,0-.47-.07h-.1a2,2,0,0,0-.9.25,2.25,2.25,0,0,0-.82.8,2.35,2.35,0,0,0-.24.54.72.72,0,0,0-.07.25,3,3,0,0,0-.07.61,3.41,3.41,0,0,0,.1.64,2.72,2.72,0,0,0,1.22,1.56,2.66,2.66,0,0,0,.52.23,3,3,0,0,0,.6.11.74.74,0,0,0,.21,0,2.43,2.43,0,0,0,.6-.1,2.17,2.17,0,0,0,.83-.51,2.79,2.79,0,0,0,.3-.38,2.28,2.28,0,0,0,.2-.45c.08-.19.09-.4.17-.6l-.15.36a2.12,2.12,0,0,1,.12-.2,1.94,1.94,0,0,0,.28-.91,1.76,1.76,0,0,0-.86-1.55,5.16,5.16,0,0,0-.8-.33l-.57-.22a1.22,1.22,0,0,0-.6,0,1.16,1.16,0,0,0-.56.18,1.12,1.12,0,0,0-.42.39,1.14,1.14,0,0,0-.27.51,1.54,1.54,0,0,0,.16,1.15l.23.31a1.57,1.57,0,0,0,.66.38l.92.36-.36-.15a.24.24,0,0,1,.11.06l-.3-.24.06,0-.24-.3,0,0-.15-.36a.43.43,0,0,1,0,0l0-.4v.09l0-.4s0,0,0,0l.15-.36a1,1,0,0,1-.13.2.54.54,0,0,0-.05.11,3.57,3.57,0,0,0-.19.45,4.77,4.77,0,0,1-.13.51l.15-.36a.83.83,0,0,1-.08.12l.24-.3-.1.09.31-.23-.12.06.36-.15a.53.53,0,0,1-.18,0l.4,0a.88.88,0,0,1-.23,0l.4,0a1,1,0,0,1-.25-.07l.36.15a1.28,1.28,0,0,1-.25-.15l.3.24a1.8,1.8,0,0,1-.19-.2l.23.3a1.75,1.75,0,0,1-.16-.27l.16.36a1,1,0,0,1-.08-.29l0,.4a1.13,1.13,0,0,1,0-.26l0,.4a1.28,1.28,0,0,1,.07-.28l-.15.36a1.59,1.59,0,0,1,.13-.22l-.24.31a.67.67,0,0,1,.14-.15l-.3.24.12-.08-.36.15.11,0-.39.05h.11l-.4-.05h.07a1.49,1.49,0,0,0,1.15-.15,1,1,0,0,0,.42-.38,1.06,1.06,0,0,0,.27-.51,1.51,1.51,0,0,0-.15-1.16,1.57,1.57,0,0,0-.89-.69Z"/><path class="cls-1" d="M113.9,73.72a2.54,2.54,0,0,0-.47-.07h-.1a2,2,0,0,0-.9.25,2.25,2.25,0,0,0-.82.8,2.35,2.35,0,0,0-.24.54.72.72,0,0,0-.07.25,3,3,0,0,0-.07.61,3.41,3.41,0,0,0,.1.64,2.72,2.72,0,0,0,1.22,1.56,2.66,2.66,0,0,0,.52.23,3,3,0,0,0,.6.11.74.74,0,0,0,.21,0,2.43,2.43,0,0,0,.6-.1,2.17,2.17,0,0,0,.83-.51,2.79,2.79,0,0,0,.3-.38,2.28,2.28,0,0,0,.2-.45c.08-.19.09-.4.17-.6l-.15.36a2.12,2.12,0,0,1,.12-.2,1.94,1.94,0,0,0,.28-.91,1.76,1.76,0,0,0-.86-1.55,5.16,5.16,0,0,0-.8-.33l-.57-.22a1.22,1.22,0,0,0-.6,0,1.16,1.16,0,0,0-.56.18,1.12,1.12,0,0,0-.42.39,1.14,1.14,0,0,0-.27.51,1.54,1.54,0,0,0,.16,1.15l.23.31a1.57,1.57,0,0,0,.66.38l.92.36-.36-.15a.24.24,0,0,1,.11.06l-.3-.24.06,0-.24-.3,0,0-.15-.36a.43.43,0,0,1,0,0l0-.4v.09l0-.4s0,0,0,0l.15-.36a1,1,0,0,1-.13.2.54.54,0,0,0-.05.11,3.57,3.57,0,0,0-.19.45,4.77,4.77,0,0,1-.13.51l.15-.36a.83.83,0,0,1-.08.12l.24-.3-.1.09.31-.23-.12.06.36-.15a.53.53,0,0,1-.18,0l.4,0a.88.88,0,0,1-.23,0l.4,0a1,1,0,0,1-.25-.07l.36.15a1.28,1.28,0,0,1-.25-.15l.3.24a1.8,1.8,0,0,1-.19-.2l.23.3a1.75,1.75,0,0,1-.16-.27l.16.36a1,1,0,0,1-.08-.29l0,.4a1.13,1.13,0,0,1,0-.26l0,.4a1.28,1.28,0,0,1,.07-.28l-.15.36a1.59,1.59,0,0,1,.13-.22l-.24.31a.67.67,0,0,1,.14-.15l-.3.24.12-.08-.36.15.11,0-.39.05h.11l-.4-.05h.07a1.49,1.49,0,0,0,1.15-.15,1,1,0,0,0,.42-.38,1.06,1.06,0,0,0,.27-.51,1.51,1.51,0,0,0-.15-1.16,1.57,1.57,0,0,0-.89-.69Z"/><path class="cls-1" d="M126.9,38.72a2.54,2.54,0,0,0-.47-.07h-.1a2,2,0,0,0-.9.25,2.25,2.25,0,0,0-.82.8,2.35,2.35,0,0,0-.24.54.72.72,0,0,0-.07.25,3,3,0,0,0-.07.61,3.41,3.41,0,0,0,.1.64,2.72,2.72,0,0,0,1.22,1.56,2.66,2.66,0,0,0,.52.23,3,3,0,0,0,.6.11h.21a2.43,2.43,0,0,0,.6-.1,2.17,2.17,0,0,0,.83-.51,2.79,2.79,0,0,0,.3-.38,2.28,2.28,0,0,0,.2-.45c.08-.19.09-.4.17-.6l-.15.36a2.12,2.12,0,0,1,.12-.2,1.94,1.94,0,0,0,.28-.91,1.76,1.76,0,0,0-.86-1.55,5.16,5.16,0,0,0-.8-.33l-.57-.22a1.22,1.22,0,0,0-.6,0,1.16,1.16,0,0,0-.56.18,1.12,1.12,0,0,0-.42.39,1.14,1.14,0,0,0-.27.51,1.54,1.54,0,0,0,.16,1.15l.23.31a1.57,1.57,0,0,0,.66.38l.92.36-.36-.15a.24.24,0,0,1,.11.06l-.3-.24.06,0-.24-.3,0,0-.15-.36a.43.43,0,0,1,0,0l0-.4v.09l0-.4s0,0,0,0l.15-.36a1,1,0,0,1-.13.2.54.54,0,0,0-.05.11,3.57,3.57,0,0,0-.19.45,4.77,4.77,0,0,1-.13.51l.15-.36a.83.83,0,0,1-.08.12l.24-.3-.1.09.31-.23a.67.67,0,0,1-.12.06l.36-.15a.53.53,0,0,1-.18,0l.4,0h-.23l.4,0a1,1,0,0,1-.25-.07l.36.15a1.28,1.28,0,0,1-.25-.15l.3.24a1.8,1.8,0,0,1-.19-.2l.23.3a1.75,1.75,0,0,1-.16-.27l.16.36a1,1,0,0,1-.08-.29l0,.4a1.13,1.13,0,0,1,0-.26l0,.4a1.28,1.28,0,0,1,.07-.28l-.15.36a1.59,1.59,0,0,1,.13-.22l-.24.31a.67.67,0,0,1,.14-.15l-.3.24.12-.08-.36.15.11,0-.39,0h.11l-.4,0h.07a1.49,1.49,0,0,0,1.15-.15,1,1,0,0,0,.42-.38,1.06,1.06,0,0,0,.27-.51,1.51,1.51,0,0,0-.15-1.16,1.57,1.57,0,0,0-.89-.69Z"/><path class="cls-1" d="M137.9,83.72a2.54,2.54,0,0,0-.47-.07h-.1a2,2,0,0,0-.9.25,2.25,2.25,0,0,0-.82.8,2.35,2.35,0,0,0-.24.54.72.72,0,0,0-.07.25,3,3,0,0,0-.07.61,3.41,3.41,0,0,0,.1.64,2.72,2.72,0,0,0,1.22,1.56,2.66,2.66,0,0,0,.52.23,3,3,0,0,0,.6.11.74.74,0,0,0,.21,0,2.43,2.43,0,0,0,.6-.1,2.17,2.17,0,0,0,.83-.51,2.79,2.79,0,0,0,.3-.38,2.28,2.28,0,0,0,.2-.45c.08-.19.09-.4.17-.6l-.15.36a2.12,2.12,0,0,1,.12-.2,1.94,1.94,0,0,0,.28-.91,1.76,1.76,0,0,0-.86-1.55,5.16,5.16,0,0,0-.8-.33l-.57-.22a1.22,1.22,0,0,0-.6,0,1.16,1.16,0,0,0-.56.18,1.12,1.12,0,0,0-.42.39,1.14,1.14,0,0,0-.27.51,1.54,1.54,0,0,0,.16,1.15l.23.31a1.57,1.57,0,0,0,.66.38l.92.36-.36-.15a.24.24,0,0,1,.11.06l-.3-.24.06,0-.24-.3,0,0-.15-.36a.43.43,0,0,1,0,0l-.05-.4v.09l.05-.4s0,0,0,0l.15-.36a1,1,0,0,1-.13.2.54.54,0,0,0,0,.11,3.57,3.57,0,0,0-.19.45,4.77,4.77,0,0,1-.13.51l.15-.36a.83.83,0,0,1-.08.12l.24-.3-.1.09.31-.23a.67.67,0,0,1-.12.06l.36-.15a.53.53,0,0,1-.18,0l.4,0a.88.88,0,0,1-.23,0l.4,0a1,1,0,0,1-.25-.07l.36.15a1.28,1.28,0,0,1-.25-.15l.3.24a1.8,1.8,0,0,1-.19-.2l.23.3a1.75,1.75,0,0,1-.16-.27l.16.36a1,1,0,0,1-.08-.29l.05.4a1.13,1.13,0,0,1,0-.26l-.05.4a1.28,1.28,0,0,1,.07-.28l-.15.36a1.59,1.59,0,0,1,.13-.22l-.24.31a.67.67,0,0,1,.14-.15l-.3.24.12-.08-.36.15.11,0-.39.05h.11l-.4-.05h.07a1.49,1.49,0,0,0,1.15-.15,1,1,0,0,0,.42-.38,1.06,1.06,0,0,0,.27-.51,1.51,1.51,0,0,0-.15-1.16,1.57,1.57,0,0,0-.89-.69Z"/><path class="cls-1" d="M130.9,106.72a2.54,2.54,0,0,0-.47-.07h-.1a2,2,0,0,0-.9.25,2.25,2.25,0,0,0-.82.8,2.35,2.35,0,0,0-.24.54.72.72,0,0,0-.07.25,3,3,0,0,0-.07.61,3.41,3.41,0,0,0,.1.64,2.72,2.72,0,0,0,1.22,1.56,2.66,2.66,0,0,0,.52.23,3,3,0,0,0,.6.11.74.74,0,0,0,.21,0,2.43,2.43,0,0,0,.6-.1,2.17,2.17,0,0,0,.83-.51,2.79,2.79,0,0,0,.3-.38,2.28,2.28,0,0,0,.2-.45c.08-.19.09-.4.17-.6l-.15.36a2.12,2.12,0,0,1,.12-.2,1.94,1.94,0,0,0,.28-.91,1.76,1.76,0,0,0-.86-1.55,5.16,5.16,0,0,0-.8-.33l-.57-.22a1.22,1.22,0,0,0-.6,0,1.16,1.16,0,0,0-.56.18,1.12,1.12,0,0,0-.42.39,1.14,1.14,0,0,0-.27.51,1.54,1.54,0,0,0,.16,1.15l.23.31a1.57,1.57,0,0,0,.66.38l.92.36-.36-.15a.24.24,0,0,1,.11.06l-.3-.24.06,0-.24-.3,0,0-.15-.36a.43.43,0,0,1,0,0l-.05-.4v.09l.05-.4s0,0,0,0l.15-.36a1,1,0,0,1-.13.2.54.54,0,0,0,0,.11,3.57,3.57,0,0,0-.19.45,4.77,4.77,0,0,1-.13.51l.15-.36a.83.83,0,0,1-.08.12l.24-.3-.1.09.31-.23a.67.67,0,0,1-.12.06l.36-.15a.53.53,0,0,1-.18,0l.4,0a.88.88,0,0,1-.23,0l.4,0a1,1,0,0,1-.25-.07l.36.15a1.28,1.28,0,0,1-.25-.15l.3.24a1.8,1.8,0,0,1-.19-.2l.23.3a1.75,1.75,0,0,1-.16-.27l.16.36a1,1,0,0,1-.08-.29l.05.4a1.13,1.13,0,0,1,0-.26l-.05.4a1.28,1.28,0,0,1,.07-.28l-.15.36a1.59,1.59,0,0,1,.13-.22l-.24.31a.67.67,0,0,1,.14-.15l-.3.24.12-.08-.36.15.11,0-.39.05h.11l-.4-.05h.07a1.49,1.49,0,0,0,1.15-.15,1,1,0,0,0,.42-.38,1.06,1.06,0,0,0,.27-.51,1.51,1.51,0,0,0-.15-1.16,1.57,1.57,0,0,0-.89-.69Z"/></g></svg>