<svg xmlns="http://www.w3.org/2000/svg" viewBox="0 0 200 200"><defs><style>.cls-1{fill:none;}.cls-1,.cls-2{stroke:#253948;stroke-linecap:round;stroke-linejoin:round;stroke-width:1.25px;}.cls-2,.cls-3{fill:#253948;}.cls-4{fill:#fff;}</style></defs><g id="Layer_1" data-name="Layer 1"><path class="cls-1" d="M3.29,97.86A45.25,45.25,0,0,0,15,95.13c19.47-7.55,35.5-2.55,51,10.94,2.75,2.39,10.33,8.83,12.66,17.61,11,3.68,16.87,5.85,21.08,8.11,9.9,5.33,10.23,14.57-4.59,12.11-5.56-.93-16.32-3.12-21.65-4.53C69.24,138.24,48,119.5,48,119.5"/><path class="cls-1" d="M95.43,158.29s20.19,11.55,34.37,10.32c3.43-.3,23.28-2.06,38.46-7,14-4.55,6.57-13.9-9-10.74-4.35.89-22.9,3.21-27.83,1.7-4-1.25-16.53-7.83-25.32-10.21"/><path class="cls-1" d="M89.48,167.34s27.26,10.64,37.18,8.32c0,0,33.28-5.31,44.63-9.21,5.61-1.93,11.34-5.51,10.29-9.92-1.13-4.74-8.44-4.61-8.44-4.61"/><path class="cls-1" d="M116.94,175.11c-.64.33-37.56-.62-47.13-2.59C47.18,167.84,25.74,140.06,2.91,142"/><path class="cls-2" d="M172.28,159.76c1.11-.81,2.1-2.81-5.39-.84l-7.34,1.93.41,2.93S169.63,161.66,172.28,159.76Z"/><path class="cls-2" d="M178.67,162.25s2.71-2.32-4.78-.35l-7.34,1.93s-.31,3,.41,2.93C175,166.43,178.67,162.25,178.67,162.25Z"/><path class="cls-2" d="M100.79,144.14s5.68-4-.23-6.61c-1.88-.82-5.73-1.65-8.1-1.09-1.85.44-6.06,5.57-1,6.27C92.5,142.86,100.79,144.14,100.79,144.14Z"/><path class="cls-3" d="M101.45,84.09a6.45,6.45,0,0,1,1.43-1.53l.05-.48a9.23,9.23,0,0,1,3.93-15.61,8.18,8.18,0,0,1,6.78,1.23l0,0,.25,0a9.41,9.41,0,0,1,1.9-7.31,8.57,8.57,0,0,1,8.76-3.12,9.29,9.29,0,0,1,1.43-5,8.75,8.75,0,0,1,12.29-2.69,10.07,10.07,0,0,1,3.94,5.95l0,.16a8.63,8.63,0,0,1,6.49,1.3,9.15,9.15,0,0,1,3.93,6.22l.09,0a8.67,8.67,0,0,1,6.64,1.28,9.29,9.29,0,0,1,2.61,12.63,9.1,9.1,0,0,1-7.71,4.17l-.25,0a9.44,9.44,0,0,1-1.28,3.3,8.87,8.87,0,0,1-3.85,3.36l.06.11c2.9,2.65,3.45,7.22,2.15,10.63a1.75,1.75,0,0,0-.81.06c-1.19.52-6.66,3.47-9.56,2.82-2.42-.54-2.66-.75-3.73-2.12a14.54,14.54,0,0,1-2.31-3.58s-.06-.83-.07-.83l-.5-1.21A25.85,25.85,0,0,1,133,90.46a36.67,36.67,0,0,0-1.64-4.1c-.82-1.4-3.54-3.28-4.21-3.73l-.12.31s-4.2-1.79-7.68-.59c-3.18,1.1-5.73,5.07-5.73,5.07a23,23,0,0,1-1.92,1.75c-.75.56-4.83,5.69-6.21,6.33a19.39,19.39,0,0,0-2.38,1.31A9.5,9.5,0,0,1,101.45,84.09Z"/><path class="cls-1" d="M103.43,82c-2.2.47-9.46.18-11.66,1.49,2.16-15.11-10.53-20.94-5-32.72,4.89-10.32,19.19.45,23.19-8,1.82-3.82-1.85-12.58,4.44-17.08,4.06-2.92,14.1.29,25-11.7-5.15,14.69,5.26,21.12,2.08,29.09-.57,1.42-2.15,3.54-5.25,5.54"/><path class="cls-1" d="M100.36,73.84C97.58,76,93,81.27,88.93,87.21"/><path class="cls-1" d="M129.54,35c-16,12.58-6.72,17.58-23.58,32.11"/><path class="cls-1" d="M100.88,85.94a63,63,0,0,0-21.19,3.89c-3.21,1.19-6.25,2.42-9,3.57"/><path class="cls-1" d="M100.83,90.55A63.63,63.63,0,0,0,79.32,94.2c-1.95.72-4.1,1.56-6.28,2.45"/><path class="cls-4" d="M103.07,96.93a.27.27,0,0,0,.4,0h0a.29.29,0,0,0,0-.41,9.19,9.19,0,0,1-1.61-12.34c1.36-2.08,4.43-3.48,7.64-3.46a.28.28,0,0,0,.16-.06,10,10,0,0,0,4.25,6.45.28.28,0,0,0,.4-.09.3.3,0,0,0-.09-.41,9,9,0,0,1-2.87-12.15,8.48,8.48,0,0,1,11.9-2.6c3.11,2.09,5.4,7.07,3.69,10.89a.31.31,0,0,0,.14.39.29.29,0,0,0,.34-.08.16.16,0,0,0,0-.07,7.47,7.47,0,0,0,.63-3.16,8.9,8.9,0,0,0,8.62-1.2l.32.2a9.88,9.88,0,0,1,4.09,9.26A14.47,14.47,0,0,1,140,90.85a12,12,0,0,1-4.91,4.07.3.3,0,0,0-.16.39.28.28,0,0,0,.37.16,12.83,12.83,0,0,0,4.54-3.42,8.14,8.14,0,0,0,.64-.88,9.49,9.49,0,0,0,1.26-3.12,9,9,0,0,0,10.64-2.51,10.38,10.38,0,0,0,.71-1,9.58,9.58,0,0,0,1.28-7.1,9.38,9.38,0,0,0-4-6l-.15-.09a10,10,0,0,0,.7-.75,10.23,10.23,0,0,0,.73-1,9.6,9.6,0,0,0-2.7-13,8.88,8.88,0,0,0-6.9-1.31,9.11,9.11,0,0,0-5.79,4.08,9.7,9.7,0,0,0-1.23,3,8.88,8.88,0,0,0-4.34-.81,9.07,9.07,0,0,0-7.17-4.9,8.91,8.91,0,0,0-7.83,3.43,9.7,9.7,0,0,0-.93,10.55,9.2,9.2,0,0,0-3.92,3.45,9.08,9.08,0,0,0-1.29,6h-.08c-3.39,0-6.65,1.48-8.11,3.72A9.85,9.85,0,0,0,103.07,96.93ZM149.7,71.1a9,9,0,0,0-9.28.37,9.47,9.47,0,0,0-4.15-8.39,7.45,7.45,0,0,0-.71-.43,9,9,0,0,1,1.18-2.94,8.58,8.58,0,0,1,5.43-3.83,8.35,8.35,0,0,1,6.47,1.24,8.95,8.95,0,0,1,1.06,14Zm-12.39,7.2-.14-.09a9.19,9.19,0,0,0,1.07-1.09,10.69,10.69,0,0,0,.73-1,9.54,9.54,0,0,0,1.38-3.88,8.47,8.47,0,0,1,9.71-.24,8.8,8.8,0,0,1,3.72,5.57,9,9,0,0,1-1.2,6.65,8.47,8.47,0,0,1-10.84,3.2A10.45,10.45,0,0,0,137.31,78.3Zm-13.78-7a8.2,8.2,0,0,0-.85-.5,9,9,0,0,1,1.38-4.67,8.54,8.54,0,0,1,5.43-3.83A8.34,8.34,0,0,1,136,63.57a9,9,0,0,1,2.53,12.22A8.45,8.45,0,0,1,128,79.16,10.94,10.94,0,0,0,123.53,71.34Zm-8.24-.9a9.11,9.11,0,0,1,.85-10,8.36,8.36,0,0,1,7.33-3.21,8.45,8.45,0,0,1,6.59,4.37l-.69.12a9.13,9.13,0,0,0-5.79,4.09,9.57,9.57,0,0,0-1.47,4.73A8.91,8.91,0,0,0,115.29,70.44Z"/><path class="cls-1" d="M182.25,120.93c-15.19.5-20.46,13.63-28.85,13.53s-8.54-9.65-14.79-9.65-15.72,10.1-25.42,4.53S110,107.62,98.63,98.42c14.46-3.51,14.37-18.86,26.63-16,10.9,2.54,6.68,18.5,15.76,19.22,4.13.33,10.7-6.42,17.09-2.07C162.25,102.37,167.4,115,182.25,120.93Z"/><path class="cls-1" d="M155.66,114.24c-7.09-5.69-16.48-3.67-22.19-2.8C112.7,114.6,117.79,98.78,79.32,94.2"/><path class="cls-1" d="M172.86,54.43s2.72-8.44,7.46-11c-5.33-2.19-7.46-9.85-7.46-9.85s-2.72,8.44-7.45,9.85C170.14,46.45,172.86,54.43,172.86,54.43Z"/><ellipse class="cls-1" cx="164.09" cy="22.6" rx="3.16" ry="3.25"/><ellipse class="cls-1" cx="190.98" cy="33.98" rx="3.16" ry="3.25"/></g></svg>