<svg xmlns="http://www.w3.org/2000/svg" viewBox="0 0 150 135"><defs><style>.cls-1{fill:none;}.cls-1,.cls-3{stroke:#253948;stroke-linecap:round;stroke-linejoin:round;}.cls-2,.cls-3{fill:#253948;}</style></defs><g id="Layer_1" data-name="Layer 1"><line class="cls-1" x1="10.94" y1="83.99" x2="32.93" y2="83.99"/><line class="cls-1" x1="11.64" y1="87.97" x2="34.97" y2="87.97"/><line class="cls-1" x1="11.7" y1="91.96" x2="37.95" y2="91.96"/><line class="cls-1" x1="11.7" y1="95.95" x2="41.76" y2="95.95"/><line class="cls-1" x1="11.73" y1="99.94" x2="49.16" y2="99.94"/><line class="cls-1" x1="12.43" y1="103.93" x2="55.8" y2="103.93"/><line class="cls-1" x1="12.82" y1="107.91" x2="56.64" y2="107.91"/><line class="cls-1" x1="31.16" y1="111.9" x2="51.96" y2="111.9"/><line class="cls-1" x1="14.17" y1="111.9" x2="20.16" y2="111.9"/><path class="cls-2" d="M52.94,46.58s-2.85,3.19-5.89,6.69c-1.52.64-3.91,1-7.71,1.58-3.81-.47-7.84.3-7.83,4.76s1.36,4.08,2.23,7,1.06,2.28.23,5.89-1.23,6-3.86,7c-4.35,1.68-10.22,3.37-10.22,3.37l-4,2.39L14,87.75l-2.22,4.36-.59,5.25.16,2-7.86-.19L3,94.09,4,88.2l1.78-5.41L9.2,77.62l4.68-3.73,3.71-3.06L20,67.52l1.76-4.26.9-4.66.32-5.73.33-4,1.24-3.66,2.73-4,2.64-2.6L34,36.51l4.82-1.4h7.32L51,37.29,54.47,39l3.13,3.09,2.17,3.45,1.34,4,.19,3.37L59.77,51.7l-2.21-.24-1.24-.35Z"/><path class="cls-2" d="M123.7,53.83l-1.21,4.52-2.39,4.16-.81,1v6.18l1.86,1.71s.86-.44.68,1.74-.52,3.64-.57,5.55,1.51,5.48,1.51,5.48l5,7.44,3.07,5.46,3.72,6,1.73,4.29,1.77,5-.16,4.84,1.19-.67,1.94-4.17,2.26-6.26.72-5.18,2.27-14.38.73-9.92-1.63-7.45s-2.33-4.38-3.52-5.5c-1.55-1.46-7.44-4.13-7.44-4.13l-8.72-5-2.25-2Z"/><path class="cls-1" d="M121.41,41c-.92,6.2.84,10.22,2.43,12"/><path class="cls-1" d="M100.24,53.42c2.87-2.19,3.26-6.16,3.23-8.32"/><path class="cls-1" d="M91.52,23.08s.47,2.77.7,3.45a52.12,52.12,0,0,0,4.72,11"/><path class="cls-1" d="M103.16,20.75c1.6.81,3.42,2.18,3.8,4.32.7,4-2.34,11-2.34,11a3.43,3.43,0,0,0,1.45.31c.32,0,2.6.08,3.61-1.55,0,0,1.56,0-.46,2.8,0,0-.39.7,1.24.23a7.72,7.72,0,0,0,2.73-1.32c1.12-.87.77-.16,0,.7a9.46,9.46,0,0,1-3,2.18c-.34.13-.62.08.31.7s.47,1.17-.7,3"/><path class="cls-1" d="M121.81,23.82a7.82,7.82,0,0,0-4.26-9.34c-1.46-.7-4.27-.88-4.85.47-.5,1.15,3.63,3,3,3.79-1.81,2.34-9.65.11-12.09,1.69-9,5.84-12,3.33-12,3.33A15.89,15.89,0,0,1,91.39,21c0-9.65,8.22-17.48,18.37-17.48S128.14,11.33,128.14,21a21.13,21.13,0,0,1-3.55,10.73l.54-1.14c3.09-7-.58-9.55-2-6.05"/><path class="cls-1" d="M119.56,63.37c3.71-4.12,4.28-10.32,4.28-10.32s6.48,5.07,12.08,7.15,13.39,8,10.59,25.13-3.27,26.16-9,33"/><path class="cls-1" d="M81.91,58.39c3.44-1.75,8.66-1,18.35-5,0,0,.26,8.08,5.46,11.76"/><path class="cls-1" d="M69.73,93.14a89.92,89.92,0,0,0,5.15-17.88c.22-1.15.44-2.22.65-3.22"/><path class="cls-1" d="M123,120.38a43,43,0,0,1-28.36,1.3"/><path class="cls-1" d="M119.36,70V59.91c0-.84-3-1.52-6.78-1.52s-6.77.68-6.77,1.52v8.67"/><ellipse class="cls-1" cx="112.58" cy="59.91" rx="6.77" ry="1.52"/><path class="cls-1" d="M119.24,64.92c0,.73-2.9,1.32-6.47,1.32s-6.48-.59-6.48-1.32,2.9-1.32,6.48-1.32S119.24,64.19,119.24,64.92Z"/><path class="cls-1" d="M111.56,37.52l.24,33h.64l-.34-32.76v-.44A4.27,4.27,0,0,1,111.56,37.52Z"/><path class="cls-1" d="M138.28,113.64c-1-9.54-12.93-25.1-15.71-30.37a12.52,12.52,0,0,1-1.29-4.21,21.63,21.63,0,0,1,.59-4.9c.29-1.69.18-2.27-.81-3.14a12.31,12.31,0,0,0-1.7-1.3s0,4.3-.47,4.94-1.5-.23-1.87-.68c-1.53-1.86-3.33-3.5-6.36-3.38s-3.27,0-4-.53a8,8,0,0,1-.87-1.93c-4.29,4.21-2.16,10,.76,12.44a66.87,66.87,0,0,0,5.78,4.09,7.33,7.33,0,0,1,2.74,3.85c2.29,6.89,2.75,17.17,5.43,27.1,1.16,4.27,4.66,7.62,9.17,7.62a8.64,8.64,0,0,0,8.65-8.64C138.34,114.43,138.29,113.7,138.28,113.64Z"/><path class="cls-1" d="M123.15,24.52c-1.4,3.51,1.44,7.19,1.44,7.19-.7,10.51-8.08,14.68-12.88,15.11-10.63.94-15.16-9.72-15.16-9.72,3.73,0,4.3,1.22,5.11,2.37a8.73,8.73,0,0,0,7,4c1.41,0,2.57-.7,5.61-.7s3.71-2.31,4.67-4.9c1.74-4.71-1-6,.41-9a33.73,33.73,0,0,0,2.45-5"/><path class="cls-1" d="M67.65,117.88c3.48,2.3,14.29,8.49,25.15,4.82"/><path class="cls-1" d="M83.56,114.69c.71,3.25,3.06,10.51,9.74,7.81,2.74-1.11,6.09-4.85,3-11.44a37.17,37.17,0,0,0-2.54-4.59l-.06-.09"/><path class="cls-1" d="M58.28,84.46s1.48.32,4.56,2.6a75.86,75.86,0,0,1,8.21,8.09"/><path class="cls-1" d="M80.43,114.43a13.3,13.3,0,0,0,6-.58c3.58-1.13,6.45-3.07,7.31-8.3"/><path class="cls-1" d="M91.73,95.73C90.64,91.83,90,89.85,90,89.85L68.56,96.13l2.49,8.15"/><path class="cls-1" d="M93.38,102c-.12-.48-.23-1-.35-1.41"/><path class="cls-1" d="M92.73,95.61c.94.21,1.45,1.54,1.14,3s-1.32,2.44-2.26,2.24-1.46-1.54-1.15-3S91.78,95.41,92.73,95.61Z"/><path class="cls-1" d="M94,102a1.75,1.75,0,0,1,.94,2.11c-.41,1-1.93,1.85-2.41,1.67s-.53-1.18-.13-2.22S93.55,101.84,94,102Z"/><path class="cls-1" d="M51.79,82.27S46.83,80.46,48,77"/><path class="cls-1" d="M48.34,99.83c1.53-2.51,5.21-9.63,3.26-17.64,0,0,2.47.8,6.87,2.32,0,0-1.66,8.25,1.92,11.26s10.21,5,4.78,13.26"/><path class="cls-1" d="M30.65,78.68S36.76,96.13,48.1,99.62s9.11,8.45,7.92,11.69"/><path class="cls-1" d="M48.4,77a11.75,11.75,0,0,0,2.13.31c2.23-.1,12.94-8.76,11.12-23.25-.06-.51-.17-1.09-.3-1.71"/><path class="cls-1" d="M56.32,50.81c0,.14-2.45,3.87-2.88,7.36s1.5,6.69,2.23,8.73c0,0,1.21,2.37-1.6,1.84s-1.89.34-1.89.34l.63,2.08a.35.35,0,0,1-.34.34c-.34,0-2.67-.34-3-.24s-.22.49,2.18,1.6a.27.27,0,0,1,.05.49c-.34.29-1.16-.15-.92,1.35s-.1,5.14-11.25-1.6L34,68.84"/><path class="cls-3" d="M59.54,56.36a4.55,4.55,0,0,0-4.38,3.32,7.37,7.37,0,0,0-1.87-.22h0a5.83,5.83,0,0,0-1.71.28,4.55,4.55,0,1,0,.15,1.43,4.87,4.87,0,0,1,1.57-.31,5.69,5.69,0,0,1,1.75.22,4.55,4.55,0,1,0,4.54-4.72Z"/><path class="cls-1" d="M81,91.19s2.82-3.49,1.65-5.34-5.09-2.54-7.4-5.23c-1.91-2.22.19-3.93,3.29-3.66s7,2.58,8.56-.41-4.94-3.17-9.38-4.18-9.86-2.05-9.55-8c.46-8.93,17.35-5.25,17.77-5.12l.26.08s-7.95.77-7.95,4.07,3.67,3.09,9.31,4.75S98,73.33,94,78.48,81.66,78,81.08,80.42s5.68,1.9,4.39,6.64C85.07,88.54,83.34,90.22,81,91.19Z"/><path class="cls-1" d="M53.27,46.32a5.56,5.56,0,0,0,5.16,5c2.92.12,3,1.72,3,1.72,0-10.06-8.63-18.23-19.29-18.23-10,0-18.84,7.15-19.2,16.4-.25,6.42.47,17.14-10.28,23.57-11.48,6.88-9.4,24.38-9.4,24.38l8.07-.05S9.9,85.22,22.12,82.07C32.66,79.35,34.46,77.05,34,69c-.1-1.66-.27-2.64-1.92-6.38a5.54,5.54,0,0,1,4.36-8c2.72-.05,9.15.89,11.73-2.71a25.91,25.91,0,0,1,5.12-5.6,6.08,6.08,0,0,0,3,4.49"/><path class="cls-1" d="M14.14,112.34s6.33,17.68,11,20.29,20-.28,41.59-14.39c1-.63.58-1.17,4.51-.88a14.35,14.35,0,0,0,11.2-4.65c2.61-3,4.63-10.46.87-11.63-3.49-1.1-10.19,5-11.31,4.64-.41-.14-.64-.72-.94-1.44-.57-1.07-2.66-1.13-4,3.48-.13.44-.73.85-1.68,1.23l-.16,0L56,111.31s-18,3-23.33,4.74a65.12,65.12,0,0,0-3.2-7.7"/><path class="cls-1" d="M29.49,108.35,14.8,114a48.22,48.22,0,0,1-3.45-14.65"/><path class="cls-2" d="M121.52,118.11,120,113.4,117.63,102l-1.71-9.38-1.74-6-1.54-1.46-4.77-3.49L103.93,77l-.55-4.56,1-2.15,1.33-2.19V65.38l-2.57-2.86-2.26-5.16L100,53.52c-1.25,1.25-17,4.4-17,4.4l-1,.65a33.52,33.52,0,0,1,3.94.64l.26.08s-7.95.77-7.95,4.07,3.67,3.09,9.31,4.75S98,73.33,94,78.48,81.66,78,81.08,80.42s5.68,1.9,4.39,6.64c-.4,1.48-2.13,3.16-4.46,4.13,0,0,2.82-3.49,1.65-5.34s-5.09-2.54-7.4-5.23c-1.91-2.22.19-3.93,3.29-3.66s7,2.58,8.56-.41-4.94-3.17-9.38-4.18c-.71-.17-1.44-.33-2.18-.52l0,.24-3,13.32-2.79,7.73L71,95.34l9.48-2.77L90,89.94l1.46,3.46.59,2,1.62.32s1,1.62-.32,4.85a3.15,3.15,0,0,0,0,1.3s1.18-.29,1.29.65.65,1.29-.64,2.58c-.47.47-.43,1.94-.43,1.94A17.41,17.41,0,0,1,97,112.38a9.79,9.79,0,0,1-.12,6.51l-2,3,9.2,1.45,7.42.1,6.82-1.49,4.7-1.61Z"/></g></svg>