<svg xmlns="http://www.w3.org/2000/svg" viewBox="0 0 80 80"><defs><style>.cls-1{fill:#253948;}.cls-2{fill:none;stroke:#253948;stroke-linecap:round;stroke-linejoin:round;stroke-width:1.25px;}</style></defs><g id="Layer_1" data-name="Layer 1"><path class="cls-1" d="M32.58,45.54a32.46,32.46,0,0,0-4.48,4.92A25.86,25.86,0,0,0,23.46,61.3a11.62,11.62,0,0,0-.09,2.49c-5.93-3.69-7.26-13.67-2.84-23,4.59-9.7,13.67-15,20.38-12.07C41.49,36.9,36.76,41.49,32.58,45.54Z"/><path class="cls-1" d="M44.91,52.34c-4.29,9-12.49,14.32-19,12.55a1.31,1.31,0,0,0-.06-.27c0-.11-1.43-4.61,4.17-12.87a31.68,31.68,0,0,1,4.18-4.56c4-3.93,9-8.75,9.08-17C48.16,34.45,49,43.67,44.91,52.34Z"/><path class="cls-2" d="M49.61,45.32s6.81-6.17,4.79-13.46-6.59-12.46-4.48-16.7"/><path class="cls-2" d="M65.31,38.06a12.47,12.47,0,0,0-.07-6.27c-2-7.29-6.12-12.23-4.43-18"/><path class="cls-2" d="M61.58,45.38a18.4,18.4,0,0,0,3.73-7.32"/><path class="cls-2" d="M56.39,45.06c0,.27,6.46-7,2.19-17.9-3.73-9.51-7.48-16.4-2.14-22.48"/></g></svg>