<svg xmlns="http://www.w3.org/2000/svg" viewBox="0 0 230 230"><defs><style>.cls-1{fill:none;}.cls-1,.cls-2{stroke:#253948;stroke-linecap:round;stroke-linejoin:round;stroke-width:1.25px;}.cls-2,.cls-3{fill:#253948;}</style></defs><g id="Layer_1" data-name="Layer 1"><line class="cls-1" x1="126.37" y1="118.13" x2="130.49" y2="125.91"/><line class="cls-1" x1="136.44" y1="120.07" x2="135.34" y2="126.16"/><ellipse class="cls-1" cx="150.41" cy="127.27" rx="10.92" ry="1.22" transform="translate(-0.67 0.79) rotate(-0.3)"/><path class="cls-1" d="M139.49,127.33s-.27,3.31-.42,7.23"/><path class="cls-1" d="M161.3,127.21c.48,5.53,1.46,21.17-2.47,23.71A15.14,15.14,0,0,1,154,152.6"/><path class="cls-1" d="M161.82,129.05s3.54-.67,5.24,1.95"/><path class="cls-1" d="M161.8,131.42a4.35,4.35,0,0,1,2.37.22"/><path class="cls-1" d="M159.64,126.58c0-6.18.07-12.65-.15-14.45-.69-5.48-10.93-11.29,5.46-26.66"/><path class="cls-1" d="M171.1,34.18c2.5,2.5,1.34,6.86,1.29,9.47,0,0-.47,3.19,2.54,1.5s2.67-.2,2.67-.2l-.29,2.49a.44.44,0,0,0,.52.26,9.72,9.72,0,0,0,4.64-4.56c.15-.34.23,3.59-3.23,5.81a.33.33,0,0,0,.13.58,4.5,4.5,0,0,1,3,2.12c3.74,7.49,15-7.49,15-11.23"/><path class="cls-2" d="M167.36,71.62s3-11.43,1.25-15c-4-8.08-8.74-7.48-14.13-19.23-6.86-14.93,3.47-25.88,6.06-28S173.57-1.4,188,3.85c18.41,6.71,19.34,25.34,20.39,34.24.76,6.47.19,19.8,9.68,28.82,17.24,16.4,7.88,45.89,7.88,45.89h-3.64c3.3-12.52,2.36-31-7.17-38.32-7.49-5.73-14.27-11-15.3-13.84s-1.25-4.89-2.62-18.56a58.58,58.58,0,0,0-8-23.8C187.1,25.84,178.12,30.9,176.07,32a1,1,0,0,1-.84.07c-5.3-1.9-10.21-8-10.17-6.79.07,2.09,4.35,7.05,5.67,8.52a.88.88,0,0,1,.15,1c-1.71,3.71-6,5.73-6.66,6.07,4.39,7.13,9,11,19.42,12.78a10.92,10.92,0,0,1-.06,6.83C182.6,63.34,182.34,65.38,167.36,71.62Z"/><path class="cls-1" d="M142.48,126.16c4.91-23.51,5.11-40,14.68-47.93,13.94-11.6,23.51-8.14,26.24-17.7,0,0,8.55,1.89,16,0"/><path class="cls-1" d="M179.84,110.31s8.74,6.24,15.28,2.61a10.75,10.75,0,0,0,4.7-4.75"/><circle class="cls-3" cx="193.14" cy="100.68" r="2.03"/><circle class="cls-3" cx="193.14" cy="120.64" r="2.03"/><circle class="cls-3" cx="215.52" cy="76.7" r="2.03"/><circle class="cls-3" cx="198.86" cy="62.84" r="2.03"/><circle class="cls-3" cx="171.86" cy="89.05" r="2.03"/><circle class="cls-3" cx="174.68" cy="69.47" r="2.03"/><circle class="cls-3" cx="189.19" cy="79.45" r="2.03"/><circle class="cls-3" cx="218.39" cy="96.13" r="2.03"/><circle class="cls-3" cx="209.66" cy="108.61" r="2.03"/><circle class="cls-3" cx="175" cy="107.13" r="2.03"/><circle class="cls-3" cx="203.34" cy="87.21" r="2.03"/><circle class="cls-3" cx="166.5" cy="118.48" r="2.03"/><circle class="cls-3" cx="180.23" cy="130.96" r="2.03"/><circle class="cls-3" cx="150.49" cy="105.21" r="2.03"/><circle class="cls-3" cx="159.65" cy="101.27" r="2.03"/><circle class="cls-3" cx="155.59" cy="87.25" r="2.03"/><path class="cls-1" d="M144.9,114.05s7.48,2.5,14.52,1.46"/><path class="cls-1" d="M181.44,41.65s.51,1.35,2.75,1"/><path class="cls-1" d="M160.85,147.62a5.73,5.73,0,0,0,2.12,0c3.14,6.37,8.13,2.91,8.13,2.91,12.48,6.52,36.35,2.8,41.19-4s10-33.7,10-33.7"/><path class="cls-1" d="M161.77,132.63c1-.28,2.25-.82,3.09-1.11,3.75-1.24,5.85.2,7.92,8.84"/><path class="cls-1" d="M46.54,82.83S46.76,90.38,45,94.3"/><path class="cls-1" d="M88.12,67.12c.27,4.94.07,8.73,1.31,12.29,1.45,4.16,2,5,1,6.51s-8.13.54-8.13.54,3.31,2.07,4.18,3.3-4.12,1.37-7,.76c-.81.28,6,3.78,6,3.78a4.06,4.06,0,0,0-1.16,2.46c-.13,1.51,2.56,6.69-2.28,8"/><path class="cls-1" d="M43,70.51C43,57.08,54.86,46.2,69.53,46.2c12.93,0,23.69,8.45,26.07,19.65,0,0,1.74,6.58-1.68,15,.81,15.57-4.64,22.61-12.39,24C60.06,108.45,48.82,87.15,45.67,81.2h0A22.67,22.67,0,0,1,43,70.51Z"/><path class="cls-1" d="M64.25,76.56a20.06,20.06,0,0,0,1,8.27c.62,2-2.27,4.52-2.27,4.52A11.88,11.88,0,0,1,59.86,80c.41-3.92-2.07-8.7-4.34-6.57s-1.86,8.74,0,11.22,1.24,4.34,1.24,4.34-5.21-4.63-6.39.13"/><path class="cls-1" d="M95.38,66.13s-16,2.53-18.53-2.22-4.92-5.84-6.46-5.12S68.13,61.9,68,64.37c-.16,3.44.31,5-2.17,8.26a7.88,7.88,0,0,0-.57.85"/><path class="cls-2" d="M85.41,73.57a73.71,73.71,0,0,1-2.48,8.28c-.55,1.4-1.16,2.33-5.42,2.56s-6.08-.41-7.2-1.78c-1.37-1.67-1.08-5.92-.77-8.32S84.25,72.91,85.41,73.57Z"/><path class="cls-2" d="M91.26,83.81c.38,0,.79.1,1.23.12,4.26.23,5.37-.52,6.32-1.9a12.92,12.92,0,0,0,1.5-7.54c-.2-1.58-8.24-1.83-11.57-1l.78,5.62Z"/><path class="cls-1" d="M89.28,73.53s-2.7-.85-3.87,0"/><path class="cls-1" d="M88.58,75.88s-3.24-.23-4.26.66"/><path class="cls-1" d="M68.73,108.14,43,93.48l-3.35,7.64L63,122c-.82-6.19,4.75-13,5.78-13.83s5.68,7.79,5.68,7.79l4.44-7.48a13.77,13.77,0,0,1,5,11.46c7.14-6.55.51-16,.51-16"/><line class="cls-1" x1="78.32" y1="109.35" x2="80.71" y2="104.96"/><path class="cls-1" d="M74.41,115.93c3.8,27-2.43,35.54-4,50"/><line class="cls-1" x1="71.3" y1="73.28" x2="58.93" y2="74.38"/><line class="cls-1" x1="70" y1="76.54" x2="59.75" y2="76.44"/><path class="cls-1" d="M87,114.24c2.09,4.2,7.87,17.15,7.87,31.42a60.06,60.06,0,0,1-2.21,15.71"/><circle class="cls-2" cx="69.26" cy="135.57" r="2.06"/><circle class="cls-2" cx="64.27" cy="156.79" r="2.06"/><circle class="cls-2" cx="62.25" cy="207.67" r="2.06"/><path class="cls-1" d="M39.62,101.12C-17.27,129.9,7.26,219.24,7.26,219.24S23,224.5,54.56,224.5c24.53,0,33.29-7,33.29-7s-4-15.49-.56-25.5"/><path class="cls-1" d="M14,135.16c-5.52,16.71,3.54,29.68,9.71,38.9l34.3-16s-8.12-26.89-17.73-32.66S17.47,124.51,14,135.16Z"/><path class="cls-1" d="M117.45,148.79s10.33-4.43,12.12-5.22c2.55-1.11,5.66,1.53,1.81,6.5"/><path class="cls-1" d="M129.8,148.56s12.88,12.78-2,24.37c-2.9,2.25-6.37,3-11.57,5-26.59,15.12-57.8,26.7-69.67,19.9C39,193.45,30.6,185,24.69,174.16"/><path class="cls-1" d="M56.32,158.68a66.37,66.37,0,0,0,6.52,12.53c14-12.67,41.17-9.32,41.17-9.32-1.85-4.93,2.48-10.44,5.89-13s4.48-1.37,6.49-3.3a12.3,12.3,0,0,0,2.64-3.77.38.38,0,0,1,.63-.1,6.92,6.92,0,0,1,1.26,2.37"/><ellipse class="cls-1" cx="141.51" cy="135.92" rx="12.11" ry="1.35"/><path class="cls-1" d="M129.4,135.91a61.76,61.76,0,0,0-.62,8"/><path class="cls-1" d="M153.7,136c.34,3.9,1.79,23.2-3,26.25,0,0-5.59,3.71-15.79,1.77"/><path class="cls-1" d="M128.93,139.59s-8-1.45-8.47,7.57"/><path class="cls-1" d="M128.75,142.25s-5-1.54-5.1,3.79"/><path class="cls-1" d="M68.29,198.16c1.2,5.25,3,16.46-.28,25.54"/><line class="cls-1" x1="122.73" y1="127.51" x2="128.23" y2="129.6"/><path class="cls-1" d="M172.78,140.36S191.14,136,196.06,134c4.7-1.91,1.25-23.71,6.24-39.94"/><path class="cls-1" d="M199.31,114.54c13,3.26,22.62,0,22.62,0"/></g></svg>