<svg xmlns="http://www.w3.org/2000/svg" viewBox="0 0 70 70"><defs><style>.cls-1{fill:#253948;}.cls-1,.cls-2{stroke:#253948;stroke-linecap:round;stroke-linejoin:round;stroke-width:1.25px;}.cls-2{fill:none;}</style></defs><g id="Layer_1" data-name="Layer 1"><path class="cls-1" d="M16.61,34.49S6.37,33,6.71,30.19s11.5.46,11.5.46S13.48,21.46,16,20.1s5.52,9.26,5.52,9.26l.33-.11s9.36-4.41,10.63-1.85S23,32.6,23,32.6s6.91,6.85,5.14,9.09c-1.48,1.89-6.63-3.85-8.25-5.74,0,0-3,9.71-5.75,8.93S16.61,34.49,16.61,34.49Z"/><path class="cls-2" d="M43.71,17.9s-10.24-1.46-9.9-4.29,11.49.46,11.49.46S40.57,4.88,43.09,3.51s5.52,9.27,5.52,9.27l.33-.11s9.35-4.41,10.63-1.85S50.11,16,50.11,16s6.92,6.86,5.15,9.1C53.77,27,48.62,21.26,47,19.37c0,0-3,9.7-5.75,8.92S43.71,17.9,43.71,17.9Z"/><path class="cls-2" d="M42.71,53.9s-10.24-1.46-9.9-4.29,11.49.46,11.49.46-4.73-9.19-2.21-10.56,5.52,9.27,5.52,9.27l.33-.11s9.35-4.41,10.63-1.85S49.11,52,49.11,52s6.92,6.86,5.15,9.1C52.77,63,47.62,57.26,46,55.37c0,0-3,9.7-5.75,8.92S42.71,53.9,42.71,53.9Z"/></g></svg>