<svg xmlns="http://www.w3.org/2000/svg" viewBox="0 0 150 200"><defs><style>.cls-1,.cls-3{fill:#253948;}.cls-2{fill:none;}.cls-2,.cls-3{stroke:#253948;stroke-linecap:round;stroke-linejoin:round;stroke-width:1.25px;}</style></defs><g id="Layer_1" data-name="Layer 1"><path class="cls-1" d="M68.52,52.26c3.69.13,5.58,0,5.58,0-3.1-5.46,0-10.28-3-31.34C68.4,1.6,47.91,2.65,47.91,2.65h-.37c-6.82.07-15.27,3.52-20.78,14.27-8.28,16.14-5.3,37.45-5.3,37.45,10.3.25,24.83.06,24.83.06,1.85-3.64.17-14.09.09-14.42-.87-10.51-.13-17.93,1.25-23.16l.28.07s1.59.47,3.89.89a11.9,11.9,0,0,1,.67-3.44l1.41.24s-.85,3.38,0,4.13,6.81,0,6.81,0l6.09-1.49.42,4.22s.57,6.21-.82,9.74a55.52,55.52,0,0,0-2.6,8.63c-.68,3,1,1.55-.68,3.59s-4.89,1.14-4.89,1.14a4.76,4.76,0,0,0-.7,3.47c.65,2.15,2.19,1.18,3.18,1.21s6.71,0,6.71,0Z"/><path class="cls-1" d="M86.35,96.58s4.47.63,4.89-1.6c0,0,3.72,5.21,6.79-1.41,0,0,5.94,7.78,10.63.66,0,0,4,6.28,9,2.4,0,0,.34,4.59,3.08,4.41a3.52,3.52,0,0,1,.59,3.17c-.6,1.75-1.49,4.76-1.49,4.76a13.66,13.66,0,0,0,3.32-3.43c1.48-2.2,2.37-3.67,3.42-3.19s2.06.13,1.15,2.18a79.92,79.92,0,0,1-4.44,7.23l1,2.59L123,124s10.14,5.49,13,8.93c0,0,4.55-19.7.37-34.75l3.37,6.14s-2.17-8.93-4.36-12.74l4.08,2s-.57-5-8.72-8.46c0-.64,5-7.61-4.31-11.6a7.78,7.78,0,0,0-8.83,5.55s-18.24-4-28.06,6.9A11.83,11.83,0,0,0,86.35,96.58Z"/><path class="cls-2" d="M46.58,40.61a69.89,69.89,0,0,0,11.63,4c4.14,1,6.13-1.33,5.8-3.32S63.34,39.1,65.49,34s1.66-12.4,1.66-13.08a16.27,16.27,0,0,0-.47-3.9"/><path class="cls-2" d="M60.86,19.26C60.26,22.72,60,22.9,61,25c1.15,2.48,2.38,5.2,1.65,6.79-.39.85-4.75.44-4.52.49A4.64,4.64,0,0,0,60,35.63c1.78,1.57-2.14,1.32-4.4.49"/><path class="cls-2" d="M60,36.69s.6,2.14-.74,2.74,4,1.46,1.94,5.14"/><path class="cls-2" d="M49.09,53.43C52,51.67,59.29,48,68,49.7c0,0,3,14.53-6,16.89-7.93,2.09-12.36-7.2-13.77-10.87A1.9,1.9,0,0,1,49.09,53.43Z"/><path class="cls-2" d="M25.77,54.45C10.59,58,10.9,81.46,11,87.11c.16,7.28-1.66,45.66,16.39,47.47,16.5,1.66,16.64-54.26,16.64-54.26,2.6-.37,3.85-5,4.09-4.59s1,3.27,2.24,2.86c3.35-1.74,1-13.66-1.7-15.52s-4.26.37-3.64-.75,4.47-4.59,3.48-5.46S44.06,58,39.46,61s-5.21,18-5.21,18-14.08,30.29-15.11,41.26"/><path class="cls-2" d="M23.78,105.32S31.3,112,41.61,110"/><path class="cls-2" d="M26.92,54.42a66,66,0,0,0,3,34.32"/><path class="cls-2" d="M34.62,130.78s-.25,23.55-1.24,31.49,14.4,6.21,13.9,0-3.47-32-3.47-32"/><path class="cls-2" d="M42.31,105.32S59,116.58,77.58,101.68"/><path class="cls-2" d="M52,74.35s14.13,7.71,22.53-2.75"/><path class="cls-2" d="M71.56,52.89c.09.6,7.79,42.39,6.72,63.23"/><path class="cls-2" d="M89.22,86.38c-1.14-7.44-4.44-23.67-7.17-30-4-9.25-9.29-8.56-9.29-8.56"/><path class="cls-2" d="M50.51,108.63s4.14,36.25,5.39,43.45"/><path class="cls-2" d="M43.77,89.26S53.24,98,66.65,94.85"/><path class="cls-2" d="M61.13,89s10.16,2.43,15.17-4.25"/><path class="cls-2" d="M77.58,59s8,31.29,6.8,60"/><path class="cls-2" d="M32.26,54.45s-.21,12.72,2.27,20.91"/><path class="cls-2" d="M103.34,130.24c6.24-1,17-10.43,19.93-14.53,3.82-5.43,8-11.34,8-23.74.06-8.13-10.91-14.17-23.42-13.52S86,86.2,86,94.33c0,2.76,2.07,13.79,3.45,18.58a45.55,45.55,0,0,0,2.6,6.51"/><path class="cls-2" d="M101.41,122.36s3.27-.86,4-2.18c-1.74-.37-6,.13-5.21-1.12a11.55,11.55,0,0,0,.87-4.34c-2.86,2-5,.74-5,.74s1.41-7.57.92-11.67c-.18-1.46-.76-4.8-1.2-7.21"/><path class="cls-2" d="M86.52,96.84c.37,0,4,.37,4.72-1.86,0,0,1.56,3.34,4.5,1.6a6.29,6.29,0,0,0,2.45-2.85c1,1.68,2.61,3.6,5.34,3.48s5.34-2.85,5.34-2.85a4.1,4.1,0,0,0,3.85,3.47,5.9,5.9,0,0,0,5.34-1.61s-.37,4.59,2.23,4.72-.74,8-.49,8.19c.55.34,3.11-2.85,4.42-4.92,1.46-2.3,5.29-3.58,2.44,2.62A18.56,18.56,0,0,1,123,112l1,2"/><path class="cls-2" d="M117.62,79.1a7.39,7.39,0,1,1,12,7.28"/><ellipse class="cls-2" cx="92.05" cy="133.24" rx="3.37" ry="10.03" transform="translate(-60.62 187.26) rotate(-74.85)"/><path class="cls-2" d="M82.37,130.62,85,120.85c.49-1.8,5.22-2.08,10.57-.63s9.29,4.08,8.8,5.87l-2.64,9.77"/><path class="cls-2" d="M69,128.83s5.3,3.81,9.77-.66c0,0,3.62-2.15,4.29,0"/><path class="cls-2" d="M79.53,127.77s1.2,3.54-.63,6a14.82,14.82,0,0,1-5.13,4"/><path class="cls-2" d="M75.08,137.07c-2.84,29.67-4.41,36.79-9.2,42"/><path class="cls-2" d="M130.89,85a16.44,16.44,0,0,1,9,8.75s-3-.74-4.22-2.23,3,4.55,4.22,13.82c0,0-4.33-10.35-8.62-14.07"/><path class="cls-2" d="M136.18,97.82s4.23,19.05-.24,35.42"/><path class="cls-2" d="M87.51,135.86s-2.9,16.86,1.74,18.71c8.69,3.48,35.25-23.93,35.25-34.07"/><path class="cls-2" d="M85,120.22a5.58,5.58,0,0,0-3.48-2.81c-3.46-.83-12.58-3.31-14.4.83S63.34,128.67,64.34,135l-.67,2-.37.83S44.48,168,52.3,181.1"/><path class="cls-2" d="M123.5,124.5c6.85,4.12,18.31,11.64,19.89,20.39s.93,15.64-12.08,33.52-20,21.36-36.1,18.88-26.5-7.2-26.5-7.2-11.16,2.31-19.6-3A3.66,3.66,0,0,1,50.76,182c3.48-2,12.09-7.45,21.11.67,4.72-1.25,28.06-.34,28.06-.34l1.24-.16s8.11-8,10.35-13.25,7.32-41.73,28.57-31"/><path class="cls-2" d="M111.52,168.89s8.77,9.52,18.71,9.77"/><path class="cls-2" d="M58.21,44.57s-1.53,2.94-.05,5.09"/><path class="cls-2" d="M46.36,165s.92,1.43,4.4.77"/><path class="cls-2" d="M89.25,154.57s-9.93,5.71-9.94,14.41c0,6,4,9.61,4,12.5"/><path class="cls-2" d="M47,60.21a4.13,4.13,0,0,0,4.71,1.89"/><path class="cls-2" d="M68.52,52.26H74.1c-3.1-5.46.25-9.79-2.73-30.85C68.64,2.1,48.15,3.15,48.15,3.15h-.37C41,3.22,32.51,6.67,27,17.41c-8.27,16.15-5.54,37-5.54,37,9.06.13,24.83.06,24.83.06,1.85-3.64.41-13.59.33-13.92-.87-10.51-.13-17.93,1.26-23.16l.27.07s1.59.47,3.89.89a10.23,10.23,0,0,1,.46-3.88"/><path class="cls-2" d="M66.68,17c-3.05,2.32-8.3,2.23-12.43,1.67a7.47,7.47,0,0,1-.1-4.31"/><ellipse class="cls-3" cx="90.93" cy="106.41" rx="5.19" ry="2.97" transform="translate(-2.41 2.11) rotate(-1.31)"/><ellipse class="cls-3" cx="105.71" cy="105.58" rx="5.79" ry="3.31" transform="translate(-2.39 2.45) rotate(-1.31)"/><path class="cls-2" d="M96.12,106.59s.33-2.55,3.81-.83"/><line class="cls-2" x1="111.3" y1="104.85" x2="124.22" y2="104.21"/><path class="cls-2" d="M81.29,54.64s10.76,9,12.11,27.92"/><path class="cls-2" d="M42.32,54.62s-.13,3.19,1.18,3.83"/></g></svg>