<svg xmlns="http://www.w3.org/2000/svg" viewBox="0 0 80 80"><defs><style>.cls-1{fill:none;stroke:#253948;stroke-linecap:round;stroke-linejoin:round;stroke-width:1.25px;}.cls-2{fill:#253948;}</style></defs><g id="Layer_1" data-name="Layer 1"><path class="cls-1" d="M34.6,25.57c-2.85,13.27-.75,25.5,5.37,32.66"/><path class="cls-2" d="M75.46,27.34C78,17.85,75.21,8.71,69.21,5.89a.83.83,0,0,1-.21.16c-.1.06-4,2.54-5,12.27a31.17,31.17,0,0,0,.23,6.06c.54,5.51,1.2,12.27-4,18.45C66.55,42.77,73,36.42,75.46,27.34Z"/><path class="cls-2" d="M65.11,7a11.64,11.64,0,0,1,1.52-1.92c-6.78-1-14.1,5.62-16.71,15.39a27.9,27.9,0,0,0-.86,5.06,19.66,19.66,0,0,1,8.21,16c0,.28,0,.54,0,.81.09,0,.17.08.27.11,5.62-5.75,5-12.18,4.43-17.86a33.15,33.15,0,0,1-.23-6.52A25.56,25.56,0,0,1,65.11,7Z"/><circle class="cls-1" cx="37.71" cy="41.84" r="19.71"/><circle class="cls-1" cx="37.71" cy="41.84" r="16.72"/><polyline class="cls-1" points="21.93 54.83 8 69.61 10.39 72 23.71 56.83"/><path class="cls-1" d="M52.49,49.72s-5.07-2.8-9.85-.42"/><path class="cls-1" d="M53.68,43.74s-6-4.24-11.64-.62"/><path class="cls-1" d="M53.85,37.16c-1.65-2.19-6.43-3.38-11.21-1"/><path class="cls-1" d="M34,33.05s1.48-1.66,6.26-1.66"/><path class="cls-1" d="M34,41.41s1.48-1.66,6.26-1.66"/><path class="cls-1" d="M38.77,55.74s1.48-1.66,6.26-1.66"/></g></svg>