<svg xmlns="http://www.w3.org/2000/svg" viewBox="0 0 80 80"><defs><style>.cls-1,.cls-2{fill:none;stroke:#253948;stroke-linecap:round;stroke-linejoin:round;}.cls-2{stroke-width:1.25px;}.cls-3{fill:#253948;}</style></defs><g id="Layer_1" data-name="Layer 1"><path class="cls-1" d="M28.81,33.28s-1.3-3.92-3.55-5.08c2.54-1,3.55-4.57,3.55-4.57s1.3,3.92,3.56,4.57C30.11,29.58,28.81,33.28,28.81,33.28Z"/><path class="cls-1" d="M63.56,22.53s-1.3-3.92-3.55-5.08c2.54-1,3.55-4.57,3.55-4.57s1.3,3.92,3.56,4.57C64.86,18.83,63.56,22.53,63.56,22.53Z"/><circle class="cls-1" cx="22.88" cy="20.5" r="1.88"/><circle class="cls-1" cx="69.13" cy="24.75" r="1.88"/><path class="cls-2" d="M0,49.44C4.21,47.5,10.21,48,14.57,44c5.68-5.11,11.81-5.59,18.87-3.17,1.25.43,4.68,1.56,6.61,4.17a53.51,53.51,0,0,1,8.26-.12c4.08.45,5.39,3.48,0,4.64-2,.44-6,1.14-8,1.39-1.62.19-11.3-3.21-11.3-3.21"/><path class="cls-2" d="M50.27,54.31s8.4,1.14,13.09-1.16A74,74,0,0,0,75.6,45.69c4.2-3.38.44-5.5-4.49-2.36-1.37.88-7.41,4.13-9.29,4.28-1.55.13-6.67-.4-10,0"/><path class="cls-2" d="M49.41,58.11s10.7-.1,13.79-2.2c0,0,10.69-6.2,14.06-9,1.67-1.4,3.16-3.35,2.23-4.68S76,41.81,76,41.81"/><path class="cls-2" d="M59.81,57c-.18.19-12.92,4.81-16.45,5.43-9.56,1.68-20.16-3.82-29.91,1.12C9.4,65.64,1,69.21,1,69.21"/><path class="cls-3" d="M57.52,12.32H35.05a1.3,1.3,0,1,0,0,2.59H46a1.3,1.3,0,0,0,.31.26,5.19,5.19,0,0,1-2.59,9.68A5.12,5.12,0,0,1,40.84,24,1.3,1.3,0,0,0,39,25.75L49.06,42.37a1.28,1.28,0,0,0,1.11.63,1.26,1.26,0,0,0,.67-.19A1.3,1.3,0,0,0,51.28,41L43.05,27.42c.21,0,.42,0,.64,0a7.77,7.77,0,0,0,6.15-12.53h7.68a1.3,1.3,0,0,0,0-2.59Z"/><path class="cls-3" d="M35.05,10.59H57.52a1.3,1.3,0,0,0,0-2.59H35.05a1.3,1.3,0,1,0,0,2.59Z"/></g></svg>