<svg xmlns="http://www.w3.org/2000/svg" viewBox="0 0 200 200"><defs><style>.cls-1{fill:none;}.cls-1,.cls-2{stroke:#253948;stroke-linecap:round;stroke-linejoin:round;stroke-width:1.25px;}.cls-2,.cls-3{fill:#253948;}</style></defs><g id="Layer_1" data-name="Layer 1"><path class="cls-1" d="M12.29,101.34a46.25,46.25,0,0,0,11.82-2.68c19.63-7.41,35.79-2.5,51.44,10.74,2.76,2.34,10.41,8.66,12.76,17.28,11.14,3.6,17,5.73,21.26,7.95,10,5.22,10.3,14.3-4.63,11.87-5.61-.9-16.46-3.06-21.83-4.44-4.33-1.11-25.7-19.49-25.7-19.49"/><path class="cls-1" d="M105.19,160.62s20.35,11.34,34.64,10.13c3.46-.3,23.48-2,38.78-6.85,14.13-4.46,6.62-13.64-9.12-10.53-4.39.87-23.09,3.15-28.06,1.66-4.09-1.22-16.67-7.68-25.53-10"/><path class="cls-1" d="M99.19,169.51s27.48,10.43,37.48,8.15c0,0,33.55-5.2,45-9,5.67-1.89,11.43-5.41,10.38-9.73-1.14-4.66-8.51-4.53-8.51-4.53"/><path class="cls-1" d="M126.87,177.13c-.64.32-37.86-.61-47.52-2.55-22.81-4.58-44.43-31.84-67.44-29.9"/><path class="cls-2" d="M182.66,162.07c1.13-.79,2.12-2.76-5.43-.83l-7.4,1.89.42,2.88S180,163.94,182.66,162.07Z"/><path class="cls-2" d="M189.11,164.51s2.73-2.27-4.82-.34l-7.4,1.89s-.31,2.91.41,2.88C185.42,168.61,189.11,164.51,189.11,164.51Z"/><path class="cls-2" d="M110.59,146.74s5.72-3.93-.24-6.48c-1.89-.81-5.77-1.62-8.16-1.07-1.86.43-6.11,5.46-1,6.15C102.23,145.49,110.59,146.74,110.59,146.74Z"/><path class="cls-3" d="M147.88,126.7A36.15,36.15,0,0,1,154,123c4.7-2,8.89-2.81,12.46-2.55a12.61,12.61,0,0,1,2.65.44c-2.62-7.06-12.87-10.62-23.68-8-11.24,2.76-18.85,11.19-17.16,18.92C136.83,134.26,142.7,130.25,147.88,126.7Z"/><path class="cls-3" d="M152.39,141.2c10.5-2.57,17.83-10.1,17.38-17.38a.93.93,0,0,1-.27-.12c-.11-.06-4.57-2.51-14.5,1.63a34.45,34.45,0,0,0-5.72,3.42c-5,3.44-11.2,7.66-19.9,5.93C132.79,140.77,142.36,143.66,152.39,141.2Z"/><path class="cls-3" d="M134.12,93.18A29,29,0,0,1,138,97.34a22.32,22.32,0,0,1,4.08,9.24,10.54,10.54,0,0,1,.11,1.68c3.71-3.78,4.17-11.3.75-18.32-3.66-7.5-10.49-11.85-16-10.51C126.66,86.12,130.62,89.87,134.12,93.18Z"/><path class="cls-3" d="M139.54,110.06a1.25,1.25,0,0,1,0-.69c0-.11,1.09-3.84-3.62-10.61A26.35,26.35,0,0,0,132.41,95c-3.51-3.32-7.81-7.39-7.93-14.46-4.88,3.24-5.86,11.63-2.06,19.41C126.34,108,133.91,112.41,139.54,110.06Z"/><path class="cls-3" d="M97.53,117.59c5.59,2.48,9.83.37,13.92-1.67a24.61,24.61,0,0,1,4.72-2c5.55-1.46,8.91-.83,10.66-.14-1.6-4.76-8.12-7.86-15.53-7.09-7.78.81-13.73,5.59-13.79,10.88Z"/><path class="cls-3" d="M113.41,127c7.49-.78,13.28-5.24,13.76-10.29a1.33,1.33,0,0,1-.44-.23c-.09-.07-2.87-2-9.93-.19a23.3,23.3,0,0,0-4.24,1.81c-3.85,1.92-8.56,4.27-14.49,2.31C100,124.93,106.27,127.78,113.41,127Z"/><path class="cls-1" d="M150.43,21.59a.32.32,0,0,0-.52-.35c-2.7,2.62-9.19,9.8-9.45,17-.32,8.68,6.94,19.11,9.08,27.14,1.55,5.8-.78,13.86-2.42,18.41a.48.48,0,0,0,.84.43c2.58-3.79,6.59-10.49,7.35-16.61,1.16-9.16-10-21-8.95-31.91C146.85,30.61,149.29,24.31,150.43,21.59Z"/><path class="cls-1" d="M135.77,26.23a.23.23,0,0,0-.37-.24c-1.89,1.83-6.43,6.86-6.61,11.9-.23,6.08,4.86,13.38,6.36,19,1.08,4.06-.55,9.7-1.7,12.89a.33.33,0,0,0,.59.3c1.81-2.65,4.61-7.35,5.15-11.63.81-6.42-7-14.72-6.27-22.35A38.8,38.8,0,0,1,135.77,26.23Z"/><path class="cls-1" d="M162.56,24.07a.22.22,0,0,0-.36-.24c-1.89,1.83-6.44,6.86-6.62,11.9-.22,6.08,4.86,13.38,6.36,19,1.09,4.06-.54,9.7-1.69,12.89a.33.33,0,0,0,.59.3c1.8-2.65,4.61-7.35,5.15-11.63.8-6.42-7-14.72-6.27-22.35A39.25,39.25,0,0,1,162.56,24.07Z"/></g></svg>