<?xml version="1.0" encoding="utf-8"?>
<!-- Generator: Adobe Illustrator 26.0.1, SVG Export Plug-In . SVG Version: 6.00 Build 0)  -->
<svg version="1.1" xmlns="http://www.w3.org/2000/svg" xmlns:xlink="http://www.w3.org/1999/xlink" x="0px" y="0px"
	 viewBox="0 0 760 265" style="enable-background:new 0 0 760 265;" xml:space="preserve">
<style type="text/css">
	.st0{fill:none;stroke:#253948;stroke-width:1.25;stroke-linecap:round;stroke-linejoin:round;}
	.st1{fill:#253948;}
	.st2{fill:#253948;stroke:#253948;stroke-width:1.25;stroke-linecap:round;stroke-linejoin:round;}
	.st3{fill:#FFFFFF;}
	.st4{fill:none;stroke:#FFFFFF;stroke-width:1.25;stroke-linecap:round;stroke-linejoin:round;}
</style>
<g id="Layer_2">
	<line class="st0" x1="138.4" y1="219.3" x2="254.6" y2="219.3"/>
	<path class="st0" d="M236.1,188.3c-2.2,15.2-9,15.1-7.9,2.6c1.7-19.5-1.5-28.3-6-26.9c-4.9,1.6-2.2,18.6-7,19.4
		c-4.2,0.8-3.9-4.4-4-8c-0.2-7.2-0.7-11.2-4.8-11.5c-5.1-0.3-4.1,11.3-8.6,11.3c-4.5,0-4.9-5-3.9-9.8c1.9-9.3-7.3-12.1-8.2-5.7
		c-0.7,4.5,3.4,18.7-2.4,17.9c-5.8-0.8-4.1-10.5-9.8-9.4c-5.3,1.1,1.1,14.3-2.9,16c-2.2,0.9-7.6-5.9-7.6-5.9"/>
</g>
<g id="Layer_1">
	<g id="Layer_1_00000158735785731078051950000013307326430277207477_">
		<path class="st1" d="M584.1,98.4v46c0,0-12-3-16-3h-9c0,0-5-7-7-5v6c0,0-6,7-8,11c-1.3,2.6-2.3,5.2-3,8c0,0-5-7-11-10l0,0v-1
			c0,0,2-12-2-16s-6-3-6-3v-34L584.1,98.4z"/>
		<path class="st1" d="M522.1,135.4v11l5,3c0,0,1-6,0-9S524.1,135.4,522.1,135.4z"/>
		<path class="st2" d="M312.6,99.9c11.5,2.3,20.5,21.8,20.5,45.4h92.8c0-25.2-10.2-45.6-22.8-45.6h-90.4"/>
		<path class="st0" d="M425.9,170.2v-24.9"/>
		<path class="st0" d="M307.7,192.4c18.2,0.1,45.7,0.2,69.6,0.2"/>
		<path class="st0" d="M296.6,108.8c-5.5,8.3-9.1,21.6-9.1,36.5v10.9"/>
		<polygon class="st0" points="312.7,89.5 312.7,116.8 301.4,103.2 301.4,89.5 		"/>
		<polyline class="st0" points="303.2,89.5 291.9,89.5 291.9,103.2 303.2,116.8 312.7,116.8 		"/>
		<line class="st0" x1="291.9" y1="103.2" x2="301.4" y2="103.2"/>
		<ellipse class="st0" cx="301.7" cy="69.8" rx="17.3" ry="3.9"/>
		<ellipse class="st0" cx="272.1" cy="164.2" rx="38" ry="8.6"/>
		<path class="st2" d="M234.1,164.2v25.2c0,4.8,17,8.6,38,8.6s38-3.9,38-8.6v-25.2c0,0,2.4,7.8-37.6,8.8
			C233.6,173.9,234.1,164.2,234.1,164.2z"/>
		<path class="st2" d="M284.4,69.8v6.3c0,2.2,7.7,3.9,17.3,3.9s17.3-1.8,17.3-3.9v-6.3c0,0,0.6,4.1-17.4,4.1
			C284.6,73.9,284.4,69.8,284.4,69.8z"/>
		<polyline class="st2" points="290,79.2 290,83.3 301.7,84.8 313.4,83.3 313.4,79.2 		"/>
		<line class="st0" x1="300.1" y1="84.8" x2="300.1" y2="89.5"/>
		<line class="st0" x1="303.2" y1="84.8" x2="303.3" y2="89.5"/>
		<line class="st0" x1="333.1" y1="145.3" x2="333.1" y2="192.6"/>
		<ellipse class="st0" cx="272.6" cy="161.8" rx="3.9" ry="1.6"/>
		<line class="st0" x1="270" y1="163" x2="270" y2="172.4"/>
		<line class="st0" x1="275" y1="163.4" x2="275" y2="172.8"/>
		<path class="st0" d="M245.1,170.2V165c0-0.9-0.7-1.6-1.6-1.6c-0.9,0-1.6,0.7-1.6,1.6v4.5"/>
		<path class="st0" d="M299.8,170v-5c0-0.9,0.7-1.6,1.6-1.6s1.6,0.7,1.6,1.6v4.2"/>
		<path class="st2" d="M245.1,166.5c0-1.6,3-3.1,4.7-3.1c0.9,0,1.7,0.3,2.4,0.8c0.7-0.5,1.5-0.8,2.4-0.8c0.6,0,1.1,0.1,1.6,0.4
			c0.8-1.7,2.9-2.4,4.6-1.6c0.7,0.3,1.2,0.9,1.6,1.6c0.5-0.2,1.1-0.4,1.6-0.4c0.9,0,1.7,0.3,2.4,0.8c0.7-0.5,1.5-0.8,2.4-0.8
			c0.4,0,0.9,0.1,1.3,0.2v3.7h-24.9V166.5z"/>
		<path class="st2" d="M299.8,167.3H275v-3.7c0.4-0.1,0.9-0.2,1.3-0.2c0.9,0,1.7,0.3,2.4,0.8c0.7-0.5,1.5-0.8,2.4-0.8
			c0.6,0,1.1,0.1,1.6,0.4c0.8-1.7,2.9-2.4,4.6-1.6c0.7,0.3,1.2,0.9,1.6,1.6c0.5-0.2,1.1-0.4,1.6-0.4c0.9,0,1.7,0.3,2.4,0.8
			c0.7-0.5,1.5-0.8,2.4-0.8c1.7,0,4.7,1.6,4.7,3.1L299.8,167.3z"/>
		<path class="st0" d="M254.5,197.2l0.2,21.5c0,4.8,17,8.6,38,8.6c5.8,0,11.5-0.3,17.3-0.9h67.2"/>
		<line class="st0" x1="307.7" y1="192.4" x2="307.7" y2="226.7"/>
		<polyline class="st0" points="388,170.2 377.3,170.2 377.3,226.4 392.9,240.4 393,192.2 441.6,192.2 425.9,170.2 398.3,170.2 		
			"/>
		<path class="st0" d="M377.3,170.2c-0.2-0.6,15.7,22,15.7,22"/>
		<polyline class="st0" points="392.9,240.4 441.6,240.4 441.6,192.2 		"/>
		<path class="st2" d="M405.4,183.8c0,0.9-1.8,1.6-3.9,1.6s-3.9-0.7-3.9-1.6s1.8-3.1,3.9-3.1S405.4,182.9,405.4,183.8z"/>
		<path class="st0" d="M399.3,185.1v2.1l0.3,0.2c1.1,0.8,2.6,0.8,3.8,0.1l0.4-0.3v-2.1"/>
		<path class="st2" d="M418,183.8c0,0.9-1.8,1.6-3.9,1.6s-3.9-0.7-3.9-1.6s1.8-3.1,3.9-3.1S418,182.9,418,183.8z"/>
		<path class="st0" d="M411.9,185.1v2.1l0.3,0.2c1.1,0.8,2.6,0.8,3.8,0.1l0.4-0.3v-2.1"/>
		<path class="st2" d="M430.6,183.8c0,0.9-1.8,1.6-3.9,1.6s-3.9-0.7-3.9-1.6s1.8-3.1,3.9-3.1S430.6,182.9,430.6,183.8z"/>
		<path class="st0" d="M424.5,185.1v2.1l0.3,0.2c1.1,0.8,2.6,0.8,3.8,0.1l0.4-0.3v-2.1"/>
		<path class="st2" d="M399.1,172.1c0,1.3-2.7,2.4-6,2.4s-6-1.1-6-2.4s2.7-4.8,6-4.8S399.1,170.8,399.1,172.1z"/>
		<path class="st0" d="M389.8,174.1v3.2l0.5,0.4c1.7,1.2,4,1.3,5.8,0.1l0.7-0.4v-3.2"/>
		<path class="st2" d="M411.7,176c0,0.9-1.8,1.6-3.9,1.6s-3.9-0.7-3.9-1.6s1.8-3.1,3.9-3.1S411.7,175.1,411.7,176z"/>
		<path class="st0" d="M405.6,177.3v2.1l0.3,0.2c1.1,0.8,2.6,0.8,3.8,0.1l0.4-0.3v-2.1"/>
		<path class="st2" d="M424.3,176c0,0.9-1.8,1.6-3.9,1.6s-3.9-0.7-3.9-1.6s1.8-3.1,3.9-3.1S424.3,175.1,424.3,176z"/>
		<path class="st0" d="M418.2,177.3v2.1l0.3,0.2c1.1,0.8,2.6,0.8,3.8,0.1l0.4-0.3v-2.1"/>
		<circle class="st0" cx="320.7" cy="136.9" r="5.8"/>
		<path class="st2" d="M320.7,131.1h-9c-3.2,0-5.8,2.6-5.8,5.8c0,3.2,2.6,5.8,5.8,5.8c0,0,0,0,0,0h9c0,0-6.1,0.2-6.1-5.8
			S320.7,131.1,320.7,131.1z"/>
		<path class="st2" d="M306.5,134.4h-6.7c-1.6,0-2.9,1.3-2.9,2.9c0,1.6,1.3,2.9,2.9,2.9h7"/>
		<path class="st0" d="M318.9,142.7c0.6,1.1,0.9,2.2,0.9,3.4c0,4.3-3.9,7.8-8.7,7.8h-5"/>
		<path class="st0" d="M306.2,140.1c-1.7,1.3-2.8,3.3-2.8,5.4c0,3.9,3.5,7.1,7.9,7.1"/>
		<path class="st0" d="M314.3,142.7c0.6,1.1,0.9,2.2,0.9,3.4c0,4.3-3.9,7.8-8.7,7.8s-8.7-3.5-8.7-7.8c0-1.6,0.5-3.1,1.5-4.4"/>
		<path class="st0" d="M299.2,141.8c0.5-0.6,1-1.2,1.7-1.6"/>
		<path class="st1" d="M201.1,63.7c-2.9,2.4-4.2,6.3-3.3,9.9c0.3,1.1,0.9,2,1.8,2.7c0.2-3,1.4-5.8,3.5-8c2.1-2.1,2.1-4.1,1.7-5.5
			c-0.3-0.1-0.6-0.1-0.9-0.1C203,62.7,202,63,201.1,63.7z"/>
		<path class="st1" d="M204.6,75.9c1.5-1.1,2.5-2.7,3.1-4.5l0,0c0.6-1.8,0.7-3.7,0.2-5.4c-0.3-1.1-0.9-2-1.8-2.7
			c0.3,2.1-0.5,4.3-2.1,5.7c0,0-3.4,3.5-3.2,7.7C202.1,77.1,203.5,76.8,204.6,75.9z"/>
		<path class="st1" d="M150.4,85.7c-0.4,3.7,1.4,7.4,4.6,9.3c1,0.6,2.1,0.8,3.2,0.6c-2-2.3-3.1-5.2-3.1-8.2c0-2.9-1.3-4.4-2.7-5.1
			c-0.3,0.1-0.5,0.3-0.7,0.5C151,83.6,150.5,84.6,150.4,85.7z"/>
		<path class="st1" d="M161.4,91.9c0.2-1.8-0.1-3.7-0.9-5.4l0,0c-0.8-1.7-2.1-3.1-3.7-4c-1-0.6-2.1-0.8-3.2-0.6
			c1.7,1.3,2.7,3.4,2.5,5.6c0,0.1,0,4.9,3.1,7.8C160.4,94.6,161.2,93.3,161.4,91.9z"/>
		<path class="st1" d="M202.8,108c0.4,3.8,3,6.9,6.6,8.1c1.1,0.3,2.2,0.3,3.2-0.1c-2.4-1.8-4.1-4.4-4.8-7.3c-0.6-2.8-2.3-4-3.8-4.4
			c-0.2,0.2-0.4,0.4-0.6,0.7C203,105.9,202.7,107,202.8,108z"/>
		<path class="st1" d="M214.9,111.6c-0.2-1.8-0.9-3.6-2.1-5l0,0c-1.1-1.5-2.7-2.5-4.5-3.1c-1.1-0.3-2.2-0.3-3.2,0.1
			c2,0.9,3.4,2.7,3.7,4.9c0,0.1,1.1,4.8,4.8,6.9C214.6,114.4,215.1,113,214.9,111.6z"/>
		<path class="st1" d="M172.4,53c-2.6,2.7-3.4,6.7-2,10.3c0.4,1,1.2,1.9,2.1,2.4c-0.2-3,0.6-6,2.4-8.4c1.8-2.3,1.6-4.3,1-5.7
			c-0.3,0-0.6,0-0.9,0C174.1,51.7,173.1,52.2,172.4,53z"/>
		<path class="st1" d="M177.3,64.6c1.3-1.3,2.2-3,2.5-4.8l0,0c0.4-1.8,0.2-3.7-0.5-5.4c-0.4-1-1.2-1.9-2.1-2.4
			c0.6,2.1,0.1,4.4-1.4,6c0,0-3,3.9-2.2,8.1C175,66.2,176.4,65.6,177.3,64.6z"/>
		<path class="st1" d="M262.1,76.7c-2.9,2.4-4.2,6.3-3.3,9.9c0.3,1.1,0.9,2,1.8,2.7c0.2-3,1.4-5.8,3.5-8c2.1-2.1,2.1-4.1,1.7-5.5
			c-0.3-0.1-0.6-0.1-0.9-0.1C264,75.7,263,76,262.1,76.7z"/>
		<path class="st1" d="M265.6,88.9c1.5-1.1,2.5-2.7,3.1-4.5l0,0c0.6-1.8,0.7-3.7,0.2-5.4c-0.3-1.1-0.9-2-1.8-2.7
			c0.3,2.1-0.5,4.3-2.1,5.7c0,0-3.5,3.5-3.2,7.7C263.1,90.1,264.5,89.8,265.6,88.9z"/>
		<path class="st1" d="M267.1,133.7c-2.9,2.4-4.2,6.3-3.3,9.9c0.3,1.1,0.9,2,1.8,2.7c0.2-3,1.4-5.8,3.5-8c2.1-2.1,2.1-4.1,1.7-5.5
			c-0.3-0.1-0.6-0.1-0.9-0.1C269,132.7,268,133,267.1,133.7z"/>
		<path class="st1" d="M270.6,145.9c1.5-1.1,2.5-2.7,3.1-4.5l0,0c0.6-1.8,0.7-3.7,0.2-5.4c-0.3-1.1-0.9-2-1.8-2.7
			c0.3,2.2-0.5,4.3-2.1,5.8c0,0-3.5,3.5-3.2,7.7C268.1,147.1,269.5,146.8,270.6,145.9z"/>
		<path class="st1" d="M224.6,83c1.1,3.6,4.1,6.3,7.9,6.9c1.1,0.2,2.2-0.1,3.2-0.7c-2.7-1.3-4.8-3.6-6-6.4c-1.1-2.7-2.9-3.6-4.4-3.7
			c-0.2,0.2-0.3,0.5-0.4,0.8C224.4,80.9,224.3,82,224.6,83z"/>
		<path class="st1" d="M237.1,84.6c-0.5-1.8-1.5-3.4-2.9-4.6l0,0c-1.4-1.3-3.1-2.1-4.9-2.3c-1.1-0.2-2.2,0.1-3.2,0.7
			c2.1,0.5,3.8,2.1,4.5,4.2c0,0.1,1.9,4.5,5.9,6C237.3,87.4,237.6,85.9,237.1,84.6z"/>
		<path class="st1" d="M245.6,108c1.1,3.6,4.1,6.3,7.9,6.9c1.1,0.2,2.2-0.1,3.2-0.7c-2.7-1.3-4.8-3.6-6-6.4
			c-1.1-2.7-2.9-3.6-4.4-3.7c-0.2,0.2-0.3,0.5-0.4,0.8C245.4,105.9,245.3,107,245.6,108z"/>
		<path class="st1" d="M258.1,109.6c-0.5-1.8-1.5-3.4-2.9-4.6l0,0c-1.4-1.3-3.1-2.1-4.9-2.3c-1.1-0.2-2.2,0.1-3.2,0.7
			c2.1,0.5,3.8,2.1,4.5,4.2c0,0.1,1.9,4.5,5.9,6C258.3,112.4,258.6,110.9,258.1,109.6z"/>
		<path class="st1" d="M233,45.5c-3.5,1.4-5.8,4.8-6,8.5c0,1.1,0.3,2.2,1,3.1c1-2.8,3-5.2,5.7-6.7c2.6-1.4,3.2-3.3,3.2-4.8
			c-0.3-0.2-0.5-0.3-0.8-0.4C235.1,45,234,45.1,233,45.5z"/>
		<path class="st1" d="M232.8,58.1c1.7-0.7,3.2-1.9,4.2-3.4l0,0c1.1-1.5,1.7-3.3,1.8-5.2c0-1.1-0.3-2.2-1-3.1
			c-0.3,2.2-1.7,4-3.7,4.9c-0.1,0-4.3,2.4-5.3,6.5C230,58.6,231.5,58.7,232.8,58.1z"/>
		<path class="st1" d="M234,131.5c-3.5,1.4-5.8,4.8-6,8.6c0,1.1,0.3,2.2,1,3.1c1-2.8,3-5.2,5.7-6.6c2.6-1.4,3.2-3.3,3.2-4.8
			c-0.3-0.2-0.5-0.3-0.8-0.4C236.1,131,235,131.1,234,131.5z"/>
		<path class="st1" d="M233.8,144.1c1.7-0.7,3.2-1.9,4.2-3.4l0,0c1.1-1.5,1.7-3.3,1.8-5.2c0-1.1-0.3-2.2-1-3.1
			c-0.3,2.2-1.7,4-3.7,4.9c-0.1,0-4.3,2.4-5.3,6.5C231,144.6,232.5,144.7,233.8,144.1z"/>
		<path class="st0" d="M473.4,106.7c-20.9,0.2-37.7,9.4-37.7,20.7c0,11.4,17.3,20.7,38.6,20.7s38.7-9.3,38.7-20.7
			c0-10.9-15.8-19.9-35.8-20.7"/>
		<path class="st0" d="M511,134c-5.1-8.2-19.6-14.1-36.6-14.1s-31.5,5.9-36.6,14.1"/>
		<path class="st1" d="M437.7,134c5.1,8.2,19.6,14.1,36.6,14.1s31.5-5.9,36.7-14.1l0,0c-5.1-8.2-19.6-14.1-36.6-14.1
			S442.9,125.8,437.7,134L437.7,134z"/>
		<path class="st0" d="M435.7,128.3c0,0.7,0,1.5,0,2.2c0,26.7,17.3,48.4,38.6,48.4s38.6-21.7,38.6-48.4c0-1.1,0-1.5,0-2.5"/>
		<path class="st0" d="M512.6,137.3c1.7-2.3,5.9-7.2,11-5.5c7.5,2.5,8.1,12.4,6.3,18.2c-3.1,10-13.6,16.8-24.2,9"/>
		<path class="st0" d="M511.9,142.1c1.5-2.1,5.7-7.1,10.2-6.6c6.1,0.7,6.2,9.6,4.8,14.1c-2.4,7.6-12,12.9-19.5,6.3"/>
		<path class="st0" d="M526.9,149.2c-4.9-2.6-10-4.8-15.3-6.3"/>
		<path class="st0" d="M540.5,161.3c-2.3-3.8-6-7.4-10.9-10.5"/>
		<path class="st0" d="M441.7,197.6c11.2,3.1,22.8,4.7,34.5,4.6c25.2,0,47.1-6.6,58.5-16.5"/>
		<path class="st0" d="M437.2,144.1c-3.9,1.3-7.7,3-11.3,4.9"/>
		<path class="st0" d="M474.3,53.3c0.1-0.2,0-0.4-0.1-0.4c-0.1-0.1-0.3,0-0.4,0.1c-2.7,2.6-9.2,9.9-9.5,17.1
			c-0.3,8.7,7,19.2,9.1,27.3c1.6,5.8-0.8,14-2.4,18.5c-0.1,0.2,0,0.5,0.2,0.6c0.2,0.1,0.5,0,0.6-0.2c2.6-3.8,6.6-10.6,7.4-16.7
			c1.2-9.2-10.1-21.2-9-32.1C470.7,62.4,473.2,56.1,474.3,53.3z"/>
		<path class="st0" d="M459.6,58c0.1-0.1,0-0.2-0.1-0.3c-0.1-0.1-0.2,0-0.3,0.1c-1.9,1.8-6.5,6.9-6.7,12c-0.2,6.1,4.9,13.5,6.4,19.1
			c1.1,4.1-0.5,9.8-1.7,13c-0.1,0.2,0,0.4,0.1,0.4c0.2,0.1,0.4,0,0.4-0.1c1.8-2.7,4.6-7.4,5.2-11.7c0.8-6.5-7-14.8-6.3-22.5
			C457.2,64.5,458.2,61.2,459.6,58z"/>
		<path class="st0" d="M486.5,55.8c0-0.1,0-0.2-0.1-0.3c-0.1,0-0.2,0-0.2,0c-1.9,1.8-6.5,6.9-6.7,12c-0.2,6.1,4.9,13.5,6.4,19.1
			c1.1,4.1-0.5,9.8-1.7,13c-0.1,0.2,0,0.4,0.1,0.4c0.2,0.1,0.4,0,0.4-0.1c1.8-2.7,4.6-7.4,5.2-11.7c0.8-6.5-7-14.8-6.3-22.5
			C484.2,62.4,485.1,59,486.5,55.8z"/>
		<path class="st0" d="M41.7,152.9c0,0-10.5-11.1-12-20.3c-0.4-2.2-2.5-15.2-2-25.7c0.5-9.7,7.6-6.4,8.2,4.1
			c0.2,2.9,1.8,15.1,3.5,18.1c1.4,2.4,7.6,9.3,10.5,14.6"/>
		<path class="st0" d="M37,158.1c0,0-11.1-15.7-11.2-22.4c0,0-2.1-22.1-1.6-30c0.3-3.9,1.6-8.1,4.5-8.2c3.1,0,4.3,4.7,4.3,4.7"/>
		<path class="st0" d="M27.7,141.8c-0.1,0.5,6.5,23.9,9.3,29.7c7.6,15.7,33.8,25.6,29.7,44.9l-5.1,23.5h35
			c1.8-29.1-3.7-35.2-2.5-45.6c1.5-13.6-4.2-23.1-15.1-30.9c-1.9-1.4-7.2-5.2-13-5.3c-4.1-6.5-6.4-9.9-8.5-12.2
			c-4.9-5.5-10.7-4.2-6.8,4.9c1.5,3.4,4.6,9.9,6.3,13.1c1.4,2.6,16.5,13.1,16.5,13.1"/>
		<path class="st0" d="M162.5,153.5c0,0,10.5-11.1,12-20.3c0.4-2.2,2.5-15.2,1.9-25.7c-0.5-9.7-7.6-6.4-8.2,4.1
			c-0.2,2.9-1.7,15.2-3.5,18.1c-1.4,2.4-7.6,9.3-10.5,14.6"/>
		<path class="st0" d="M167.2,158.7c0,0,11.1-15.7,11.2-22.4c0,0,2.1-22.1,1.6-30c-0.3-3.9-1.6-8.1-4.5-8.2c-3.1,0-4.2,4.7-4.2,4.7"
			/>
		<path class="st0" d="M176.5,142.4c0.1,0.4-6.5,23.9-9.3,29.7c-7.6,15.7-33.8,25.6-29.7,44.9l5.1,22.9h-35
			c-1.8-29.1,3.7-34.6,2.5-45.1c-1.5-13.7,4.2-23.1,15.1-30.9c1.9-1.4,7.2-5.2,13-5.3c4.1-6.5,6.4-9.9,8.5-12.2
			c4.9-5.5,10.7-4.2,6.8,4.9c-1.5,3.4-4.6,9.9-6.4,13.1c-1.4,2.6-16.5,13.1-16.5,13.1"/>
		<path class="st0" d="M50,87.9c0,0-5.5-2.6-4.8-4.1s6.4,2.2,6.4,2.2s-1.1-6,0.5-6.3s1.5,6.2,1.5,6.2h0.2c0,0,6-0.9,6.3,0.8
			s-6.2,1.3-6.2,1.3s2.7,5,1.3,6c-1.2,0.8-3.1-3.3-3.7-4.6c0,0-3.3,4.9-4.8,4S50,87.9,50,87.9z"/>
		<path class="st0" d="M33,55.9c0,0-5.5-2.6-4.8-4.1s6.4,2.2,6.4,2.2s-1.1-6,0.5-6.3s1.5,6.2,1.5,6.2h0.2c0,0,6-0.9,6.3,0.8
			s-6.2,1.3-6.2,1.3s2.7,5,1.3,6c-1.2,0.8-3.1-3.3-3.7-4.6c0,0-3.3,4.9-4.8,4S33,55.9,33,55.9z"/>
		<path class="st0" d="M53,26.9c0,0-5.5-2.6-4.8-4.1s6.4,2.2,6.4,2.2s-1.1-6,0.5-6.3s1.5,6.1,1.5,6.1h0.2c0,0,6-0.9,6.3,0.8
			s-6.2,1.3-6.2,1.3s2.7,5,1.3,6c-1.2,0.8-3.1-3.3-3.7-4.6c0,0-3.3,4.9-4.8,4S53,26.9,53,26.9z"/>
		<path class="st0" d="M83,41.9c0,0-5.5-2.6-4.8-4.1s6.4,2.2,6.4,2.2s-1.1-6,0.6-6.3s1.5,6.2,1.5,6.2h0.2c0,0,6-0.9,6.3,0.8
			s-6.2,1.3-6.2,1.3s2.7,5,1.3,6c-1.2,0.8-3.1-3.3-3.7-4.6c0,0-3.3,4.9-4.8,4S83,41.9,83,41.9z"/>
		<path class="st0" d="M104.4,137c0.1,1.1,0.3,2.2,0.5,3.3"/>
		<path class="st0" d="M105.7,145c0.3,2.7,0.3,5.4,0.1,8.1c9.6-3.6,15.3,4,22.2-1.4c6-4.8-3.2-12.8,1.7-16.8
			c2.2-1.8,8.5-0.6,10.5-5.5c1.3-3.2-2.3-9.4,3.9-18.5c-8.8,5.6-15.5,0.7-20.6,3.3s-2.5,6.4-6.9,9.6c-4.2,3.1-8.5,3.9-11.1,8.5"/>
		<path class="st0" d="M131.8,120.7c-5.8,12.6-14.5,12.6-19.5,19.1c-1.5,1.9-5.3,12.1-8.6,15.7"/>
		<path class="st0" d="M101.9,142.2c0.7,3.8,2.3,13.5,1.5,20c-0.3,2.3-0.7,4.6-1,6.5"/>
		<path class="st0" d="M99.9,167.6c0.2-1.6,0.5-3.2,0.7-4.6c0.8-6.3-0.8-13.9-1.3-16.5"/>
		<path class="st0" d="M102.2,134.7c0.2-1.5,0-3-0.7-4.3c-3.3-7-13.1-1.8-14.9-7.8c-0.8-2.7,2.6-8.1-1.2-11.8
			c-2.4-2.4-11.5-4-17.6-13.1c1.9,10.3-5.8,15.7-4.5,21.4s7.6,4.3,8.5,8.6s-4.3,12,0.8,17.7s14.7-1,22.4,5.3c0-2.2,0.5-4.3,1.5-6.2"
			/>
		<path class="st0" d="M76.1,114.6c4.8,3.9,4.9,10.5,5.2,14.5c1,14.4,10.6,8.7,19.4,33.9"/>
		<path class="st0" d="M102.5,138.4c0,0,6.6,4.8,5.3,6.6s-7.8-4.6-7.8-4.6s-0.1,8.1-2.3,8.1s-0.4-8.5-0.4-8.5h-0.3
			c0,0-8.1-0.4-8-2.6s8.5-0.1,8.5-0.1s-2.3-7.3-0.2-8.2c1.7-0.8,3.2,5.1,3.6,7c0,0,5.7-5.6,7.3-4.1S102.5,138.4,102.5,138.4z"/>
		<path class="st0" d="M119.4,120.1c-1.6,1.5-3.5,2.7-5.5,3.7c0,0,0.6,0.4,1.4,0.9"/>
		<path class="st0" d="M106.7,130.6c0.7-2.2,1.6-4.4,2.8-6.4c0,0-7.9,2-8.5-0.2s8.1-2.6,8.1-2.6v-0.3c0,0-1.7-7.9,0.5-8.5
			s2.3,8.2,2.3,8.2s6.5-4.1,7.9-2.3"/>
		<path class="st0" d="M86.9,113.3c2.2,1.1,5.4,4.5,5.4,4.5s2-7.4,4.2-7c1.9,0.3-0.1,6-0.7,7.9c0,0,7.8-1.7,8.3,0.5s-8,2.3-8,2.3
			c0.7,1.8,1.2,3.7,1.5,5.6"/>
		<path class="st0" d="M87.2,124.1c1-1.4,2.2-2.8,3.4-4l-0.2-0.2c-1.2-0.8-2.3-1.8-3.4-2.8"/>
		<path class="st0" d="M94.2,126.3c-0.5-1.5-1-3-1.3-4.5c-0.9,1.3-1.9,2.6-3,3.8"/>
		<path class="st0" d="M99.8,128.1c0.2-2.3,0.3-4.7,0.2-7"/>
		<path class="st0" d="M97.1,118.3c-0.1-1-0.1-2.1-0.3-3.3"/>
		<path class="st0" d="M97.2,124.8c0-0.9,0.1-2.1,0-3.4"/>
		<path class="st0" d="M94.5,87.5c0,2.8,0.2,5.6,0.6,8.3c-8.8-4.4-15,2.3-21-3.6c-5.3-5.2,4.3-11.9,0-16.1c-2-1.9-8-1.4-9.5-6.2
			c-0.9-3.1,3.1-8.8-1.9-18c7.9,6.2,14,1,18.1,4.6c1.2,1.2,2,2.7,2.3,4.4"/>
		<path class="st0" d="M91.1,88.5c1.5,3.5,3.4,6.8,5.8,9.9"/>
		<path class="st0" d="M73.5,62.3c4.3,12.6,9.3,7.8,14.6,21.3"/>
		<path class="st0" d="M99.5,88.5c0,0-3.2,8.3-3,16.2c0,2.2,0.2,4.4,0.3,6.3"/>
		<path class="st0" d="M101.3,91.6c-1.5,4.6-2.3,9.4-2.3,14.2c0,1.4,0.5,7.1,0.5,12.1"/>
		<path class="st0" d="M136.9,46.8c-2.9,9.6,4,15.6,2.2,20.8s-7.6,3.4-9,7.3s2.9,11.9-2.5,16.8s-13.9-2.4-21.9,2.8
			c0.9-9.8-8.5-12.8-4.2-19.9c3.8-6.3,12.7-0.4,15-6c1.1-2.5-1.7-8,2.3-11.1C121.4,55.5,130.1,54.9,136.9,46.8z"/>
		<path class="st0" d="M127.2,62.1c-4.9,3.3-5.7,9.6-6.3,13.3c-2.4,13.7-11,7.2-21.8,30.4"/>
		<path class="st1" d="M93.9,81.6c0.9,1.1,2.2,1.7,3.7,1.8c1.5,0.1,2.9-0.4,4.1-1.3l0,0c-0.8-1.1-1.3-2.5-1.4-3.9
			c0.1-1.6,0.6-3.2,1.6-4.5c0,0-0.1,0-0.1-0.1c-1.9-1.7-5.3-1.2-7.1,0.3C92.3,75.9,92,79.3,93.9,81.6z"/>
		<path class="st1" d="M99.8,71.5c1.8-2.4,1.4-5.8-1-7.7c-2.4-1.8-5.8-1.4-7.7,1c-0.6,0.8-1,1.8-1.1,2.9c-0.1,1.4,0.3,2.9,1.2,4
			c0.6,0.7,1.4,1.3,2.3,1.6l0.3-0.3C95.5,71.7,97.7,71.1,99.8,71.5z"/>
		<path class="st1" d="M111.2,70.8c-0.1-0.1-0.1-0.2-0.1-0.3c-0.2-1.4-0.7-2.7-1.5-3.8c-0.4-0.4-0.9-0.8-1.4-1.2
			c-2.1-0.9-4.5-0.6-6.2,0.8c0.6,1.9,0.3,3.9-0.8,5.5c0.6,0.2,1.1,0.5,1.5,0.9c1.2-0.6,2.5-1,3.8-1.2c0.7-0.2,1.9-0.6,1.9-0.6
			c0.8,0.1,1.5,0.1,2.3,0L111.2,70.8z"/>
		<path class="st1" d="M100.2,56.4c-1.7,1.4-2.4,3.7-1.8,5.8c0.8,0.4,1.6,1,2.2,1.7c0.2,0.2,0.4,0.5,0.5,0.7
			c0.1,0.2,0.2,0.3,0.3,0.5c1.9-1.3,4.3-1.7,6.5-1c1.7-2,1.7-5,0-7C105.9,54.8,102.5,54.5,100.2,56.4L100.2,56.4z"/>
		<path class="st1" d="M89.7,62.1c0.4,0.4,0.8,0.8,1.3,1.1l0.2-0.2c1.6-1.4,3.8-1.9,5.9-1.3c-0.3-2,0.3-4.1,1.7-5.6
			c-0.2-0.4-0.4-0.7-0.7-1c-1.9-2.3-5.4-2.6-7.7-0.7c0,0,0,0,0,0C88.1,56.3,87.8,59.8,89.7,62.1L89.7,62.1z"/>
		<path class="st1" d="M109,64.6c0.5,0.4,1,0.8,1.4,1.3c0.2,0.2,0.3,0.4,0.5,0.6c0.7,1.2,1.2,2.5,1.3,3.8c0,0.2,0,0.3-0.1,0.4
			c0,0,0,0-0.1,0.1c0.9-0.1,1.8-0.4,2.6-0.8c1.1-0.4,1.3-0.5,2.1-2c1-1.8,0.2-5.9,0.1-6.8c0-0.2,0-0.4,0.1-0.5
			c-1.9-1.5-4.5-1.9-6.7-0.9C110.5,61.5,110,63.2,109,64.6z"/>
		<path class="st1" d="M85.5,70.7c-0.7,1.7-0.5,3.5,0.5,5c1.2,1.8,3.3,2.7,5.4,2.4c0-1.4,0.4-2.8,1.2-3.9c-0.3-0.1-0.6-0.3-0.9-0.5
			c-0.6-0.4-1.1-0.8-1.5-1.3c-1.1-1.3-1.7-3-1.5-4.8C87.3,68.1,86.1,69.3,85.5,70.7z"/>
		<path class="st1" d="M82.4,67.9c0.6,0.7,1.4,1.3,2.2,1.7c0.9-1.7,2.5-2.8,4.3-3.3c0.2-0.8,0.6-1.6,1.1-2.2c-2-1.4-3.1-3.7-2.9-6.1
			l0,0c-1.5,0-2.9,0.5-4,1.4C80.7,61.5,80.3,65.4,82.4,67.9z"/>
		<path class="st1" d="M99,54.3c0.2,0.2,0.4,0.5,0.5,0.7c0,0.1,0.1,0.1,0.1,0.2c1.3-1,3-1.4,4.6-1.2c0.9,0.1,1.7,0.3,2.5,0.7
			c0.4-1.9,0-3.8-1.2-5.3c-2.1-2.6-6-2.9-8.6-0.8c-1.1,0.9-1.8,2.1-2.1,3.4C96.5,52.2,98,53.1,99,54.3z"/>
		<path class="st1" d="M101.8,83c-0.9,1.3-2.5,1.8-4.3,1.7c-0.6,1.7-0.3,3.6,0.6,5.1c1.8,2.4,5.2,2.9,7.6,1.2c0.1,0,0.1,0,0.2,0
			c-0.1-0.3-0.1-0.7-0.2-1.1c-0.1-1-2.6-4.7-2.8-5.3S101.9,83.2,101.8,83z"/>
		<path class="st1" d="M96.3,84.5c-1.3-0.3-2.5-1-3.3-2.1c-0.7-0.9-1.2-1.9-1.4-3c-0.7,0.1-1.4,0.1-2.1-0.1c-1.1,1-1.8,2.4-1.9,3.9
			c-0.2,3.3,2.3,6.2,5.7,6.5c1.1,0,2.2-0.2,3.1-0.7C95.9,87.5,95.9,86,96.3,84.5z"/>
		<path class="st1" d="M572,192.9c1.2,0.1,2.3,0.2,3.5,0.5c2,0.5,3.9,1.5,5.5,2.9c0.3,0.3,0.6,0.6,0.9,1c1.2-3.5-1.6-8-6.5-10.4
			c-5.1-2.4-10.6-1.6-12.4,1.8C565.5,192.3,568.9,192.6,572,192.9z"/>
		<path class="st1" d="M569.2,199.8c4.8,2.3,9.9,1.7,12-1.2c0,0-0.1-0.1-0.1-0.1c0-0.1-0.9-2.4-6-3.9c-1.1-0.3-2.1-0.4-3.2-0.5
			c-3-0.3-6.6-0.6-9.4-3.9C561.9,193.6,564.6,197.6,569.2,199.8z"/>
		<path class="st1" d="M577.2,176c0.1,0.9,0.2,1.8,0.2,2.8c-0.1,1.7-0.6,3.3-1.4,4.7c-0.1,0.2-0.3,0.5-0.5,0.7c2.6-0.3,5.1-3,6-6.7
			c0.9-4-0.3-7.8-2.8-8.9C576.6,171,576.9,173.6,577.2,176z"/>
		<path class="st1" d="M574,184c0.1-0.1,0.1-0.2,0.2-0.2c0,0,1.6-1.1,1.9-5.1c0-0.8,0-1.7-0.2-2.5c-0.3-2.4-0.7-5.2,1.5-7.9
			c-2.9-0.3-5.8,2.6-6.8,6.7S571.1,183.2,574,184z"/>
		<path class="st1" d="M555.8,173.8c1.3,2.7,3.6,3.2,5.8,3.7c0.8,0.2,1.6,0.4,2.4,0.7c1.7,0.6,3.1,1.8,4.1,3.3
			c0.9-2.3-0.6-5.5-3.7-7.5C561.2,171.9,557.4,171.8,555.8,173.8z"/>
		<path class="st1" d="M558.8,182.3c3.1,2,6.7,2.1,8.4,0.4c0-0.1-0.1-0.1-0.1-0.2c0-0.1-0.5-1.7-3.7-3.2c-0.7-0.3-1.4-0.5-2.2-0.6
			c-2-0.5-4.6-1-6.2-3.6C554.4,177.4,555.9,180.4,558.8,182.3z"/>
		<path class="st0" d="M628.4,238.9c7.1-31.8-9.9-61.7-9.6-70.3c0.1-3.1,3.9-11.7,1.1-13c-2.5-1.2-6.8,4.1-8.9,3.9
			c-6.8-0.7-15.5-11.3-23.5-14.3c-10.4-3.9-28.7-3.9-28.7-3.9s-5.2-6.5-6.5-5.2s0,6.5-0.5,6.8c-16.3,16.4-13.9,39.5-20.8,54.5
			c-3.6,7.9-16.8,25.6-8.8,41.6L628.4,238.9z"/>
		<path class="st0" d="M600.1,238.9c0-24.8,13.3-27.4,8.8-54.8c-1.8-11.5,10.9-28.5,10.9-28.5"/>
		<ellipse class="st2" cx="650.5" cy="58.4" rx="41.6" ry="9.4"/>
		<path class="st2" d="M692.1,58.4v6.1c0,5.2-18.6,9.5-41.6,9.5S609,69.7,609,64.5v-6.1"/>
		<line class="st0" x1="687.6" y1="238.9" x2="628.4" y2="238.9"/>
		<line class="st0" x1="693.6" y1="210" x2="693.6" y2="235.8"/>
		<path class="st0" d="M692.1,64.5l-0.6,15.9c0,17.8-12,32.9-28.6,38.1v5.4l30.7,9v13"/>
		<path class="st0" d="M606.3,158.1l0.3-25.2l30.8-9v-5.5c-16.4-5.3-28.2-20.3-28.2-38L609,64.5"/>
		<ellipse class="st2" cx="698.6" cy="148.9" rx="22" ry="3"/>
		<path class="st0" d="M702.4,176c10.3,0.2,18.2,1.5,18.2,3c0,1.6-9.8,3-22,3s-22-1.4-22-3s8.2-2.8,19-3"/>
		<path class="st2" d="M676.6,148.9v8c0,1.6,9.8,3,22,3s22-1.4,22-3v-8"/>
		<path class="st0" d="M676.6,156.9v47c0,1.6,9.8,3,22,3s22-1.4,22-3v-47"/>
		<path class="st0" d="M702.6,172.9c-0.3-1.9-2.1-3.3-4-3c-1.5,0.2-2.7,1.4-3,3v6l1.1,0.3c1.5,0.4,3.1,0.4,4.7,0l1.1-0.3
			L702.6,172.9z"/>
		<path class="st2" d="M720.8,191.8h8.2c2,0,3.6,1.6,3.6,3.6c0,0,0,0,0,0v1.5c0,1.6,1.3,2.9,2.9,2.9h6.6c0.8,0,1.5,0.7,1.5,1.5l0,0
			c0,0.8-0.7,1.5-1.5,1.5h-9c-1.9,0-3.5-1.6-3.5-3.5v-2.1c0-1.3-1.1-2.4-2.4-2.4h-6.6"/>
		<polyline class="st0" points="690.9,206.8 691.6,209.9 707.6,209.9 708.3,206.7 		"/>
		<polygon class="st2" points="677.6,238.9 677.4,235.9 722.6,235.9 722.6,238.9 		"/>
		<path class="st2" d="M676.3,193.9h-20.8c-1.7,0-3,1.3-3,3s1.3,3,3,3h20.8"/>
		<path class="st0" d="M639.6,119.9l6,1.8c2.6,0.8,5.5,0.8,8.1,0.1l6.9-1.9"/>
		<line class="st0" x1="606.6" y1="140.6" x2="693.3" y2="140.6"/>
		<path class="st0" d="M637.4,123.9c0,0,3.2,3,12.2,3s13.3-3,13.3-3"/>
		<path class="st2" d="M683.4,84.6c0,0-0.8-2.7-2.8-2.7c-1.3,0.1-2.4,0.9-3,2c0,0,0-3-4-3c-3,0-4,3-4,3s-2-2-4-2
			c-1.3,0.1-2.4,0.9-3,2c0,0-1-3-6-3c-3,0-5,3-5,3c-0.9-1.4-2.4-2.1-4-2c-1.3,0.1-2.4,0.9-3,2c0,0-1-3-6-3c-4,0-5,3-5,3
			c-0.7-1.7-2.6-2.4-4.2-1.8c-0.8,0.3-1.4,1-1.8,1.8c-1.4-1.3-3.1-2-5-2c-3,0-5,2.7-5,2.7c0.1,13.2,8.3,25,20.7,29.7
			c3.6,1.6,7.4,2.5,11.3,2.6c4.3,0,8.6-0.9,12.7-2.5C674.8,109.9,683.2,98,683.4,84.6z"/>
		<path class="st3" d="M641.8,96.9c1.2,2.4,3.2,2.8,5.2,3.3c0.7,0.1,1.4,0.3,2.1,0.6c1.5,0.6,2.8,1.6,3.6,2.9
			c0.8-2.1-0.6-4.9-3.3-6.7S643.3,95.2,641.8,96.9L641.8,96.9z"/>
		<path class="st3" d="M644.5,104.5c2.7,1.8,5.9,1.9,7.5,0.3c0-0.1-0.1-0.1-0.1-0.2c0,0-0.4-1.5-3.3-2.8c-0.6-0.2-1.3-0.4-1.9-0.6
			c-1.8-0.4-4.1-0.9-5.5-3.2C640.6,100.1,641.9,102.8,644.5,104.5z"/>
		<path class="st3" d="M661.2,92.4c-1.7,0.8-2,2.3-2.3,3.6c-0.1,0.5-0.2,1-0.5,1.5c-0.4,1-1.1,1.9-2,2.6c1.4,0.5,3.5-0.4,4.7-2.3
			S662.4,93.5,661.2,92.4L661.2,92.4z"/>
		<path class="st3" d="M655.8,94.3c-1.3,1.9-1.3,4.2-0.2,5.3c0,0,0.1-0.1,0.1-0.1c0,0,1-0.3,2-2.3c0.2-0.4,0.3-0.9,0.4-1.4
			c0.2-1.6,1-3,2.2-3.9C658.9,91.6,657,92.5,655.8,94.3z"/>
		<ellipse class="st0" cx="553.1" cy="58.4" rx="31" ry="12"/>
		<ellipse class="st2" cx="553.1" cy="97.9" rx="30.5" ry="12"/>
		<line class="st0" x1="522.1" y1="135.5" x2="522.1" y2="146.8"/>
		<line class="st0" x1="522.1" y1="58.4" x2="522.1" y2="131.5"/>
		<line class="st0" x1="584.1" y1="58.4" x2="584.1" y2="143.9"/>
		<path class="st4" d="M583.6,96.9c0,6.6-13.7,12-30.5,12s-30.5-5.4-30.5-12"/>
		<path class="st4" d="M692.1,58.4c0,5.2-18.6,9.4-41.6,9.4S609,63.6,609,58.4"/>
		<path class="st4" d="M720.6,148.9c0,1.6-9.8,3-22,3s-22-1.4-22-3"/>
		<path class="st2" d="M28.2,103.6c0.3-0.8,1.4-1.8,1.4,3.3v5l-1.9,0.2C27.7,112.1,27.4,105.6,28.2,103.6z"/>
		<path class="st2" d="M25.6,100.9c0,0,1-2.1,1,3v5c0,0-1.8,0.7-1.9,0.2C23.6,103.9,25.6,100.9,25.6,100.9z"/>
		<path class="st2" d="M176,104.6c-0.3-0.8-1.4-1.8-1.4,3.3v5l1.9,0.2C176.5,113.1,176.8,106.6,176,104.6z"/>
		<path class="st2" d="M178.6,100.9c0,0-1-2.1-1,3v5c0,0,1.8,0.7,1.9,0.2C180.6,103.9,178.6,100.9,178.6,100.9z"/>
		<path class="st2" d="M49.4,146.8c0,0,1.6-4.3,4.2-0.9c1.1,1.5,1.8,3.2,2,5c0,1.2-2.5,4.8-3.7,1.7
			C51.6,151.9,49.4,146.8,49.4,146.8z"/>
		<path class="st2" d="M154.6,147.8c0,0-1.6-4.3-4.1-0.9c-1.1,1.5-1.8,3.2-2,5c0,1.2,2.5,4.8,3.7,1.7
			C152.4,152.9,154.6,147.8,154.6,147.8z"/>
	</g>
</g>
</svg>
