<svg xmlns="http://www.w3.org/2000/svg" viewBox="0 0 80 80"><defs><style>.cls-1{fill:none;stroke:#253948;stroke-linecap:round;stroke-linejoin:round;stroke-width:1.25px;}.cls-2{fill:#253948;}</style></defs><g id="Layer_1" data-name="Layer 1"><path class="cls-1" d="M0,49.44C4.21,47.5,10.21,48,14.57,44c5.68-5.11,11.81-5.59,18.87-3.17,1.25.43,4.68,1.56,6.61,4.17a53.51,53.51,0,0,1,8.26-.12c4.08.45,5.39,3.48,0,4.64-2,.44-6,1.14-8,1.39-1.62.19-11.3-3.21-11.3-3.21"/><path class="cls-1" d="M50.27,54.31s8.4,1.14,13.09-1.16A74,74,0,0,0,75.6,45.69c4.2-3.38.44-5.5-4.49-2.36-1.37.88-7.41,4.13-9.29,4.28-1.55.13-6.67-.4-10,0"/><path class="cls-1" d="M49.41,58.11s10.7-.1,13.79-2.2c0,0,10.69-6.2,14.06-9,1.67-1.4,3.16-3.35,2.23-4.68S76,41.81,76,41.81"/><path class="cls-1" d="M59.81,57c-.18.19-12.92,4.81-16.45,5.43-9.56,1.68-20.16-3.82-29.91,1.12C9.4,65.64,1,69.21,1,69.21"/><path class="cls-2" d="M51.55,24a27,27,0,0,1-1.43-5.27A21.33,21.33,0,0,1,50.77,9a11.43,11.43,0,0,1,.87-1.86C45.93,7.65,41.23,14.45,41,22.91,40.71,31.72,45.35,39,51.36,39.35,54.84,33.59,53.1,28.47,51.55,24Z"/><path class="cls-2" d="M63.1,23.58c.25-8.22-3.77-15.13-9.21-16.28a.79.79,0,0,1-.14.18c-.07.06-2.77,2.83-1.76,11a26.81,26.81,0,0,0,1.35,4.9c1.5,4.38,3.34,9.77.3,15.8C58.8,37.87,62.87,31.45,63.1,23.58Z"/></g></svg>