<svg xmlns="http://www.w3.org/2000/svg" viewBox="0 0 80 80"><defs><style>.cls-1{fill:#253948;}.cls-2{fill:none;stroke:#253948;stroke-linecap:round;stroke-linejoin:round;stroke-width:1.25px;}</style></defs><g id="Layer_1" data-name="Layer 1"><path class="cls-1" d="M42.75,47.29A21.89,21.89,0,0,1,45,43.42a18.84,18.84,0,0,1,6-5.39,10.08,10.08,0,0,1,1.59-.65c-3.66-2.68-10.38-1.09-15.44,3.79C31.82,46.26,30.33,53,33.7,56.32,39.1,54.72,41,50.77,42.75,47.29Z"/><path class="cls-1" d="M49.79,53.08c4.92-4.74,6.54-10.94,4-14.44l-.18,0c-.08,0-3.29.24-7.4,5.58a21.59,21.59,0,0,0-2,3.61c-1.66,3.38-3.69,7.53-9,9.52C39,59.32,45.09,57.62,49.79,53.08Z"/><rect class="cls-2" x="16.32" y="23.66" width="51.75" height="43.43" rx="5.7"/><line class="cls-2" x1="16.32" y1="30.21" x2="68.08" y2="30.21"/><path class="cls-2" d="M43.2,23.66S26.14,13.85,30.9,9.39C36.58,4.06,43.2,23.66,43.2,23.66Z"/><path class="cls-2" d="M43.15,23.66s17.06-9.81,12.3-14.27C49.77,4.06,43.15,23.66,43.15,23.66Z"/><path class="cls-2" d="M43.15,23.66S55,22.47,63.32,13.55"/><path class="cls-2" d="M42.8,23.66S31,22.47,22.63,13.55"/></g></svg>