<svg xmlns="http://www.w3.org/2000/svg" viewBox="0 0 230 338"><defs><style>.cls-1{fill:none;}.cls-1,.cls-3{stroke:#253948;stroke-linecap:round;stroke-linejoin:round;stroke-width:1.25px;}.cls-2{fill:#253948;}.cls-3{fill:#fff;}</style></defs><g id="Layer_1" data-name="Layer 1"><ellipse class="cls-1" cx="129.84" cy="223.94" rx="57.14" ry="30.66"/><path class="cls-1" d="M75.65,233.69c7.6-12.15,29-20.9,54.19-20.9s46.59,8.75,54.19,20.9"/><path class="cls-2" d="M184,233.69c-7.6,12.15-29,20.91-54.19,20.91s-46.59-8.76-54.19-20.91h0c7.6-12.15,29-20.9,54.19-20.9s46.59,8.75,54.19,20.9Z"/><path class="cls-1" d="M186.92,225.31c0,1.08.06,2.18.06,3.27,0,39.51-25.58,71.54-57.14,71.54s-57.14-32-57.14-71.54c0-1.55-.08-2.18,0-3.71"/><path class="cls-1" d="M73.17,238.52c-2.47-3.37-8.73-10.59-16.26-8.08-11.15,3.72-12,18.35-9.29,26.95,4.6,14.74,20.18,24.91,35.84,13.3"/><path class="cls-1" d="M74.2,245.71c-2.24-3.18-8.4-10.58-15.06-9.81-9,1-9.24,14.17-7.17,20.8C55.5,268,69.69,275.85,80.81,266"/><path class="cls-1" d="M52,256.24a114.33,114.33,0,0,1,22.6-9.31"/><path class="cls-1" d="M184.71,248.6c25,8.6,41.29,22.65,41.29,38.52,0,26.17-44.3,47.38-98.95,47.38s-98.94-21.21-98.94-47.38c0-10.71,7.41-20.59,19.91-28.52"/><path class="cls-3" d="M145.94,233.27c5.6-3.5,4-12.09-4.93-13.35-5.57-.78-8.64,3.3-10.89,5-2.25-1.7-5.32-5.78-10.89-5-9,1.26-10.53,9.85-4.93,13.35,7,4.42,10,7.13,14.73,12.93a1.39,1.39,0,0,0,2.18,0C135.91,240.4,138.9,237.69,145.94,233.27Z"/><path class="cls-1" d="M5.3,134s.47,67,17.85,66.09c8.46-.46,17.66-3.78,17.82-9,.51-15.7-10-41.85-24.36-60.17S5.24,123.93,5.3,134Z"/><path class="cls-1" d="M128,99.85s-17.94,65-34.59,59.6c-8.1-2.65-16-5.58-15-13.39,2-15.69,20.61-38.09,39.36-52.15S130.7,90.06,128,99.85Z"/><path class="cls-1" d="M6.79,122.27S33,193.11,48,238.94"/><path class="cls-1" d="M130.37,88.2s-60.73,64.29-67.3,162.05"/><path class="cls-1" d="M73.77,66s3.68,67.38-13.83,67.51c-8.53.06-16.93-.21-18.47-7.93C38.38,110.11,48.9,83,62.2,63.66S73.18,55.91,73.77,66Z"/><path class="cls-1" d="M72.28,54.26s-36.71,80.81-12,198"/><path class="cls-1" d="M202.88,66.26H96.12s-.7-7.57,7-8.27c0,0-4.9-18.9,13-21.7,0,0,7.7-1.4,13,4.2,0,0-.26-24.86,20.46-24.86,18.4,0,18,22.06,18,22.06s5.46-8.9,14.79-4.38c8.66,4.2,5.78,17.33,5.78,17.33S202.88,49.32,202.88,66.26Z"/><path class="cls-1" d="M186.92,37.85a19.43,19.43,0,1,0-32-21.46"/></g></svg>