<?xml version="1.0" encoding="utf-8"?>
<!-- Generator: Adobe Illustrator 26.0.1, SVG Export Plug-In . SVG Version: 6.00 Build 0)  -->
<svg version="1.1" id="Layer_1" xmlns="http://www.w3.org/2000/svg" xmlns:xlink="http://www.w3.org/1999/xlink" x="0px" y="0px"
	 viewBox="0 0 540 209" style="enable-background:new 0 0 540 209;" xml:space="preserve">
<style type="text/css">
	.st0{fill:#253948;stroke:#253948;stroke-linecap:round;stroke-linejoin:round;}
	.st1{fill:#253948;}
	.st2{fill:none;stroke:#253948;stroke-linecap:round;stroke-linejoin:round;}
	.st3{fill:#253948;stroke:#253948;stroke-width:1;stroke-linecap:round;stroke-linejoin:round;stroke-miterlimit:3.9998;}
	.st4{fill:none;stroke:#253948;stroke-width:1;stroke-linecap:round;stroke-linejoin:round;stroke-miterlimit:4;}
</style>
<g id="Layer_1_00000044171442379874820370000009095623467657192065_">
	<path class="st0" d="M356.4,49.2c1.3,10.2,5.9,19.8,11.9,21.3c0.9,0.2,1.9,0.2,2.9,0.1v0.1c0.9,3.8,0.3,7.4-0.2,8
		c-2.7,3-10-1.2-15.5,5.3c0,0-4.7-5.8,0-10.5c5-5,0.5-10.9,0-14C354.9,56.1,355.2,52.5,356.4,49.2z"/>
	<path class="st1" d="M210.2,166.8c0.4-1,0.9-2,1.5-2.9c1.1-1.6,2.5-3,4.2-4c0.4-0.2,0.8-0.3,1.1-0.5c-2.7-2.1-7.6-1-11.2,2.6
		c-3.7,3.8-4.7,8.9-2.2,11.5C207.7,172.4,209.1,169.4,210.2,166.8z"/>
	<path class="st1" d="M215.5,171.3c3.5-3.5,4.6-8.2,2.6-11H218c0,0-2.4,0.1-5.3,4.1c-0.6,0.9-1,1.8-1.4,2.7
		c-1.1,2.6-2.5,5.7-6.4,7.1C207.7,175.9,212.1,174.7,215.5,171.3z"/>
	<path class="st1" d="M196.8,157c0.9,0.1,1.7,0.4,2.5,0.7c1.5,0.6,2.8,1.5,3.8,2.6c0.2,0.2,0.3,0.4,0.4,0.6c0.5-2.4-1.1-5.4-4.1-7.3
		c-3.2-2.1-6.9-2.1-8.8-0.3C192.2,156,194.6,156.5,196.8,157z"/>
	<path class="st1" d="M203,162.3c-0.1-0.1-0.1-0.2-0.1-0.3c0,0-0.5-1.8-4-3.3c-0.7-0.3-1.5-0.5-2.3-0.6c-2.2-0.4-4.8-1-6.6-3.7
		c-1.1,2.4,0.5,5.9,3.9,8.1S201.3,164.5,203,162.3z"/>
	<path class="st1" d="M188.3,175.3c2.8-0.4,3.9-2.2,5-4c0.4-0.7,0.8-1.3,1.4-1.9c1.1-1.3,2.5-2.2,4.1-2.6c-1.8-1.5-5.1-1.1-7.8,1
		S187.1,173.3,188.3,175.3L188.3,175.3z"/>
	<path class="st1" d="M196.8,175.2c2.7-2.1,3.9-5.2,2.9-7.3c-0.1,0-0.2,0-0.2,0c-0.1,0-1.6-0.1-3.9,2.3c-0.5,0.5-0.9,1.1-1.2,1.7
		c-1,1.7-2.3,3.7-5.1,4.4C191.1,177.6,194.2,177.2,196.8,175.2z"/>
	<path class="st1" d="M262.7,172.1c0.9,0,1.8,0.2,2.7,0.4c1.6,0.4,3,1.2,4.2,2.2c0.2,0.2,0.5,0.5,0.7,0.8c0.9-2.7-1.2-6.1-5-8
		c-3.9-1.9-8.1-1.2-9.5,1.4C257.7,171.7,260.4,171.9,262.7,172.1z"/>
	<path class="st1" d="M260.6,177.4c3.7,1.8,7.6,1.3,9.2-0.9v-0.1c0,0-0.7-1.8-4.6-3c-0.8-0.2-1.6-0.3-2.5-0.4
		c-2.3-0.2-5.1-0.4-7.2-3C255,172.6,257.1,175.7,260.6,177.4z"/>
	<path class="st1" d="M266.7,159.1c0.1,0.7,0.2,1.4,0.1,2.1c-0.1,1.3-0.4,2.5-1,3.7c-0.1,0.2-0.2,0.3-0.4,0.5c2-0.2,3.9-2.3,4.6-5.1
		c0.7-3-0.2-5.9-2.1-6.9C266.2,155.3,266.5,157.3,266.7,159.1z"/>
	<path class="st1" d="M264.3,165.3c0-0.1,0.1-0.2,0.2-0.2c0,0,1.2-0.9,1.5-3.9c0-0.6,0-1.3-0.1-1.9c-0.2-1.8-0.5-4,1.1-6.1
		c-2.2-0.2-4.5,2-5.2,5.1S262.1,164.6,264.3,165.3z"/>
	<path class="st1" d="M250.3,157.5c1,2.1,2.8,2.5,4.4,2.8c0.6,0.1,1.2,0.3,1.8,0.6c1.3,0.5,2.4,1.4,3.1,2.5c0.7-1.8-0.5-4.2-2.8-5.8
		S251.5,155.9,250.3,157.5L250.3,157.5z"/>
	<path class="st1" d="M252.6,164c2.4,1.6,5.1,1.6,6.5,0.3c0-0.1-0.1-0.1-0.1-0.2c0,0-0.4-1.3-2.8-2.4c-0.5-0.2-1.1-0.4-1.7-0.5
		c-1.6-0.4-3.5-0.8-4.8-2.8C249.2,160.2,250.4,162.5,252.6,164z"/>
	<path class="st2" d="M74.7,92.2C72.2,85,68.2,81.7,66,79.3"/>
	<path class="st2" d="M75.3,62.7c4.4,6.1-3,12.5,0,15.8c1.9,2.2,8.5,2.3,9.7,7.5c0.6,2.5-2.8,6.7-2.5,12.6"/>
	<path class="st2" d="M47.5,34.5c-0.9-1.7-4.3-7.9-5.9-9.4c12.5-1.6,14.2-13.3,24.9-11.3c9.3,1.7,4,15.8,11.6,17.2
		c3.5,0.6,9.6-4.3,14.6-0.2c3.2,2.7,3,11.6,15,17.8c-12.9-0.9-15.6,9-22.7,8.2c-2.1-0.4-4.1-1.5-5.6-3.1"/>
	<path class="st2" d="M53.5,31.5c-4.9-3.2-10.1-5.8-15.5-7.8"/>
	<path class="st2" d="M88.8,45.2C75.1,35,71.9,43,56.5,32.5"/>
	<path class="st2" d="M42.5,35.5c0,0-2.8-10.5-8.7-18.8c-3.6-5.1-7.6-10-11.7-14.7"/>
	<path class="st2" d="M38.5,35.5c-0.4-1.4-3-10.8-8.3-18.1c-3.7-5.2-9.4-12.3-11.6-14.9"/>
	<path class="st2" d="M158.6,192.5c0,0-19.3-40.5-35.7-55.2c-5.9-5.3-9-19.9-20-29.2c-2.4-2-9.9-4.2-17.2-6c-1.5-0.4-3-0.3-4.4,0.3
		c-3.7,1.5-11.9,6.3-14.2,6.8c-8.1,1.7-5.6,5.7-2.8,6.7c5.8,2.2,11.3,0.2,15-2.5c0.2-0.2,0.6,0,0.8,0.2c4.2,2.6,8.8,4.4,13.7,5.2
		c0.2-0.2-6.7,9.3-0.9,18.4"/>
	<path class="st2" d="M53.5,72.5c0,0.2,0.2,3.8,0.2,4c0.1,2.7,3.4,10.4,4.6,12.2c0.3,0.5,2.9,3.2,3.9,4.8"/>
	<path class="st2" d="M93.4,104.2c0,0-2.4-1-12.3-6.2c0,0-10.2-9.3-13.8-11.7c-1.5-1-3.6-3.8-5.1-6"/>
	<path class="st2" d="M51.3,124.3c5-15.9,17.9-21.9,26.9-23.9"/>
	<path class="st2" d="M39,90.5c0.8,5,1,9.7,1.7,10.6c0.8,1,7.8,8.7,7.8,8.7"/>
	<path class="st2" d="M62.9,147.8c-6.8-6.5-10.5-14.3-13.6-19.3c0,0-3.6-6.7-5-8s-6.3-5.8-8.1-9.7c-1-2.3-2.1-5.5-2.9-8.2"/>
	<path class="st2" d="M114,192c0,0-9.2-27.1-14.5-29.6c-3.8-1.8-14.9-3.7-24.1-7.1"/>
	<path class="st2" d="M44.2,82.3c0.5,1.4,1,2.5,1.2,3.1C46,87,56.3,104.9,58,106.7"/>
	<path class="st2" d="M58.3,88.7c0,0-7.3-10-8.1-12.4c-0.2-0.5-0.4-1.2-0.7-1.8"/>
	<path class="st2" d="M39.7,94.6c3,5.4,9.9,17.3,11.3,18.8"/>
	<path class="st1" d="M67,116.8c0.6,4.5,4.8,7.6,9.3,7c4.2-0.6,7.3-4.3,7.1-8.6l-2.9-1.6l-1.1-0.3l-2.5,1.5c-1,0.6-6.9,2.4-8.5,2
		S67,116.8,67,116.8z"/>
	<path class="st1" d="M62.7,106.6c3.7,1.2,7.7-0.9,8.9-4.6s-0.9-7.7-4.6-8.9c-3.7-1.2-7.7,0.9-8.9,4.6c-1.1,3.4,0.6,7.1,3.8,8.6
		C62.1,106.4,62.4,106.5,62.7,106.6"/>
	<path class="st1" d="M85.7,166.6c3.7,1.2,7.7-0.9,8.9-4.6s-0.9-7.7-4.6-8.9s-7.7,0.9-8.9,4.6c-1.1,3.4,0.6,7.1,3.8,8.6
		C85.1,166.4,85.4,166.5,85.7,166.6"/>
	<path class="st1" d="M110.7,194.6c3.7,1.2,7.7-0.9,8.9-4.6s-0.9-7.7-4.6-8.9s-7.7,0.9-8.9,4.6c-1.1,3.4,0.6,7.1,3.8,8.6
		C110.1,194.4,110.4,194.5,110.7,194.6"/>
	<path class="st2" d="M32.5,107.4C28.6,95.1,17,93.7,15.1,86.8s5.7-9.1,4.3-14.2S7.8,62,10,52.8S26.5,45.4,31.3,34
		c6.1,11,18.3,7.6,18.8,18.2c0.5,9.5-13.2,9.6-11.7,17.2c0.7,3.4,7.5,7.3,5.6,13.5C42.7,86.9,33.8,94,32.5,107.4z"/>
	<path class="st2" d="M31.7,84.2c2.9-7.1-0.8-14.3-2.8-18.8c-7.3-16.3,6.5-15.6,1.3-48.1"/>
	<path class="st2" d="M96.1,81.1c0,0-1.7-5.2-4.7-6.7c3.4-1.3,4.7-6.1,4.7-6.1s1.7,5.2,4.7,6.1C97.8,76.2,96.1,81.1,96.1,81.1z"/>
	<circle class="st2" cx="101.6" cy="61.5" r="2"/>
	<circle class="st2" cx="84.6" cy="68.5" r="2"/>
	<path class="st2" d="M188.9,31c-1.6,0.9-3.4,2.3-3.8,4.4c-0.5,3.1,1.1,7.9,1.9,10.2c0.2,0.4-0.1,0.9-0.5,1.1c-0.1,0-0.3,0.1-0.4,0
		c-1.3-0.2-2.6-0.5-3.9-1.1c-0.6-0.4-1.6,0,0.5,2.9c0,0,0.4,0.7-1.3,0.2c-1-0.3-2-0.7-2.8-1.4c-1.2-0.9-0.8-0.2,0,0.7
		c0.9,1,2,1.7,3.2,2.3c0.4,0.1,0.6,0.1-0.3,0.7s-0.5,1.2,0.7,3.1"/>
	<path class="st2" d="M196.3,48.1c1.7-3.6,3.1-7.3,4.3-11.2c0.3-1.2,0.6-2.4,0.7-3.6"/>
	<path class="st0" d="M168.3,34.8c1.5,3.7-1.5,7.5-1.5,7.5c0.7,11,8.4,15.3,13.4,15.7c11.1,1,13.6-4.9,15.7-9.3l0.3-0.7l-0.2-0.1
		c-2.5-0.1-4.4,2.3-5.2,3.5c-2.2,3.1-5.3,3.1-7.4,3.1c-2.5,0-4.9-0.8-6.9-2.2c-8.2-6-2.8-9.9-4.2-13c-1-1.7-1.9-3.4-2.6-5.2
		c-1.2-3.9,0.7-8.1,4.4-9.7c1.5-0.7,4.4-0.9,5.1,0.5c0.5,1.2-3.2,3-3.2,4c0,2.1,8-2.9,12.6,1.8c6.3,6.3,11,4,12.6,2.8v-0.1
		c0.1-0.7,0.1-1.5,0.1-2.2c0-10.1-8.6-18.2-19.2-18.2S163,21.2,163,31.2c0.2,4,1.5,7.9,3.7,11.2l-0.6-1.2
		C163,33.9,166.8,31.2,168.3,34.8"/>
	<path class="st2" d="M168.9,50.2c0.4,0.4-0.5,5.8-4.1,8.5c0,0,6.3,9.9,14.3,9.9c7.2,0,7-5,7-5c-1.2-1.5-1.8-3.3-1.8-5.2"/>
	<path class="st2" d="M226.6,36.1c7.3,1.5,13,13.8,13,28.8h59c0-16-6.5-29-14.5-29h-57.5"/>
	<path class="st2" d="M298.6,80.8V65"/>
	<path class="st2" d="M223.5,94.9c11.6,0,29.1,0.1,44.3,0.1"/>
	<path class="st2" d="M216.4,41.8c-3.5,5.3-5.8,13.7-5.8,23.2v7"/>
	<polygon class="st2" points="226.6,29.5 226.6,46.9 219.4,38.2 219.4,29.5 	"/>
	<polyline class="st2" points="220.6,29.5 213.4,29.5 213.4,38.2 220.6,46.9 226.6,46.9 	"/>
	<line class="st2" x1="213.4" y1="38.2" x2="219.4" y2="38.2"/>
	<ellipse class="st2" cx="219.6" cy="17" rx="11" ry="2.5"/>
	<path class="st2" d="M193.8,71.7c2.2-0.2,4.6-0.2,7-0.2c13.4,0,24.2,2.5,24.2,5.5s-10.8,5.5-24.2,5.5c-1.7,0-3.3,0-4.9-0.1"/>
	<path class="st2" d="M191.3,98c2.9,0.3,6.2,0.4,9.6,0.4c13.4,0,24.2-2.4,24.2-5.4V77"/>
	<path class="st2" d="M208.6,17v4c0,1.4,4.9,2.5,11,2.5s11-1.1,11-2.5v-4"/>
	<polyline class="st2" points="212.2,23 212.2,25.6 219.6,26.5 227.1,25.6 227.1,22.9 	"/>
	<line class="st2" x1="218.6" y1="26.5" x2="218.6" y2="29.5"/>
	<line class="st2" x1="220.6" y1="26.5" x2="220.6" y2="29.5"/>
	<line class="st2" x1="239.6" y1="65" x2="239.6" y2="95.1"/>
	<ellipse class="st2" cx="201.1" cy="75.5" rx="2.5" ry="1"/>
	<line class="st2" x1="199.4" y1="76.2" x2="199.4" y2="82.2"/>
	<line class="st2" x1="202.6" y1="76.5" x2="202.6" y2="82.5"/>
	<path class="st0" d="M195.8,79h3.6v-2.4c-0.3-0.1-0.5-0.1-0.8-0.1c-0.5,0-1.1,0.2-1.5,0.5c-0.4-0.3-1-0.5-1.5-0.5h-0.3L195.8,79z"
		/>
	<path class="st2" d="M218.4,80.7v-3.2c0-0.6,0.4-1,1-1s1,0.4,1,1v2.7"/>
	<path class="st0" d="M218.4,78.5c0-1-1.9-2-3-2c-0.5,0-1.1,0.2-1.5,0.5c-0.4-0.3-1-0.5-1.5-0.5c-0.3,0-0.7,0.1-1,0.2
		c-0.5-1.1-1.8-1.5-2.9-1c-0.4,0.2-0.8,0.6-1,1c-0.3-0.1-0.7-0.2-1-0.2c-0.5,0-1.1,0.2-1.5,0.5c-0.4-0.3-1-0.5-1.5-0.5
		c-0.3,0-0.6,0-0.8,0.1V79h15.8L218.4,78.5z"/>
	<path class="st2" d="M200.1,116.2c4.6,0.7,9.2,1,13.8,1c3.7,0,7.3-0.2,11-0.6h42.8"/>
	<line class="st2" x1="223.5" y1="94.9" x2="223.5" y2="116.8"/>
	<polyline class="st2" points="274.5,80.9 267.7,80.9 267.7,116.6 277.6,125.5 277.7,94.9 308.6,94.9 298.6,80.9 281.1,80.9 	"/>
	<path class="st2" d="M267.7,80.8c-0.1-0.4,10,14,10,14"/>
	<line class="st2" x1="308.6" y1="114.1" x2="308.6" y2="94.8"/>
	<line class="st2" x1="277.6" y1="125.5" x2="302.6" y2="125.5"/>
	<path class="st0" d="M285.6,89.5c0,0.6-1.1,1-2.5,1s-2.5-0.4-2.5-1c0.3-1.4,1.7-2.3,3.1-1.9C284.6,87.8,285.4,88.5,285.6,89.5z"/>
	<path class="st2" d="M281.7,90.3v1.3l0.2,0.1c0.7,0.5,1.7,0.5,2.4,0l0.3-0.2v-1.3"/>
	<path class="st0" d="M293.6,89.5c0,0.6-1.1,1-2.5,1s-2.5-0.4-2.5-1c0.3-1.4,1.7-2.3,3.1-1.9C292.6,87.8,293.4,88.5,293.6,89.5z"/>
	<path class="st2" d="M289.7,90.3v1.3l0.2,0.1c0.7,0.5,1.7,0.5,2.4,0l0.3-0.2v-1.3"/>
	<path class="st0" d="M301.6,89.5c0,0.6-1.1,1-2.5,1s-2.5-0.4-2.5-1c0.3-1.4,1.7-2.3,3.1-1.9C300.6,87.8,301.4,88.5,301.6,89.5z"/>
	<path class="st2" d="M297.7,90.3v1.3l0.2,0.1c0.7,0.5,1.7,0.5,2.4,0l0.3-0.2v-1.3"/>
	<path class="st0" d="M281.6,82.1c0,0.8-1.7,1.5-3.8,1.5s-3.8-0.7-3.8-1.5s1.7-3.1,3.8-3.1S281.6,81.2,281.6,82.1z"/>
	<path class="st2" d="M275.7,83.3v2.1l0.3,0.2c1.1,0.8,2.6,0.8,3.7,0.1l0.4-0.3v-2.1"/>
	<path class="st0" d="M289.6,84.5c0,0.6-1.1,1-2.5,1s-2.5-0.4-2.5-1c0.3-1.4,1.7-2.3,3.1-1.9C288.6,82.8,289.4,83.5,289.6,84.5z"/>
	<path class="st2" d="M285.7,85.3v1.3l0.2,0.1c0.7,0.5,1.7,0.5,2.4,0l0.3-0.2v-1.3"/>
	<path class="st0" d="M297.6,84.5c0,0.6-1.1,1-2.5,1s-2.5-0.4-2.5-1c0.3-1.4,1.7-2.3,3.1-1.9C296.6,82.8,297.4,83.5,297.6,84.5z"/>
	<path class="st2" d="M293.7,85.3v1.3l0.2,0.1c0.7,0.5,1.7,0.5,2.4,0l0.3-0.2v-1.3"/>
	<circle class="st2" cx="231.7" cy="59.7" r="3.7"/>
	<path class="st2" d="M231.7,56H226c-2,0-3.7,1.6-3.7,3.7c0,2,1.6,3.7,3.7,3.7l0,0h5.7"/>
	<path class="st2" d="M222.7,58h-4.3c-1,0.1-1.8,1-1.7,2c0.1,0.9,0.8,1.6,1.7,1.7h4.5"/>
	<path class="st2" d="M231.2,63.9c1.3,4.2-2.6,6.8-5.5,6.6l0,0h-3.2"/>
	<path class="st2" d="M222.5,61.7c-1.1,0.8-1.8,2.1-1.8,3.4c0.2,2.6,2.4,4.6,5,4.5"/>
	<path class="st2" d="M227.7,63.5c0.4,0.7,0.5,1.2,0.5,2c0,2.7-2.5,5-5.6,5c-2.9,0.1-5.4-2.1-5.5-5c0-1,0.6-2.7,1.2-3.5"/>
	<path class="st2" d="M147.8,61.3c-9.8,3.1-16.8,18.8-19.1,24.9L148,97c0,0,14-20,13.4-26.6c-0.6-5.9-5.9-10.1-11.8-9.5
		C149,61,148.4,61.1,147.8,61.3z"/>
	<path class="st2" d="M172.8,122.1l6.6,4c1.4,0.8,1.2,3.2-2.5,3.1"/>
	<path class="st2" d="M177.1,127.8c0,0-1.7,10.5-12.3,7.4c-2.1-0.6-3.6-2-6.3-3.8c-16.3-7.4-32.4-18.3-33.3-26.3
		c-0.5-5.1,0.6-11.9,3.8-18.5"/>
	<path class="st2" d="M147.2,96.4c-1.5,2.3-2.7,4.8-3.7,7.4c10.8,2.3,18.5,16.3,18.5,16.3c1.7-2.6,5.8-2.4,8.2-1.6s3.9,2.7,5.5,3
		c1.2,0.2,4,1,4,2"/>
	<path class="st2" d="M147.8,61.3c0,0,6.3-3.5,17-2.7"/>
	<path class="st2" d="M176.5,124.3c0,0,5.6-1.6,14.9,1.3c9.3,2.9,16.3,8.9,23.3,5.9c4.5-2,8.6-4.5,12.4-7.6"/>
	<path class="st2" d="M176.5,130c0,0,11.3,0.3,16.5,2.3c5.6,2.2,9.6,5.2,12.6,5.2"/>
	<path class="st2" d="M204.6,123.5c2.1,0.1,11.7,0.2,16-2c5-2.6,8.9-1,11,1c3,3,0,9-5,12"/>
	<path class="st2" d="M230.3,131.4c6.9,37,18,39.6,12.4,60.7"/>
	<path class="st2" d="M186.6,63.5c0,0,20,11,1,41c-6.4,10.1-0.8,20-0.8,20"/>
	<path class="st2" d="M128.2,111.3c0,0-2.6,18.2-1.6,29.2"/>
	<path class="st2" d="M189.2,101.8c4.1,4,10.5,11.4,13.8,20.8"/>
	<path class="st2" d="M126.6,135.5c5.8-2.4,12.2-2.4,18,0c8.6,3.4,12,4,18,2"/>
	<path class="st1" d="M221.1,128.1c0,0-2.8,1.7-3.6,2.1c-2.3,1.2-4.8,1.9-7.4,2.1c-3.5,0.2-11.8-4-11.8-4l-9.6-3.4
		c0.8-0.3,1.7-0.5,2.6-0.4c1.1,0,2.1,0.3,3,1c0.9-0.7,1.9-1,3-1c0.7,0,1.4,0.2,2.1,0.4c0.3-1.4,2-2.4,3.9-2.4s3.6,1,3.9,2.4
		c0.6-0.3,1.4-0.4,2.1-0.4c1.1,0,2.1,0.3,3,1c0.7-0.6,3.3-1,4.5-1C220.3,124.5,221,126.2,221.1,128.1z"/>
	<path class="st2" d="M328,141c-2,2.9-6.7,5-12.2,5c-7.3,0-13.2-3.6-13.2-8v-16.9"/>
	<line class="st2" x1="329" y1="121.1" x2="329" y2="128.2"/>
	<path class="st2" d="M25.5,168.5c-1,2.6-1.8,5.3-2.4,8c-6.8-7-14.9-2.7-18.6-10.2c-3.3-6.6,8-9.9,5.3-15.2c-1.2-2.4-7.2-4-6.9-9
		c0.1-3.2,5.8-7.2,4.1-17.6c5.4,8.4,12.9,5.5,15.6,10.3c0.7,1.5,1,3.2,0.7,4.9"/>
	<path class="st2" d="M21.7,168.3c0.2,3.8,1,7.6,2.2,11.2"/>
	<path class="st2" d="M13.7,137.8c0,13.3,6.2,10.4,6.8,24.9"/>
	<path class="st2" d="M28.1,172.8c-2.9,3.8-5.1,8.1-6.5,12.6c-0.7,2.1-1.3,4.2-1.8,6.1"/>
	<path class="st2" d="M30.4,174.6c-3,3.8-5.2,8.1-6.8,12.7c-0.4,1.3-0.9,2.8-1.3,4.2"/>
	<path class="st2" d="M78.6,143.9c-5.8,8.1-1.3,16-4.7,20.4s-8.3,0.7-10.9,4s-1.2,12.2-7.9,15.1s-12.3-6.9-21.6-4.5
		c4-8.9-3.8-14.9,2.6-20.2c5.7-4.7,12.1,3.8,16.1-0.7c1.8-2,1-8.1,5.8-9.8C61.1,147.1,69.6,149.3,78.6,143.9z"/>
	<path class="st2" d="M64.5,155.2c-5.8,1.5-8.5,7.2-10.4,10.5c-6.8,12.1-13.8,4.5-31.7,22.8"/>
	<path class="st2" d="M235.4,151.8c0,0,3.6-10.9,11.9-18.1c0.3-0.2-0.7-4.2,0.3-5.2s5,4,5,4s14,0,22,3c6.1,2.3,12.8,10.5,18,11
		c1.6,0.1,4.9-3.9,6.8-3c2.2,1-0.7,7.6-0.8,10c-0.3,6.6,9.1,24.6,6,39h-146c-7-24,6-34,4.1-58.2"/>
	<path class="st2" d="M287,191.9c12.9-21.3,1.6-32.3,12.5-48.1"/>
	<path class="st2" d="M360.8,28.1c-1.2,3.6-1.5,7.4-0.9,11.2c0.6,4.6,4.2,7.6,3.6,9.2s-7.4,9.9,2.4,6.8c-0.1,1.4-0.3,2.7-0.8,4
		c-0.3,1,4.1-1.4,5.9-2.3c0.9-0.4,0,2.8-5,4.8c-0.7,0.3,2.9,1.3,2.9,1.3s-5.2,4.9-0.2,7.3"/>
	<path class="st2" d="M318.3,90.8c1.7,0.2,4-0.2,5.5-1c1.2-0.8,2.3-1.8,3.2-2.9c0.3-0.5,0.9-1.8-0.4-2.3s-4.9,2.5-4.9,2.5"/>
	<path class="st2" d="M323.3,85.6c-6.4-0.8-5.5,6.3-5.5,6.3l0.1,0.6"/>
	<path class="st2" d="M326.1,88.1c0,0,0.5,0.3,0.4,3.1v0.5"/>
	<path class="st2" d="M317.8,90.7c-1.1-0.3-1.9-1.2-2-2.4c0-1.8,0.8-3.5,2.3-4.5"/>
	<path class="st2" d="M315.3,92.9c0,0,9.9-1.6,12.7-1.1c6.1,1.2,6.1,11.8,1.5,13.4c-3.9,1.1-7.9,1.5-11.9,1.4c-0.5,0-1,0.1-1.5,0.5
		l-1.2,1.1"/>
	<path class="st2" d="M315.8,88.6c0,0.6-0.7,3,0.8,3.9"/>
	<path class="st2" d="M324.4,89.6c0,0,3.5-0.1,4-0.1c0.7,0,1.3,0.7,1.3,1.4c0,0,0,0,0,0.1c-0.1,1.1-1.4,0.9-1.4,0.9"/>
	<path class="st2" d="M324.8,85c-1.1-0.2-2.3-0.2-3.4-0.3c-1.6,0-3.2-0.6-4.4-1.7c0,0-1.2-1.2-0.6-2.2s2.7,0.8,4.3,0.8
		s5-0.8,6.7-0.7c7.9,0.6,9.8,13.3,5.3,17"/>
	<path class="st2" d="M314.9,116.6c0,0-0.1-7.8,0-9.9c0-0.4,1.2-1,1.2-1c2.1-0.7,3.6-3.3,3.6-6.3c0-3.6-2.2-6.5-4.9-6.5
		s-4.9,2.9-4.9,6.5c0,3,1.5,5.5,3.6,6.3"/>
	<path class="st2" d="M319.5,100.7c0,0-5.3-0.1-5.8,4v11.8"/>
	<path class="st2" d="M338,129.1l-9.9-0.9c-2.1-0.2-3.7,2.4,0.2,5.1"/>
	<path class="st2" d="M334.7,124.6c0.2-1.9,1-1.1,1-1.1c0.4,0.5,1.1,2.5,2.4,3.1c1.9,0.9,4.7-0.6,7.6,0.9c2,1,3.2,2,3,6
		c0,0,26.1-5.8,39,0c0,0,2-23.1,4-35c1-6,3.9-16.5,13-18c2.2-0.4,4.5-0.1,6.6,0.6"/>
	<path class="st2" d="M329,125.3c1.1-0.8,2.6-0.7,3.6,0.2c1,1,0.5,3,0.5,3"/>
	<path class="st2" d="M328.6,123.5c0,0,3.5-1.5,5,0c1.2,1.4,1.9,3.1,2,5"/>
	<path class="st2" d="M329.1,131.8c0,0-5.9,13.7,7.5,13.7c4,0,5.8-1.2,10-1c22.5,4.6,47.3,11.5,53.5,3.3
		c9.6-12.8,18.1-43.7,15.5-59.1"/>
	<path class="st2" d="M368.8,131c0-4.2,0-7-0.1-7.5c-0.8-3.6-8.1-8.1-8.1-14c0-5,3.9-8.7,7.2-11.9"/>
	<path class="st2" d="M371.3,70.7c0.9,3.9,0.3,7.4-0.2,8c-3.5,3.8-14.5-4.2-19.5,13.8c-1.3,4.8-9,7.8-9,14c0,7,5.3,8,5,11
		c-0.4,3.9-0.6,7.4-0.8,10.4"/>
	<path class="st2" d="M371.1,78.7c0,0-2,4.5,3.2,4.7c4.9,0.2,16.9-8.3,18.5-9.5"/>
	<path class="st2" d="M342.4,126.8c0.9-0.3,3.4-3,4.8-4.8"/>
	<path class="st2" d="M322,106.5c-0.9,2.2-1.4,4.6-1.4,7"/>
	<path class="st0" d="M384.2,61.9c0-1,0.3-2.1,0.8-3c0.9-1.9,2.8-4.7,3.7-7.5c1.7-5.1,2.3-7.8,0.1-8.6s-3.3,2.4-3.9,3.5
		c-0.9,1.4-1.8,2.5-3.7,1.7c-3.2-1.5,3.6-12.5-14.5-12.5c-4,0-5.7-5.2-5.8-7.4l-0.1-0.1c3.3-3.9,8.3-7.6,14-7.6c10.6,0,20,5.3,20,20
		c0,5,2.2,7.1,5,8s7,2,8,7c1.5,7.3-1.9,11,0.1,13.8c3.2,4.3,16.6,3.9,7.9,20.2l-0.1,0.1c-0.3-2.6-1.3-5-2.9-7.1
		c-5.9-6.8-19-7.9-22.9-9.8C388,71.8,385.4,67.5,384.2,61.9"/>
	<path class="st2" d="M384.2,62c-4.6,5-11.3,9.6-15.8,8.5c-9.8-2.5-16-26.5-9.7-39.5c0.5-1.1,1.2-2.1,2-3"/>
	<path class="st2" d="M335.4,123.4c0.9-1.5,1.6-3.2,2.2-4.9c2.6-7.8-2.5-25.8-2.5-25.8"/>
	<path class="st2" d="M337.9,106c4.6-10.2,13.3-18.2,17.5-21.7"/>
	<path class="st2" d="M366.6,80c-5,2.5-9.5,16.3-9.5,16.3l23,2.2c0,0,3.5-14,15-24"/>
	<path class="st2" d="M361.6,80.5c-5,5-9,14.9-9,14.9l-3.1,0.8"/>
	<path class="st2" d="M399.5,75.6c-12.8,15-12.4,24.4-12.4,24.4l3.9,2.8"/>
	<path class="st2" d="M343.2,144.7c-0.6,1.9-1.2,4.1-1.8,7.2"/>
	<path class="st2" d="M298.7,153.6c7.5-2.8,15.4-4.2,23.4-4.1c28.4,0,51.5,16,51.5,37c0,1.7-0.3,4.4-1,6h39c0,0,2-20-0.4-33.1
		s-7.2-17.9-7.2-17.9"/>
	<ellipse class="st2" cx="337" cy="190.2" rx="22.2" ry="13"/>
	<ellipse class="st2" cx="337" cy="190.2" rx="9.4" ry="5.5"/>
	<path class="st0" d="M439.1,145c2.1,0.7,4.9-6.8,9.4-4.2c5.6,3.2-8.1,21.5-6.4,23s4.6-8.7,9.4-5.6c5.7,3.8-0.8,19.3,3.2,34.3h-43
		c0,0,5.5-33.5-7.5-50.5c0.5-1.4,1.2-3.6,2-4.9c0.4,2.9,2.9,2.9,2.2-2.1c0-0.2-0.2-0.9-0.4-1.9l3.2-9c0.7,3.7,0.9,8.9,3.1,7.9
		s-4.7-16.7,0-18c4.2-1.2,2.1,12,5.9,11.7s3.2-7.4,3.1-8.7c-1-12,3.5-14,6-14c8,0,4.9,19,5,23.4c0.2,6,5,5.2,5-4.4c0-9,10.9-7.7,5,6
		C442,133,436.1,144,439.1,145z"/>
	<path class="st1" d="M472.9,31.2c0,0,1.9,1.6,3.4-1.1c0,0,2,4.1,4.8-0.1c0,0,2.8,5,7.8,0c0,0,1.3,4.7,5.9,1.3c0,0,0.2,3.2,2.2,3.1
		c0.5,0.6,0.7,1.5,0.4,2.2c-0.5,1.2-1.1,3.4-1.1,3.4s0.7,0.8,1.8-0.8s2.8-4,3.5-3.7s0,0.9,0.3,1.3c0.7,1.4-3.1,5.1-3.1,5.1l0.7,1.8
		l-4.3,4.8c0,0,10.4,5.8,12.5,8.2c0,0,6.9-4.6-0.6-16.5c-2-3-1.7-3.4-2.7-6.5c-0.5-3,1.8-3.8-1.2-9.4c1.7-0.5,4.5-6.4-2-9.2
		c-2.8-0.5-5.5,1.2-6.2,3.9c0,0-12.8-2.8-19.7,4.9C473.2,25.8,472.4,28.6,472.9,31.2z"/>
	<g>
		<g>
			<g>
				<line class="st2" x1="464.8" y1="62" x2="469.4" y2="60.9"/>
				<line class="st2" x1="464.4" y1="66.4" x2="473.1" y2="64.3"/>
				<line class="st2" x1="464" y1="70.9" x2="473.3" y2="68.6"/>
				<line class="st2" x1="463.3" y1="75.2" x2="475" y2="72.2"/>
				<line class="st2" x1="462.6" y1="80" x2="468.9" y2="78.4"/>
				<line class="st2" x1="461.4" y1="84.6" x2="467.9" y2="83"/>
				<line class="st2" x1="459.4" y1="89.5" x2="469.1" y2="87.1"/>
			</g>
		</g>
	</g>
	<path class="st2" d="M485.2,55c4.4-0.7,11.7-7.2,13.7-10.1c2.7-3.8,5.6-8,5.6-16.7c0-5.7-7.7-10-16.5-9.5s-15.4,5.4-15.4,11.2
		c0.5,4.4,1.3,8.8,2.4,13c0.5,1.6,1.1,3.1,1.9,4.6"/>
	<path class="st2" d="M483.6,49.6c0,0,2.3-0.6,2.8-1.5c-1.2-0.3-4.2,0.1-3.7-0.8c0.4-1,0.6-2,0.6-3c-1,0.8-2.3,1-3.5,0.5
		c0,0,1-5.3,0.6-8.2c-0.1-1-0.5-3.4-0.8-5.1"/>
	<path class="st2" d="M473.1,31.6c0.3,0,2.8,0.3,3.3-1.3c0,0,1.1,2.4,3.2,1.1c0.8-0.5,1.4-1.2,1.7-2c0.7,1.5,2.1,2.4,3.8,2.4
		c1.9-0.1,3.8-2,3.8-2c0.2,1.4,1.3,2.4,2.7,2.4c1.4,0.3,2.8-0.2,3.8-1.1c0,0-0.3,3.2,1.6,3.3s-0.5,5.7-0.4,5.8
		c0.4,0.2,2.2-2,3.1-3.5s3.7-2.5,1.7,1.8c-0.6,1.3-1.5,2.6-2.5,3.6l0.7,1.4"/>
	<path class="st2" d="M495,19.2c0.6-2.8,3.4-4.6,6.2-3.9c2.8,0.6,4.6,3.4,3.9,6.2c-0.2,1.1-0.9,2.1-1.7,2.8"/>
	<path class="st2" d="M483.1,63.2c-0.3,1.3-3.8,1.4-7.6,0.4s-7.1-3-6.7-4.3s4.1-1.3,7.9-0.3S483.4,61.9,483.1,63.2"/>
	<path class="st2" d="M468.8,59.3l3.2-10.8c0.3-1.3,3.7-1.5,7.4-0.5s6.5,2.9,6.2,4.1l-2.5,11.1"/>
	<path class="st2" d="M460.8,54.1c1.9,1.6,4.5,2.2,6.9,1.4c0.8-0.1,1.3,0,1.9,0.5"/>
	<path class="st2" d="M468.4,55.5c0,0.8-0.3,1.5-0.7,2.1c-0.7,1-1.6,1.8-2.7,2.3c-2,20.8-3.1,25.9-6.5,29.5"/>
	<path class="st2" d="M504.2,32.8c1.3,9.6,11.3,13.6,3.8,24.2"/>
	<path class="st2" d="M473.3,63.1c-0.3,3.6-0.2,8.3,1.7,9.1c6.1,2.4,23.8-14.5,23.8-21.6"/>
	<path class="st2" d="M471.7,49c-0.2-1.2-0.9-1.9-2-2.5c-2.1-1.4-8.9-2.7-10.1,0.2s-2.7,7.3-2,11.8l-0.5,1.4l-0.3,0.6
		c0,0-13.3,21.1-7.8,30.3"/>
	<path class="st2" d="M495.6,48.7c0,0,15.9,7.9,17.4,16.7c1.1,6.2,0.7,11-8.5,23.6s-14,15-25.4,13.3c-6.4-0.9-12.7-2.6-18.6-5.1
		c0,0-7.2,1.5-13-1.6c-0.7-0.4-1.2-1.1-1.1-1.9c0.1-0.8,0.6-1.6,1.3-2c0.1,0,0.1-0.1,0.2-0.1c2.5-1.4,8.5-5.2,14.8,0.5
		c3.3-0.9,19.7-0.2,19.7-0.2l0.9-0.1c0,0,5.7-5.7,7.3-9.3s5.1-29.3,20-21.8"/>
	<path class="st2" d="M490.7,82.3c0,0,6.7,6,13.3,7"/>
	<path class="st2" d="M475,72.2c0,0-7,4-7,10.1c0,4.2,2.8,6.8,2.8,8.8"/>
	
		<ellipse transform="matrix(0.9997 -2.286270e-02 2.286270e-02 0.9997 -0.7581 10.8877)" class="st3" cx="475.8" cy="38.6" rx="4.1" ry="2.3"/>
	
		<ellipse transform="matrix(0.9997 -2.286270e-02 2.286270e-02 0.9997 -0.737 11.1344)" class="st3" cx="486.6" cy="37.8" rx="4.1" ry="2.3"/>
	<path class="st2" d="M479.8,38.5c0,0,0.2-1.8,2.7-0.6"/>
	<line class="st2" x1="490.5" y1="37.3" x2="499.6" y2="36.8"/>
	<path class="st2" d="M495.9,165.2c-10.8,3.6-22.1,5.4-33.5,5.3c-4.4,0-8.8-0.3-13.2-0.8"/>
	<path class="st2" d="M497.6,97.4c17.6,6.4,29.8,17.4,31.5,30.3"/>
	<path class="st2" d="M415.9,102.7c8.5-5,18.6-8.3,30.6-10"/>
	<path class="st2" d="M511.3,78.3c0,0,5.3,21.2,1.9,26.6"/>
	<path class="st1" d="M492.6,118.8c0,0.9-2.2,1.6-4.9,1.6s-4.9-0.7-4.9-1.6s2.2-1.6,4.9-1.6S492.6,117.9,492.6,118.8z"/>
	<path class="st2" d="M497.1,118.5c0,5.8-11,10.5-24.5,10.5s-24.5-4.7-24.5-10.5s11-10.5,24.5-10.5S497.1,112.7,497.1,118.5z"/>
	<rect x="455.7" y="118.3" class="st2" width="24" height="1"/>
	<polygon class="st2" points="479.8,116 455.6,116 467.5,110.9 	"/>
	<polyline class="st2" points="455.6,116 455.6,118.1 479.8,118.1 479.8,116 	"/>
	<rect x="455.6" y="120.1" class="st2" width="24.2" height="2"/>
	<path class="st2" d="M492.9,118.3c0,1.2-2.3,2.2-5.1,2.2s-5.1-1-5.1-2.2s2.3-2.2,5.1-2.2S492.9,117.1,492.9,118.3z"/>
	<path class="st2" d="M492.7,118.9c-0.8,2.1-2.7,3.5-4.9,3.7c-2.1,0-3.9-1.6-4.9-3.6"/>
	<path class="st1" d="M32,197.8c-0.4-1.8-1.7-3.3-3.3-4.1c-1.5-0.7-3.1-0.8-4.7-0.2c-1.5,0.6-2.8,1.8-3.4,3.3
		c-0.3,0.6-0.6,2.2-0.8,2.3c-0.3,2.7,1.2,5.2,3.6,6.4c0.2,0.1,0.5,0.2,0.7,0.3c3.3,1.1,6.9-0.7,7.9-4c0.4-1.2,0.4-2.5,0.1-3.7
		C32.1,197.9,32,197.8,32,197.8z"/>
	<path class="st1" d="M24.3,187.7c0-0.1,0.6-1.6,0.7-1.7c-0.2-0.2-1,1.1-1.3,1c-3.1-1.5-6.9-0.2-8.4,3c-1.5,3.1-0.2,6.9,3,8.4
		c0,0,0.1,0,0.1,0.1c0.2,0.1,0.4,0.2,0.6,0.2v-0.1c0.1-0.8,0.3-1.6,0.6-2.3c0.8-1.9,2.4-3.3,4.3-4C23.6,190.7,23.7,189.1,24.3,187.7
		z"/>
	<path class="st1" d="M32.7,186c-2.2-1-4.8-0.7-6.6,0.9c-0.3,0.4-0.6,0.8-0.8,1.3c-0.6,1.2-0.7,2.6-0.3,3.9c1.4-0.3,2.9,0,4.2,0.6
		c1.9,0.9,3.3,2.6,3.8,4.7c1.2-0.6,2.2-1.7,2.8-2.9C37.2,191.2,35.9,187.5,32.7,186L32.7,186z"/>
	<path class="st2" d="M502,166.5c-6.3,2.9-10.5,8.5-10.5,14.8l0.1,1.7l0.9,9.4h39.1l1.2-11.2c0-6.3-4.2-11.9-10.5-14.8"/>
	<path class="st2" d="M523.6,164.5c0,0-0.7-9.1,4.4-10.8c5.5-1.9,5.8-6.1,3.9-9.3c-2.2-3.8-1.4-5.5,0-7.2c7.2-8.6,0.1-13.3-3.9-8.3
		c-2.7,3.3-3.3,6.7-5.7,6.1c-6.6-1.8-6.2,5-5,8.5c1.2,3.7-1.5,6.2-4.2,5.8c-1.7-0.3-3.7-0.6-4,1.5"/>
	<path class="st2" d="M514.4,164.3c3.5-5.6,3.1-8.8-0.3-11.1c-1.7-1.1-8.4-2.2-6.5-6.6s0-8.8-6-8.4c-2.2,0.1-4.1-0.2-6.8-5.8
		s-11.1,0.9-3,8.7c1.7,1.6,2.6,3.2,0.8,7.2c0,0-3.1,5.5,3.6,6s3,4.5,2.5,6c-1,3.6,2.9,3.9,6.4,5"/>
	<line class="st2" x1="508.4" y1="163.9" x2="497" y2="142.3"/>
	<line class="st2" x1="516.5" y1="155.9" x2="526.2" y2="138.3"/>
	<path class="st2" d="M502.9,138.2c0,0-2.5-1.2-1.6-4.7c1-3.9,6.6-1.7,5.7-5.4c-1-4-0.7-10.7,3.5-10.6s3.6,5.5,3.6,7.8
		c0,1.7-0.1,4.1,4.7,5.5c2.6,0.8,1.2,3.8,1.2,3.8"/>
	<line class="st2" x1="510.5" y1="128.9" x2="511.4" y2="148.9"/>
	<path class="st2" d="M526.8,167.7h-29.2c-1,0-1.7-0.8-1.7-1.7v-0.2c0-1,0.8-1.7,1.7-1.7h29.2c1,0,1.7,0.8,1.7,1.7v0.3
		C528.6,167,527.8,167.7,526.8,167.7"/>
	<path class="st0" d="M497.7,164h29.2c1,0,1.7,0.8,1.7,1.7v0.3c0,1-0.8,1.7-1.7,1.7h-29.2c-1,0-1.7-0.8-1.7-1.7v-0.3
		C495.9,164.8,496.7,164,497.7,164z"/>
	<line class="st2" x1="314.8" y1="192.5" x2="304.6" y2="192.5"/>
	<line class="st2" x1="372.6" y1="192.5" x2="358.9" y2="192.5"/>
	<ellipse transform="matrix(0.1793 -0.9838 0.9838 0.1793 101.6325 445.6979)" class="st4" cx="318" cy="161.9" rx="2.7" ry="3.8"/>
	<path class="st2" d="M321.8,162l18.4,2.8c0.2,0,0.4,0.2,0.3,0.5l0,0l-0.3,1.4c0,0.2-0.2,0.4-0.4,0.3l0,0l-18.2-3.9"/>
	<path class="st2" d="M314.9,113.1h0.9c7.3,0,13.2,3.6,13.2,8s-5.9,8-13.2,8s-13.2-3.6-13.2-8c0-4,4.8-7.2,11-7.9"/>
	<line class="st2" x1="394" y1="151.2" x2="394" y2="192.2"/>
	<path class="st1" d="M53.1,40.1c-1.7-0.5-3.5-0.3-5,0.6c-1.6,0.9-2.8,2.4-3.3,4.2c0,0,0,0,0,0.1c1.6,0.6,3,1.7,4.1,3.1
		c1,1.7,1.5,3.8,1.3,5.8h0.2c3.2,0.5,6.4-2.3,7.2-5.1C58.8,45,56.7,41.2,53.1,40.1L53.1,40.1z"/>
	<path class="st1" d="M53.8,54.7c-0.2,3.2,1.7,6.1,4.8,7c3.6,1.1,7.4-0.9,8.5-4.5s-0.9-7.4-4.5-8.5l0,0c-1.1-0.3-2.3-0.4-3.5-0.2
		c0,0.2-0.1,0.4-0.2,0.5C58.1,51.6,56.2,53.6,53.8,54.7z"/>
	<path class="st1" d="M42.4,63c0.1,0,0.3,0.1,0.3,0.2c1.1,1.3,2.5,2.4,4.1,3c0.8,0.2,1.5,0.3,2.3,0.3c2.8-0.4,5.1-2.3,6-5
		c-1.9-1.6-2.9-3.9-2.9-6.3c-0.7,0.1-1.5,0.1-2.2,0c-0.4,1.1-2.4,3.1-3.1,3.9S45.4,61,45.4,61c-0.8,0.5-1.6,1-2.3,1.6L42.4,63z"/>
	<path class="st1" d="M63.6,70.6c0.8-2.6,0-5.4-2.1-7.2c-1.1,0.1-2.3,0-3.4-0.3c-0.3-0.1-0.7-0.2-1-0.4c-0.2-0.1-0.4-0.2-0.6-0.3
		c-1.1,2.7-3.3,4.7-6.1,5.4C50,71,51.9,74,55,75C58.6,76.1,62.4,74.1,63.6,70.6L63.6,70.6z"/>
	<path class="st1" d="M70.6,57.6c-0.7-0.2-1.4-0.3-2.1-0.3c0,0.1-0.1,0.2-0.1,0.3c-0.8,2.5-2.7,4.5-5.3,5.4c1.7,1.9,2.4,4.5,2,7
		c3.3,1.9,7.4,0.7,9.3-2.5c0.2-0.4,0.4-0.9,0.6-1.4C76.2,62.5,74.2,58.7,70.6,57.6L70.6,57.6L70.6,57.6z"/>
	<path class="st1" d="M48.8,68c-0.8,0-1.6-0.1-2.4-0.4c-0.3-0.1-0.6-0.2-0.9-0.4c-1.5-0.7-2.9-1.8-3.9-3.1c-0.1-0.2-0.2-0.4-0.2-0.5
		v-0.1c-0.8,0.8-1.6,1.6-2.2,2.6c-0.8,1.2-1,1.4-0.8,3.5c0.1,2.5,3.7,6.3,4.4,7.2c0.1,0.2,0.2,0.4,0.2,0.7c3,0.3,5.9-1.1,7.6-3.6
		C49.3,72.2,48.7,70.1,48.8,68z"/>
	<path class="st1" d="M69.2,45.8c-0.4-2.2-1.9-4-3.9-4.9c-2.4-1-5.3-0.6-7.2,1.1c1,1.5,1.4,3.2,1.3,5c0.4-0.1,0.8-0.1,1.2-0.1
		c3,0,5.8,1.6,7.3,4.3C69,49.7,69.5,47.7,69.2,45.8z"/>
	<path class="st1" d="M74.2,46.7c-1.1-0.3-2.3-0.4-3.5-0.2c0.2,2.3-0.7,4.6-2.3,6.3c0.3,1,0.4,2,0.3,3.1c0.8,0,1.5,0.1,2.2,0.4
		c2.1,0.7,3.9,2.1,4.9,4.1l0,0c1.5-1,2.6-2.5,3.2-4.2C80.4,52.1,78.2,47.9,74.2,46.7z"/>
	<path class="st1" d="M66.1,72c-0.3-0.1-0.7-0.2-1-0.4c-0.1,0-0.2-0.1-0.3-0.1c-1.1,3-3.8,5-7,5.3c0.8,2.3,2.6,4,4.9,4.8
		c4,1.2,8.2-1,9.5-4.9c0.5-1.6,0.5-3.4-0.2-5C70.2,72.5,68.1,72.6,66.1,72z"/>
	<path class="st1" d="M44,44c0-2,1.4-3.5,3.3-4.6c-0.7-2.4-2.3-4.3-4.1-4.9c-3.5-1.3-7.4,0.4-8.8,3.8c0,0.1-0.1,0.1-0.1,0.2
		c0.3,0.3,0.6,0.6,0.9,1c0.8,1,5.8,3.2,6.5,3.7C42.4,43.5,43.2,43.8,44,44z"/>
	<path class="st1" d="M48.7,38.8c1.6-0.6,3.3-0.6,4.9-0.1c1.3,0.4,2.6,1.2,3.5,2.2c0.7-0.6,1.4-1,2.2-1.3c0.5-1.8,0.2-3.7-0.7-5.3
		c-2-3.6-6.6-5-10.2-2.9c-1.2,0.7-2.2,1.6-2.9,2.8C47,35.3,48.1,36.9,48.7,38.8z"/>
	<path class="st1" d="M26,163.6c0.6,1.3,1.6,2.4,3,2.9s2.9,0.5,4.3-0.1h0.1c-1.2-3,0-6.4,2.7-8l-0.1-0.1c-1.3-2.2-4.7-2.8-6.9-1.9
		C26.2,157.5,24.9,160.8,26,163.6L26,163.6z"/>
	<path class="st1" d="M34.8,155.7c2.5-1.8,3.1-5.2,1.3-7.7s-5.2-3.1-7.7-1.3s-3.1,5.2-1.3,7.7c0.3,0.4,0.7,0.8,1.1,1.1l0.4-0.2
		C30.6,154.5,32.9,154.7,34.8,155.7z"/>
	<path class="st1" d="M45.9,158.4c0-0.1,0-0.2,0-0.3c0.3-1.4,0.2-2.8-0.3-4.1c-0.3-0.6-0.6-1.1-1-1.6c-1.7-1.5-4.1-1.9-6.2-1.1
		c0,2-0.9,3.8-2.5,5.1c0.4,0.4,0.8,0.8,1.1,1.3c1.3-0.2,2.7-0.2,4,0c0.8,0.1,2,0,2,0c0.7,0.3,1.5,0.5,2.2,0.6L45.9,158.4z"/>
	<path class="st1" d="M39.7,141.3c-2,0.8-3.4,2.8-3.4,5c0.7,0.6,1.2,1.4,1.6,2.3c0.1,0.3,0.2,0.6,0.3,0.8l0.1,0.6
		c2.2-0.7,4.7-0.3,6.6,1c2.2-1.4,3.1-4.3,2.1-6.7C45.7,141.5,42.5,140.2,39.7,141.3L39.7,141.3z"/>
	<path class="st1" d="M27.9,143.6c0.2,0.5,0.5,1,0.9,1.4l0.3-0.1c2-0.8,4.3-0.6,6.1,0.5c0.3-2.1,1.5-3.9,3.3-4.9
		c-0.1-0.4-0.2-0.8-0.3-1.1c-1.1-2.9-4.2-4.3-7.1-3.3c-2.9,1.1-4.3,4.2-3.3,7.1C27.8,143.4,27.9,143.5,27.9,143.6z"/>
	<path class="st1" d="M45.7,151.9c0.4,0.5,0.8,1.1,1,1.7c0.1,0.2,0.2,0.5,0.2,0.8c0.3,1.3,0.4,2.7,0.1,4.1c0,0.2-0.1,0.3-0.3,0.4
		h-0.1c0.9,0.1,1.8,0.2,2.8,0.1c1.2-0.1,1.4-0.1,2.6-1.3c1.5-1.4,2-5.6,2.2-6.5c0.1-0.2,0.2-0.3,0.3-0.5c-1.4-2-3.7-3.2-6.2-2.9
		C48.1,149.3,47.1,150.9,45.7,151.9z"/>
	<path class="st1" d="M21.3,150.6c-1.1,1.4-1.5,3.3-1,5c0.6,2.1,2.3,3.6,4.5,4c0.4-1.4,1.2-2.5,2.4-3.4c-0.2-0.2-0.5-0.5-0.7-0.7
		c-0.4-0.5-0.8-1.1-1-1.7c-0.6-1.6-0.6-3.4,0-5C23.8,148.7,22.3,149.4,21.3,150.6z"/>
	<path class="st1" d="M19.2,147c0.4,0.9,0.9,1.7,1.7,2.3c1.4-1.3,3.3-2,5.1-1.8c0.5-0.7,1.1-1.3,1.8-1.8c-0.4-0.5-0.7-1-0.9-1.6
		c-0.7-1.6-0.7-3.5,0-5.1l0,0c-1.4-0.4-2.9-0.4-4.3,0.1C19.4,140.3,17.9,143.9,19.2,147z"/>
	<path class="st1" d="M39.3,139c0.1,0.3,0.2,0.6,0.3,0.8l0.1,0.2c1.6-0.5,3.3-0.5,4.8,0.2c0.8,0.3,1.5,0.8,2.2,1.5
		c1-1.7,1.2-3.7,0.5-5.5c-1.3-3.1-4.9-4.6-8-3.3c-1.3,0.5-2.3,1.5-3,2.7C37.5,136.2,38.6,137.5,39.3,139z"/>
	<path class="st1" d="M33.2,167.3c-1.2,1-3,0.9-4.6,0.3c-1.1,1.5-1.4,3.3-0.9,5.1c1,2.9,4.1,4.5,7,3.6c0.1,0,0.1,0,0.2,0
		c0-0.3,0.1-0.7,0.2-1.1c0.2-1-1-5.3-1-5.9C33.8,168.6,33.5,167.9,33.2,167.3z"/>
	<path class="st1" d="M27.5,167.1c-1.2-0.7-2.1-1.7-2.6-3c-0.4-1.1-0.6-2.2-0.5-3.3c-0.7-0.1-1.4-0.4-2-0.7c-1.4,0.6-2.5,1.8-3,3.2
		c-1.2,3.1,0.3,6.7,3.4,7.9c1,0.4,2.2,0.5,3.3,0.3C26.1,169.9,26.6,168.4,27.5,167.1z"/>
</g>
<path class="st1" d="M316,116.5c-0.4,0-0.7,0-1.1,0h-0.1c0,0,0,0,0,0.1v0.1c0,0.1,0,0.1,0,0.2l-0.1-0.2c0,0-0.1,0-0.2,0
	c-0.5,0.3-2.1,1.7-1.3,2.3c1.5,1.2,4.4,0.2,6.8,0.5c3.2,0.4,5,4.2,1.2,5.4c-2.8,0.8-5.7,0.9-8.5,0.1c-0.3-0.1-0.4-0.3-0.3-0.6
	c0.1-0.2,0.2-0.3,0.5-0.3c7.6-0.2,7.6-0.6,7.6-1.6c0-2.5-10,0-11.7-0.8c-1.4-0.7-0.4-2.1,1.2-2.9c1.4-0.6,2.4-1.2,3.8-1.7l0.1-0.3
	c0,0,0,0,0-0.1v-0.1h-0.2c-5.5,0.6-9.8,3.2-10.7,6.6c1.5,3.4,6.6,5.9,12.7,5.9c6.6,0,12-2.9,13-6.7C327.3,119,322.1,116.5,316,116.5
	z"/>
</svg>
