<svg xmlns="http://www.w3.org/2000/svg" viewBox="0 0 98 80"><defs><style>.cls-1{fill:none;stroke:#253948;stroke-linecap:round;stroke-linejoin:round;stroke-width:1.25px;}.cls-2{fill:#253948;}</style></defs><g id="Layer_1" data-name="Layer 1"><path class="cls-1" d="M89.46,42.83,77.77,43a.37.37,0,0,1-.42-.33V35.19c0-.21.26-.37.58-.37h8.3"/><path class="cls-1" d="M66,58.3h7.68"/><path class="cls-1" d="M85.17,58.3h5a.78.78,0,0,0,.85-.68v-11a.48.48,0,0,0,0-.2L85.64,32.1a.85.85,0,0,0-.81-.49H67.17"/><path class="cls-1" d="M22.57,58.3H65.45a.83.83,0,0,0,.83-.83V26.26a.83.83,0,0,0-.83-.83H5.83a.83.83,0,0,0-.83.83V57.47a.83.83,0,0,0,.83.83H11.1"/><circle class="cls-1" cx="79.44" cy="59.46" r="5.33"/><circle class="cls-1" cx="16.9" cy="59.46" r="5.33"/><path class="cls-1" d="M91,54.36H87a.66.66,0,0,1-.67-.64V50.57a.65.65,0,0,1,.67-.64h4"/><path class="cls-2" d="M32.18,43.83a20.6,20.6,0,0,1-3.69-1.63,17,17,0,0,1-5.41-4.91,7.89,7.89,0,0,1-.73-1.38c-2.09,3.55,0,9.47,4.83,13.58,5.07,4.29,11.28,5,14,1.67C39.21,46.44,35.48,45.06,32.18,43.83Z"/><path class="cls-2" d="M36.76,37C32,33,26.3,32.05,23.37,34.67a.85.85,0,0,1,0,.17c0,.07.52,2.93,5.72,6.16a19.69,19.69,0,0,0,3.43,1.51c3.2,1.18,7.13,2.64,9.41,7.23C43.37,46.15,41.28,40.78,36.76,37Z"/><path class="cls-1" d="M42.62,37.43S48,32.55,46.4,26.79s-5.21-9.85-3.54-13.21"/><path class="cls-1" d="M55,31.68A9.9,9.9,0,0,0,55,26.73c-1.59-5.76-4.84-9.66-3.5-14.26"/><path class="cls-1" d="M52.08,37.47a14.5,14.5,0,0,0,3-5.79"/><path class="cls-1" d="M48,37.22c0,.21,5.11-5.55,1.74-14.15-3-7.52-5.92-13-1.69-17.77"/></g></svg>