<?xml version="1.0" encoding="utf-8"?>
<!-- Generator: Adobe Illustrator 26.0.1, SVG Export Plug-In . SVG Version: 6.00 Build 0)  -->
<svg version="1.1" id="Layer_1" xmlns="http://www.w3.org/2000/svg" xmlns:xlink="http://www.w3.org/1999/xlink" x="0px" y="0px"
	 viewBox="0 0 80 80" style="enable-background:new 0 0 80 80;" xml:space="preserve">
<style type="text/css">
	.st0{fill:#253948;}
	.st1{fill:none;stroke:#253948;stroke-width:1.25;stroke-linecap:round;stroke-linejoin:round;}
</style>
<g id="Layer_1_00000002350112667564140640000015168709019274935970_">
	<path class="st0" d="M35.6,45.5c-1.7,1.5-3.2,3.1-4.5,4.9c-2.4,3.2-3.9,6.9-4.6,10.8c-0.1,0.8-0.1,1.7-0.1,2.5
		c-5.9-3.7-7.3-13.7-2.8-23c4.6-9.7,13.7-15,20.4-12.1C44.5,36.9,39.8,41.5,35.6,45.5z"/>
	<path class="st0" d="M47.9,52.3c-4.3,9-12.5,14.3-19,12.5c0-0.1,0-0.2-0.1-0.3c0-0.1-1.4-4.6,4.2-12.9c1.2-1.7,2.6-3.2,4.2-4.6
		c4-3.9,9-8.8,9.1-17C51.2,34.5,52,43.7,47.9,52.3z"/>
	<path class="st1" d="M52.6,45.3c0,0,6.8-6.2,4.8-13.5s-6.6-12.5-4.5-16.7"/>
	<path class="st1" d="M68.3,38.1c0.5-2.1,0.5-4.2-0.1-6.3c-2-7.3-6.1-12.2-4.4-18"/>
	<path class="st1" d="M64.6,45.4c1.8-2.1,3.1-4.6,3.7-7.3"/>
	<path class="st1" d="M59.4,45.1c0,0.3,6.5-7,2.2-17.9c-3.7-9.5-7.5-16.4-2.1-22.5"/>
	<path class="st1" d="M33.4,38.3c-8.6,3.4-18.3-0.9-21.7-9.4s0.9-18.3,9.4-21.7S39.5,8,42.8,16.6c0.8,1.9,1.2,4,1.2,6.1
		c0,2.6-0.6,5.1-1.7,7.4"/>
	<path class="st1" d="M32.3,36.3c-7.5,2.7-15.8-1.1-18.5-8.6s1.1-15.8,8.6-18.5s15.8,1.1,18.5,8.6c0.6,1.6,0.9,3.3,0.9,5
		c0,2.1-0.4,4.1-1.3,6"/>
	<path class="st1" d="M27.2,24.6c0,0-0.1,0-0.1,0c-0.1,0-0.2-0.1-0.2-0.3V13.9c0-0.1,0.1-0.3,0.3-0.3c0,0,0,0,0,0
		c0.1,0,0.3,0.1,0.3,0.2c0,0,0,0,0,0v9.7l3.7-3.8c0.1-0.1,0.3-0.1,0.4,0c0,0,0,0,0,0c0.1,0.1,0.1,0.3,0,0.4c0,0,0,0,0,0l-4.2,4.3
		C27.4,24.5,27.3,24.6,27.2,24.6z"/>
</g>
</svg>
