<svg xmlns="http://www.w3.org/2000/svg" xmlns:xlink="http://www.w3.org/1999/xlink" viewBox="0 0 150 200"><defs><style>.cls-1,.cls-3{fill:none;}.cls-2{clip-path:url(#clip-path);}.cls-3,.cls-4,.cls-5{stroke:#253948;}.cls-3,.cls-4{stroke-linecap:round;stroke-linejoin:round;stroke-width:1.25px;}.cls-4,.cls-5{fill:#253948;}.cls-5{stroke-miterlimit:10;}</style><clipPath id="clip-path"><path class="cls-1" d="M40.57,91.58s3.78,13.3,3.27,18.35-2,17.77-2,17.77-3.9,5.84-3.07,9.51,1.2,3.88,1.2,7.56a56.48,56.48,0,0,1-.38,8.72c-.43,3.21-.93,5.73-.93,5.73s11,10,13.1,13.16l.72.83S57.16,170,60,170.92c.7,0,15.91-10.09,32.07-.23A11.16,11.16,0,0,1,97,171.74s10.07-12.32,11.11-13.45c-.29-.67-1.5-13.28-1.5-13.28s3.24-7.15-1.58-16.19c0,0-5.26-25,1-37.2l-6.14-1.15s-2,21.47-25.4,22C49,113,46.76,91,46.76,91S42,90.9,40.57,91.58Z"/></clipPath></defs><g id="Layer_1" data-name="Layer 1"><g class="cls-2"><line class="cls-3" x1="42.22" y1="81.95" x2="42.22" y2="178.48"/><line class="cls-3" x1="46.71" y1="81.95" x2="46.71" y2="178.48"/><line class="cls-3" x1="51.2" y1="81.95" x2="51.2" y2="178.48"/><line class="cls-3" x1="55.69" y1="81.95" x2="55.69" y2="178.48"/><line class="cls-3" x1="60.17" y1="81.95" x2="60.17" y2="178.48"/><line class="cls-3" x1="64.66" y1="81.95" x2="64.66" y2="178.48"/><line class="cls-3" x1="69.15" y1="81.95" x2="69.15" y2="178.48"/><line class="cls-3" x1="73.64" y1="81.95" x2="73.64" y2="178.48"/><line class="cls-3" x1="78.13" y1="81.95" x2="78.13" y2="178.48"/><line class="cls-3" x1="82.62" y1="81.95" x2="82.62" y2="178.48"/><line class="cls-3" x1="87.11" y1="81.95" x2="87.11" y2="178.48"/><line class="cls-3" x1="91.6" y1="81.95" x2="91.6" y2="178.48"/><line class="cls-3" x1="96.09" y1="81.95" x2="96.09" y2="178.48"/><line class="cls-3" x1="100.58" y1="81.95" x2="100.58" y2="178.48"/><line class="cls-3" x1="105.07" y1="81.95" x2="105.07" y2="178.48"/></g><ellipse class="cls-4" cx="76.51" cy="177.45" rx="15.82" ry="4.95"/><path class="cls-3" d="M78.16,23.76c1.85,8.9.24,13.94-2.39,17.67-3.68,5.2.69,7.22,1.72,10.32S73,54.26,72.16,53.23a28.18,28.18,0,0,0,2.94,5,1,1,0,0,1-.45,1.6c-.72.27-1.25.75-1.2,2.27.08,2.67,4.8,5,1.87,10.15"/><path class="cls-3" d="M67.32,57.87s4,2.13,8,1.11"/><path class="cls-3" d="M67.84,19s1.31,6.06-.75,7.71c-3,2.43-6.37.33-8.28,2.22s-.17,6.69-2.73,9c-2.07,1.89-7.22.6-6.45,4"/><path class="cls-3" d="M66.37,14.55s.81,6.87,6.4,9.2C78.17,26,80.4,20.67,84.69,23c3.92,2.11,1.59,7.12,4.5,9.68,2.74,2.41,5.71.1,7-.69l-.11.69s-.06,6.19-.21,8.25c-.72,9.57-3.91,31.62-21.79,31.63C54.54,72.54,50,43.41,49.92,43.13s-.14-.57-.2-.86"/><path class="cls-3" d="M60.63,67.22S63,88.55,46.71,90.44c0,0,1.64,22,27.34,22s25.43-22,25.43-22c-16.34-1.89-14-22-14-22"/><path class="cls-3" d="M46.71,90.44s-27.28.87-27,23.16c.26,21.53-1.1,39.66,1.83,51.35"/><path class="cls-3" d="M44.76,186.39s-19.37-7.8-22.68-15.92,4.84-12.17,10.45-12.39,10.19,3.85,12.74,6.84,7.26,7.57,7.26,7.57"/><path class="cls-3" d="M41.71,128.61c-1.65,3-3.2,7-2.83,10.84a9.82,9.82,0,0,0,1.06,4"/><path class="cls-3" d="M105.26,129.43c1.51,2.92,2.83,6.61,2.48,10.19a11.47,11.47,0,0,1-1.39,4.67"/><path class="cls-3" d="M41.69,128.47c0,.11,0,.22-.08.32"/><path class="cls-3" d="M40.57,91.58s6.59,16.12,1.12,36.89"/><path class="cls-3" d="M99.91,90.47s27.27.88,27,23.16c-.27,21.53,1.09,39.66-1.83,51.36"/><path class="cls-3" d="M106.68,184.84s14.73-6.78,17.71-15.5S120,156.27,115,156s-9.17,4.13-11.47,7.34-6.15,8.36-6.15,8.36"/><path class="cls-3" d="M106.05,91.62s-6.65,16.28-1,37.2"/><path class="cls-3" d="M39.94,143.49A59.83,59.83,0,0,1,38.82,159"/><path class="cls-3" d="M106.59,143.85s.24,6,1.53,14.68"/><ellipse class="cls-3" cx="76.06" cy="174.81" rx="18" ry="8.25"/><path class="cls-3" d="M60.07,177.88c1.53-3.5,8.16-6.14,16.09-6.14,7.64,0,14.06,2.44,15.9,5.75"/><path class="cls-3" d="M93.64,181.09a37.29,37.29,0,0,0,.42-6.28"/><path class="cls-3" d="M65.55,196.54c2.46,2,5.78,3.25,10.32,3.25s7.66-1.09,10.24-3.31"/><path class="cls-3" d="M58.07,174.81a37.21,37.21,0,0,0,.35,6.28"/><path class="cls-3" d="M92.66,170.92c3.78,0,11.49,1.71,13.37,12.15.86,4.75-.3,13.64-12.16,15-1.89.22-11.13,1.31-9.11-8.59,1.2-5.91,9.28-6.37,10.83-10.84"/><path class="cls-3" d="M60,170.92c-3.79,0-12.28,1.71-14.16,12.15-.86,4.75.3,13.64,12.16,15,1.89.22,11.13,1.31,9.11-8.59-1.2-5.91-9.28-6.37-10.83-10.84"/><circle class="cls-5" cx="50.71" cy="62.68" r="5.27"/><circle class="cls-5" cx="95.91" cy="63.15" r="5.27"/><path class="cls-3" d="M85.74,74.22l26.1,0,0-.34c1.58-9.6-6.42-10.71-6.6-13.3s5.08-3.11,4.73-7.26c-.19-2.25-5.53-3.35-5.53-5.42s3.78-3.87,3.34-8.53c-.46-4.84-3.36-4.38-5.44-5.42s-1.55-3.46-1-5.71,1.5-5.59.71-8.47c-1.16-4.15-3.87-2.75-6.91-5.59-1.73-1.61-.47-5.82-4.72-8-3.1-1.63-6.27.26-9.61,0s-6-2.5-9.08-2.19c-3.61.37-4.91,3.38-8.88,1.83a7.15,7.15,0,0,0-9,2.89c-2.07,3.75-.34,5.31-6,8-4.69,2.2-5.42,5.07-3.58,10,.81,2.16,1.4,5.28-.67,6.31s-7.28,3.2-6.93,7.87,6.83,6.48,3.45,8.87c-2.76,2-2.42,5.19-1.15,9.34,1.18,3.86-7.08,5-5.89,15l27.18.06"/></g></svg>